<?xml version="1.0" encoding="utf-8"?>
<!-- Generator: Adobe Illustrator 18.1.1, SVG Export Plug-In . SVG Version: 6.00 Build 0)  -->
<svg version="1.1" id="Layer_3" xmlns="http://www.w3.org/2000/svg" xmlns:xlink="http://www.w3.org/1999/xlink" x="0px" y="0px"
	 viewBox="0 0 360 360" enable-background="new 0 0 360 360" xml:space="preserve">
<g>
	<path fill-rule="evenodd" clip-rule="evenodd" fill="#F8C430" d="M317.9,33.4C276.4,5.5,196.6,6.7,196.6,6.7
		C30.4,17.3,9.8,129.8,9.8,129.8c-25.7,105.5,77.2,133.1,77.2,133.1c65.7,20.9,107.2,15.9,133.4,0.4l-76.4-107.8
		c0,0-18.3-5.5-23.8-19c-5.5-13.5-5.2-18.3-25.6-18.9c0,0,32.5-20.8,46.7-5c0,0,17.6,20.1,15.3,33.9L233,254.2
		c36-31.9,32-86.2,32-86.2c66.2-17.3,73.5-40.4,73.5-40.4C376.4,75,317.9,33.4,317.9,33.4z M239.2,136c-24.7,0-44.8-10.7-44.8-24
		s20-24,44.8-24C264,88,284,98.7,284,112S264,136,239.2,136z"/>
	<path fill-rule="evenodd" clip-rule="evenodd" fill="#F8C430" d="M283.9,352.7c2.5,3.5,7.3,4.3,10.8,1.8c3.5-2.5,4.3-7.3,1.8-10.8
		L233,254.2c-3.7,3.3-7.9,6.3-12.5,9.1L283.9,352.7z"/>
</g>
<ellipse fill-rule="evenodd" clip-rule="evenodd" fill="#89BA40" cx="141" cy="244" rx="19" ry="15"/>
<ellipse fill-rule="evenodd" clip-rule="evenodd" fill="#71C1DF" cx="89.5" cy="200" rx="19.5" ry="20"/>
<ellipse fill-rule="evenodd" clip-rule="evenodd" fill="#8C569A" cx="49" cy="154.4" rx="27" ry="12.6"/>
<ellipse fill-rule="evenodd" clip-rule="evenodd" fill="#FFE300" cx="73.5" cy="91.5" rx="24.5" ry="16.5"/>
<ellipse fill-rule="evenodd" clip-rule="evenodd" fill="#E71E29" cx="125.5" cy="60" rx="27.5" ry="15"/>
<ellipse fill-rule="evenodd" clip-rule="evenodd" fill="#B81E73" cx="200.2" cy="43.5" rx="20.2" ry="26.5"/>
</svg>
