<?xml version="1.0" encoding="utf-8"?>
<!-- Generator: Adobe Illustrator 18.1.1, SVG Export Plug-In . SVG Version: 6.00 Build 0)  -->
<svg version="1.1" xmlns="http://www.w3.org/2000/svg" xmlns:xlink="http://www.w3.org/1999/xlink" x="0px" y="0px"
	 viewBox="0 0 360 360" enable-background="new 0 0 360 360" xml:space="preserve">
<g id="Layer_2">
	<g>
		<g>
			<path fill="#E06CA1" stroke="#FFFFFF" stroke-width="2.1133" stroke-miterlimit="10" d="M90.7,288.9l-0.9,48.4
				c0,19.2-27.1,19.2-27.1,0l0.9-48.4H35.5l29.7-109.4h-6l-16.6,61.8c-5.4,17.6-28.2,10.4-22.9-8.5l19.1-68.7
				c2.7-10,14.6-27.7,35.2-27.7h19l0,0h20.5c20.4,0,32.4,17.9,35.5,27.7l38.3,68.5c7.4,14.9-13.4,25.2-23,8.3l-35.8-61.4H122
				l30.1,109.4h-26.4l-0.9,48.5c0,19-27,18.9-27,0l0.9-48.5H90.7z"/>
		</g>
		<g>
			<circle fill="#E06CA1" stroke="#FFFFFF" stroke-width="2.1133" stroke-miterlimit="10" cx="94.7" cy="115.1" r="28.7"/>
			<circle fill="#008DD0" stroke="#FFFFFF" stroke-width="2.1133" stroke-miterlimit="10" cx="155.3" cy="247.6" r="19.4"/>
			<path stroke="#FFFFFF" stroke-width="2.1133" stroke-miterlimit="10" d="M94.7,115.1"/>
		</g>
	</g>
</g>
<g id="Layer_3">
	<path stroke="#FFFFFF" stroke-width="0.8936" stroke-miterlimit="10" d="M90.6,52.4"/>
	<g>
		<g>
			<path fill="#008DD0" d="M304.6,350.6c-8.2,0-16.9-5.4-16.9-17.1v-69.9h-8.2v69.9c0,11.8-8.7,17.1-16.8,17.1
				c-7.9,0-16.4-5.4-16.4-17.1V187.3h-8l-22.8,51.3c-5.5,11.9-12,13.7-15.3,13.7c-3.3,0-6.4-1.7-8.3-4.5c-1.8-2.6-2.2-5.7-1.1-8.4
				l22.5-58.8c2.3-4.9,4.1-9.5,5.7-13.6c6.6-16.6,10.3-25.8,32.1-25.8l64.2,0c23.6,0,38.3,20.5,38.3,39.5V239c0,3.8-1.2,7.1-3.5,9.4
				c-2.2,2.2-5.3,3.4-8.6,3.4c0,0,0,0,0,0c-5.9,0-12.2-4-12.2-12.9v-51.7h-8.3v146.2C321.1,345.3,312.6,350.6,304.6,350.6z"/>
			<path fill="#FFFFFF" d="M251.2,142.3L251.2,142.3l64.2,0c10.4,0,20,4.2,27,11.9c6.5,7.2,10.3,16.9,10.3,26.5l0,58.2
				c0,3.6-1.1,6.6-3.2,8.7c-2,2-4.9,3.1-7.9,3.1c-5.3,0-11.1-3.7-11.1-11.8v-50.6v-2.1h-2.1h-6.1h-2.1v2.1v145.1
				c0,11.1-7.8,16.1-15.5,16.1c-7.6,0-15.9-5-15.9-16.1v-68.8v-2.1h-2.1h-6.1h-2.1v2.1v68.8c0,11-8.2,16.1-15.8,16.1
				c-7.7,0-15.4-5-15.4-16.1V188.3v-2.1h-2.1h-6.3h-1.4l-0.6,1.3l-22.5,50.7c-5.3,11.4-11.3,13.1-14.3,13.1c-2.9,0-5.7-1.5-7.4-4
				c-1.6-2.3-1.9-5-0.9-7.5l22.5-58.7c2.3-4.9,4.1-9.5,5.8-13.6C226.5,151.2,230,142.3,251.2,142.3 M251.2,140.2
				c-28.3,0-27.4,15.6-38.9,40L189.8,239c-2.7,6.7,2.9,14.4,10.3,14.4c5.2,0,11.4-3.8,16.3-14.4l22.5-50.7h6.3v145.1
				c0,12.2,8.7,18.2,17.5,18.2c8.9,0,17.9-6.2,17.9-18.2v-68.8h6.1v68.8c0,12,9,18.2,18,18.2c8.8,0,17.6-6,17.6-18.2V188.3h6.1V239
				c0,9.3,6.6,13.9,13.2,13.9c6.6,0,13.2-4.6,13.2-13.9v-58.2c0-20.5-15.7-40.6-39.3-40.6L251.2,140.2L251.2,140.2z"/>
		</g>
	</g>
	<g>
		<circle fill="#008DD0" stroke="#FFFFFF" stroke-width="2.1133" stroke-miterlimit="10" cx="283.4" cy="117" r="30.6"/>
		<path fill="#5D5D5D" stroke="#FFFFFF" stroke-width="2.1133" stroke-miterlimit="10" d="M283.4,117"/>
	</g>
	<circle fill="#E06CA1" stroke="#FFFFFF" stroke-width="2.1133" stroke-miterlimit="10" cx="228.7" cy="247.6" r="19.4"/>
</g>
</svg>
