<?xml version="1.0" encoding="utf-8"?>
<!-- Generator: Adobe Illustrator 18.1.1, SVG Export Plug-In . SVG Version: 6.00 Build 0)  -->
<svg version="1.1" xmlns="http://www.w3.org/2000/svg" xmlns:xlink="http://www.w3.org/1999/xlink" x="0px" y="0px"
	 viewBox="0 0 360 360" enable-background="new 0 0 360 360" xml:space="preserve">
<g id="Layer_2">
</g>
<g id="Layer_3">
	<g>
		<g>
			<path fill="#10167F" d="M149.7,201.9c-2.2-3.1-3.9-4.2-3-16.4c4.3,7.1,13.3,19.2,39.3,15.7c0,0-23.7-53.3-10.9-68.4
				c12.5-14.9,23.6-140-63.5-119.7C43.2-13.7,26.3,67.7,45.4,115.7c19.4,48.5-40.4,68-40.4,68c59.2,24.4,58.7-21.6,62.5-9.5
				c3.9,12.1-0.6,21-0.6,21c10.1-1.8,12.3-5.5,14.9-10.2c0.3,7.7-0.6,11.9-2,14.7C0.4,199.8,0.4,360,0.4,360h110.8h132.8
				C228.9,322.8,244.8,206.6,149.7,201.9z M80.1,162.2c-0.7-0.7-1.5-1.5-2.2-2.2c-3.7-3.7-2.7-10.8-5.8-14.2
				c5.1,4.3,23.7-4.6,23.7-4.6c-13.8-6.6-27.1-34.8-27.1-34.8c13.8,17.4,23.2,4.9,23.2,4.9C81.8,93.4,92.2,61.4,102,39
				c19.5,1.4,79.6,12.6,49.4,97.9l8.3-1.7l-1.8,9c-3.5,3.8-1.9,11.6-6.2,15.9c-0.7,0.7-1.5,1.5-2.2,2.2c-0.7,0.7-1.5,1.5-2.2,2.2
				c-11.1,10.8-28.3,17.1-33,17.1c-4.7,0-20.8-6.3-31.9-17.1C81.6,163.7,80.8,162.9,80.1,162.2z M113.8,238.7
				c-22.1,0-39.6-4.9-39.6-17.3c0-4,2-8,5.8-11.5l0.5-0.5c0.9-0.8,2-1.6,3.1-2.4l0.7-0.7c1.6-2-0.2-4,0.9-7.6
				c1.6-5.2,0.8-10.5-1.7-27.2c9.8,9.2,25,14.3,30.8,14.3c5.7,0,22.1-5.1,31.9-14.3c-2.8,18.7-4.2,23.9-2.2,29
				c1.1,2.6-1,4.3,0.4,6.1l0.5,0.5c1.2,0.8,2.2,1.6,3.1,2.4l0.4,0.4c3.8,3.5,5.8,7.5,5.8,11.5C154.3,233.8,135.9,238.7,113.8,238.7z
				"/>
		</g>
	</g>
	<g>
		<g>
			<path fill="#F69A7A" d="M306.6,203.7c-3-4.3-5.2-11.4-0.6-38.9c7.5-7.5,13.8-14.3,15.7-16.5c-0.2,3.9-0.9,8-2.1,12.2
				c0,0,83.2-137.1-39.4-144.3c0,0-35.6-23.1-69.7,13.2c0,0-43,40.8-0.6,99.2c42.4,58.4,1.7,49,1.7,49s25.4,11.4,33.5-0.3
				c1.7,14.3,0.6,20.5-1.2,24.3c-36,7.3-80.3,117.6-89.6,158.4h117.4h88.7C360.4,360,360.4,203.7,306.6,203.7z M245.9,161.1
				l-0.1-0.7l-0.2-2.2l-7-90.8c0,0,71.2,21.6,81.9,66.5l-2.1,11.4c-3.5,3.9-7.7,8.4-12.1,12.9c-0.7,0.7-1.5,1.5-2.2,2.2
				c-0.7,0.7-1.5,1.5-2.2,2.2c-11.1,10.9-22.5,20.6-27.2,20.6c-4.7,0-16.1-9.7-27.2-20.6C246.9,162.1,246.4,161.6,245.9,161.1z
				 M275.4,262.9c-22,0-33.9-26.4-40.7-39.6c-1.8-3.6,2-8,5.8-11.6l0.5-0.5c0.9-0.8,2-1.6,3.1-2.4l0.7-0.7c1.6-2,3.2-4,4.3-7.6
				c1.6-5.3,2-13.9-0.5-30.7c9.8,9.2,20.4,17.8,26.1,17.8c5.7,0,16.3-8.6,26.1-17.8c-2.8,18.7-2,27.3,0.1,32.5
				c1.1,2.6,2.4,4.4,3.8,6.1l0.5,0.5c1.1,0.8,2.2,1.6,3.1,2.4l0.5,0.4c3.8,3.5,5.8,7.5,5.8,11.6
				C307.3,238.2,297.4,262.9,275.4,262.9z"/>
		</g>
	</g>
	<g>
		<g>
			<g>
				<path fill="#F69A7A" stroke="#FFFFFF" stroke-width="1.2993" stroke-miterlimit="10" d="M246.9,315.6l0.6,29.7
					c0,11.8,16.6,11.8,16.6,0l-0.6-29.7h17.3l-18.3-67.3h3.7l10.2,38c3.3,10.8,17.3,6.4,14.1-5.2l-11.8-42.3c-1.7-6.1-9-17-21.7-17
					h-11.7l0,0H233c-12.6,0-19.9,11-21.8,17L187.6,281c-4.6,9.2,8.2,15.5,14.1,5.1l22-37.7h4l-18.5,67.3h16.2l0.6,29.8
					c0,11.7,16.6,11.6,16.6,0l-0.6-29.8H246.9z"/>
			</g>
			<g>
				<circle fill="#F69A7A" stroke="#FFFFFF" stroke-width="1.2993" stroke-miterlimit="10" cx="244.5" cy="208.7" r="17.6"/>
				<circle fill="#10167F" stroke="#FFFFFF" stroke-width="1.2993" stroke-miterlimit="10" cx="207.3" cy="290.2" r="11.9"/>
				<path stroke="#FFFFFF" stroke-width="1.2993" stroke-miterlimit="10" d="M244.5,208.7"/>
			</g>
		</g>
		<path stroke="#FFFFFF" stroke-width="0.5494" stroke-miterlimit="10" d="M247,170.2"/>
		<g>
			<g>
				<path fill="#10167F" d="M141.3,353.5c-2.7,0-5.2-0.9-7.1-2.6c-2.1-1.9-3.2-4.6-3.2-7.9v-43h-5v43c0,7.2-5.4,10.5-10.4,10.5
					c-2.7,0-5.2-0.9-7-2.6c-2.1-1.9-3.2-4.6-3.2-7.9v-89.9h-5.1v31.8c0,5.4-3.9,7.9-7.5,7.9c-2,0-4-0.8-5.3-2.1
					c-1.4-1.4-2.2-3.4-2.2-5.8v-35.8c0-11.7,9-24.3,23.5-24.3l39.5,0c13.4,0,15.7,5.6,19.7,15.9c1,2.5,2.1,5.4,3.6,8.4l13.8,36.1
					c0.7,1.7,0.4,3.6-0.6,5.2c-1.2,1.7-3.1,2.8-5.1,2.8c-2.1,0-6-1.1-9.4-8.5l-14-31.5h-4.9V343
					C151.4,350.2,146.1,353.5,141.3,353.5C141.3,353.5,141.3,353.5,141.3,353.5z"/>
				<path fill="#FFFFFF" d="M148.3,225.5L148.3,225.5c13,0,15.2,5.5,19.1,15.4c1,2.5,2.1,5.3,3.5,8.4l13.8,36.1
					c0.6,1.5,0.4,3.1-0.6,4.6c-1,1.5-2.7,2.5-4.5,2.5c-1.9,0-5.6-1-8.8-8.1l-13.8-31.2l-0.3-0.8h-0.8H152h-1.3v1.3V343
					c0,6.8-4.7,9.9-9.5,9.9c-4.7,0-9.7-3.1-9.7-9.9v-42.3v-1.3h-1.3h-3.7h-1.3v1.3V343c0,6.8-5.1,9.9-9.8,9.9
					c-4.7,0-9.5-3.1-9.5-9.9v-89.2v-1.3h-1.3h-3.8h-1.3v1.3v31.1c0,5-3.5,7.3-6.8,7.3c-1.8,0-3.6-0.7-4.8-1.9c-1.3-1.3-2-3.1-2-5.3
					v-35.8c0-11.4,8.7-23.6,22.9-23.6L148.3,225.5 M148.3,224.2l-39.5,0c-14.5,0-24.2,12.3-24.2,24.9v35.8c0,5.7,4,8.6,8.1,8.6
					c4.1,0,8.1-2.9,8.1-8.6v-31.1h3.8V343c0,7.5,5.4,11.2,10.8,11.2c5.5,0,11.1-3.8,11.1-11.2v-42.3h3.7V343c0,7.4,5.5,11.2,11,11.2
					c5.4,0,10.8-3.7,10.8-11.2v-89.2h3.9l13.8,31.2c3,6.5,6.8,8.8,10,8.8c4.6,0,8-4.7,6.3-8.8l-13.8-36.2
					C165.1,233.8,165.7,224.2,148.3,224.2L148.3,224.2z"/>
			</g>
		</g>
		<g>
			<circle fill="#10167F" stroke="#FFFFFF" stroke-width="1.2993" stroke-miterlimit="10" cx="128.5" cy="209.9" r="18.8"/>
			<path fill="#5D5D5D" stroke="#FFFFFF" stroke-width="1.2993" stroke-miterlimit="10" d="M128.5,209.9"/>
		</g>
		<circle fill="#F69A7A" stroke="#FFFFFF" stroke-width="1.2993" stroke-miterlimit="10" cx="162.1" cy="290.2" r="11.9"/>
	</g>
</g>
</svg>
