<?xml version="1.0" encoding="utf-8"?>
<!-- Generator: Adobe Illustrator 18.1.1, SVG Export Plug-In . SVG Version: 6.00 Build 0)  -->
<svg version="1.1" id="Layer_3" xmlns="http://www.w3.org/2000/svg" xmlns:xlink="http://www.w3.org/1999/xlink" x="0px" y="0px"
	 viewBox="0 0 360 360" enable-background="new 0 0 360 360" xml:space="preserve">
<g>
	<rect x="104" y="35.7" fill="#FF9600" width="171.7" height="217.4"/>
	<g>
		<g>
			<path d="M279.7,26.3h-32.2V13.7c0-4.7-3.8-8.5-8.5-8.5s-8.5,3.8-8.5,8.5v12.5h-30.7V13.7c0-4.7-3.8-8.5-8.5-8.5
				c-4.7,0-8.5,3.8-8.5,8.5v12.5h-30.7V13.7c0-4.7-3.8-8.5-8.5-8.5c-4.7,0-8.5,3.8-8.5,8.5v12.5h-32.2c-4.7,0-8.5,3.8-8.5,8.5v221.4
				c0,4.7,3.8,8.5,8.5,8.5h176.8c4.7,0,8.5-3.8,8.5-8.5V34.8C288.2,30.1,284.4,26.3,279.7,26.3z M271.2,247.7H111.4V43.3h23.7v9.9
				c0,4.7,3.8,8.5,8.5,8.5c4.7,0,8.5-3.8,8.5-8.5v-9.9h30.7v9.9c0,4.7,3.8,8.5,8.5,8.5c4.7,0,8.5-3.8,8.5-8.5v-9.9h30.7v9.9
				c0,4.7,3.8,8.5,8.5,8.5s8.5-3.8,8.5-8.5v-9.9h23.7V247.7L271.2,247.7z"/>
			<path d="M241.7,100.5H140.9c-4.7,0-8.5,3.8-8.5,8.5s3.8,8.5,8.5,8.5h100.8c4.7,0,8.5-3.8,8.5-8.5S246.4,100.5,241.7,100.5z"/>
			<path d="M241.7,148.2H140.9c-4.7,0-8.5,3.8-8.5,8.5c0,4.7,3.8,8.5,8.5,8.5h100.8c4.7,0,8.5-3.8,8.5-8.5
				C250.2,152,246.4,148.2,241.7,148.2z"/>
			<path d="M241.7,195.9H140.9c-4.7,0-8.5,3.8-8.5,8.5c0,4.7,3.8,8.5,8.5,8.5h100.8c4.7,0,8.5-3.8,8.5-8.5
				C250.2,199.7,246.4,195.9,241.7,195.9z"/>
		</g>
	</g>
</g>
<g>
	<path fill="#7C81B8" d="M38.1,258.5c-15.3,12.6-23.5,32.9-19.7,53.7c3.8,20.7,18.3,36.7,36.8,43.3l-8-44.7l24.9-21l30.7,11.1
		l8.1,44.7c15-12.6,23-32.7,19.3-53.4c-3.9-21.7-19.8-38.3-39.6-44.3l0-0.2L57.4,63.8c-1.3-7.3-5.4-13.3-11.1-17.2
		c-5.6-3.9-12.7-5.6-20-4.4C11.8,44.8,2.1,58.7,4.7,73.2L38.1,258.5z M37.4,55.3c4.6,3.2,5.7,9.6,2.5,14.2
		c-3.2,4.6-9.6,5.8-14.2,2.6c-4.6-3.2-5.8-9.6-2.6-14.2C26.4,53.2,32.7,52.1,37.4,55.3z"/>
</g>
<g>
	<g>
		<g>
			<path fill="#FE230A" d="M242.3,244.3l-13.3-7.8L333.1,54c1.1-1.8,2.8-3.1,4.7-3.6c1.9-0.5,4-0.3,5.9,0.8
				c3.7,2.1,4.9,6.9,2.8,10.6L242.3,244.3z"/>
			<polygon fill="#6B6B6B" points="241,248.8 241.6,249.1 235.7,259.2 232.1,265.5 215.5,255.9 219.4,249.1 225,239.4 225.8,239.9 
				226.7,240.4 240.1,248.2 			"/>
		</g>
	</g>
	<g>
		<g>
			<path fill="#A5A5A5" d="M173.6,346.3c12.1-3.3,34.5-13.9,43-47c-20.1,41.6-48.4,42.8-49.5,41.9c14.7-4.9,44.9-42.6,43.2-44.4
				c-2.1-2.2-35.3,49.1-54.6,32.3c-11.3-9.9-15.6-28-18-42.2c28.3,7.5,61.1-13.9,76.4-25.6l13.7,8.2
				C226.4,294.2,218.2,347.2,173.6,346.3z"/>
		</g>
	</g>
</g>
<g>
	<path fill="#10167F" d="M343,270.4L343,270.4c0.9,0,1.7-0.2,2.5-0.4l-11.2,77h-74.4l-4.4-28.3c18.5,2,33.9-7.2,42.9-23
		c8.9-0.4,8.8-14.4-0.4-14.4c-6.4,0-8.4,6.7-6,11c-7.7,13.3-20.6,21.7-36.9,19.2c-0.3,0-0.5-0.1-0.7,0l-6.5-41.5
		c0.9,0.3,1.8,0.4,2.7,0.4H343z M245.6,266.5c0,1.4,0.6,2.7,1.6,3.6c0.9,0.8,2,1.3,3.3,1.3H343c1.3,0,2.4-0.5,3.3-1.3
		c1-0.9,1.6-2.2,1.6-3.6c0-2.7-2.2-4.9-4.9-4.9h-92.5C247.8,261.6,245.6,263.8,245.6,266.5z"/>
</g>
</svg>
