<?xml version="1.0" encoding="utf-8"?>
<!-- Generator: Adobe Illustrator 18.1.1, SVG Export Plug-In . SVG Version: 6.00 Build 0)  -->
<svg version="1.1" xmlns="http://www.w3.org/2000/svg" xmlns:xlink="http://www.w3.org/1999/xlink" x="0px" y="0px"
	 viewBox="0 0 360 360" enable-background="new 0 0 360 360" xml:space="preserve">
<g id="Layer_3">
	<path stroke="#FFFFFF" stroke-width="0.8936" stroke-miterlimit="10" d="M90.6,52.4"/>
	<g>
		<g>
			<g>
				<path fill="#FFC000" d="M227.8,231.2l15.6-9.1L121.8,8.9c-1.3-2.2-3.3-3.6-5.5-4.2c-2.2-0.6-4.7-0.3-6.8,0.9
					c-4.3,2.5-5.8,8-3.3,12.3L227.8,231.2z"/>
				<polygon fill="#6B6B6B" points="229.3,236.4 228.6,236.8 235.5,248.6 239.7,256 259.2,244.7 254.5,236.7 248,225.5 247.1,226 
					246,226.7 230.4,235.7 				"/>
			</g>
		</g>
		<g>
			<g>
				<path fill="#A5A5A5" d="M308,350.4c-14.2-3.8-40.3-16.3-50.3-54.9c23.5,48.5,56.6,50,57.8,49c-17.2-5.7-52.5-49.8-50.5-51.8
					c2.5-2.6,41.3,57.3,63.8,37.8c13.3-11.5,18.2-32.7,21-49.3c-33,8.8-71.3-16.2-89.2-29.9l-16.1,9.6
					C246.3,289.4,256,351.4,308,350.4z"/>
			</g>
		</g>
	</g>
</g>
<g id="Layer_4">
	<g>
		<path fill="#0035E7" d="M195.2,220.3c1.6,0,3.2-0.3,4.7-0.8l-11.2,71c-0.4,0-0.8,0-1.3,0.1c-27.9,4.4-49.9-10-63.1-32.8
			c4-7.3,0.6-18.8-10.3-18.8c-15.7,0-15.9,24-0.6,24.6c15.3,27.1,41.7,42.8,73.4,39.4l-7.6,48.5H51.8L32.6,219.7
			c1.4,0.4,2.8,0.6,4.3,0.6v0H195.2z M195.2,205.2H36.8c-4.6,0-8.4,3.8-8.4,8.4c0,2.5,1.1,4.6,2.8,6.2c1.5,1.4,3.5,2.2,5.6,2.2
			h158.3c2.2,0,4.1-0.9,5.6-2.2c1.7-1.5,2.8-3.7,2.8-6.2C203.6,208.9,199.8,205.2,195.2,205.2z"/>
	</g>
</g>
</svg>
