<?xml version="1.0" encoding="utf-8"?>
<!-- Generator: Adobe Illustrator 18.1.1, SVG Export Plug-In . SVG Version: 6.00 Build 0)  -->
<svg version="1.1" id="Layer_3" xmlns="http://www.w3.org/2000/svg" xmlns:xlink="http://www.w3.org/1999/xlink" x="0px" y="0px"
	 viewBox="0 0 360 360" enable-background="new 0 0 360 360" xml:space="preserve">
<g>
	<path fill="#008DD0" stroke="#FFFFFF" stroke-width="1.8193" stroke-miterlimit="10" d="M164.7,52.3c-4.4,0-7.9,3.6-7.9,8.1v19.1
		c0,3.7,5.4,3.7,5.4,0V62.1h1.3v48.5c0,5,7.1,4.8,7.1,0V82.2h1.2v28.4c0,4.8,7.2,5,7.2,0V62.1h1.2v17.5c0,3.7,5.3,3.7,5.3,0v-19
		c0-4.1-3.2-8.2-7.9-8.2L164.7,52.3z"/>
</g>
<g>
	<circle fill="#008DD0" stroke="#FFFFFF" stroke-width="1.8193" stroke-miterlimit="10" cx="171.2" cy="46.8" r="6.2"/>
	<path fill="#5D5D5D" stroke="#FFFFFF" stroke-width="1.8193" stroke-miterlimit="10" d="M171.2,46.8"/>
</g>
<g>
	<path fill="#008DD0" stroke="#FFFFFF" stroke-width="1.8193" stroke-miterlimit="10" d="M242.3,52.3c-4.4,0-7.9,3.6-7.9,8.1v19.1
		c0,3.7,5.4,3.7,5.4,0V62.1h1.3v48.5c0,5,7.1,4.8,7.1,0V82.2h1.2v28.4c0,4.8,7.2,5,7.2,0V62.1h1.2v17.5c0,3.7,5.3,3.7,5.3,0v-19
		c0-4.1-3.2-8.2-7.9-8.2L242.3,52.3z"/>
</g>
<g>
	<circle fill="#008DD0" stroke="#FFFFFF" stroke-width="1.8193" stroke-miterlimit="10" cx="248.8" cy="46.8" r="6.2"/>
	<path fill="#5D5D5D" stroke="#FFFFFF" stroke-width="1.8193" stroke-miterlimit="10" d="M248.8,46.8"/>
</g>
<g>
	<path fill="#008DD0" stroke="#FFFFFF" stroke-width="1.8193" stroke-miterlimit="10" d="M267.1,52.3c-4.4,0-7.9,3.6-7.9,8.1v19.1
		c0,3.7,5.4,3.7,5.4,0V62.1h1.3v48.5c0,5,7.1,4.8,7.1,0V82.2h1.2v28.4c0,4.8,7.2,5,7.2,0V62.1h1.2v17.5c0,3.7,5.3,3.7,5.3,0v-19
		c0-4.1-3.2-8.2-7.9-8.2L267.1,52.3z"/>
</g>
<g>
	<circle fill="#008DD0" stroke="#FFFFFF" stroke-width="1.8193" stroke-miterlimit="10" cx="273.6" cy="46.8" r="6.2"/>
	<path fill="#5D5D5D" stroke="#FFFFFF" stroke-width="1.8193" stroke-miterlimit="10" d="M273.6,46.8"/>
</g>
<g>
	<path fill="#008DD0" stroke="#FFFFFF" stroke-width="1.8193" stroke-miterlimit="10" d="M54.9,52.3c-4.4,0-7.9,3.6-7.9,8.1v19.1
		c0,3.7,5.4,3.7,5.4,0V62.1h1.3v48.5c0,5,7.1,4.8,7.1,0V82.2h1.2v28.4c0,4.8,7.2,5,7.2,0V62.1h1.2v17.5c0,3.7,5.3,3.7,5.3,0v-19
		c0-4.1-3.2-8.2-7.9-8.2L54.9,52.3z"/>
</g>
<g>
	<circle fill="#008DD0" stroke="#FFFFFF" stroke-width="1.8193" stroke-miterlimit="10" cx="61.5" cy="46.8" r="6.2"/>
	<path fill="#5D5D5D" stroke="#FFFFFF" stroke-width="1.8193" stroke-miterlimit="10" d="M61.5,46.8"/>
</g>
<g>
	<path stroke="#FFFFFF" stroke-width="1.8193" stroke-miterlimit="10" d="M142.5,50.3"/>
	<g>
		<path fill="#E21769" stroke="#FFFFFF" stroke-width="1.8193" stroke-miterlimit="10" d="M141.6,89.8l0,21.6c0,3.9-5.8,3.9-5.8,0
			l0-21.6H128l8.3-28.7H135l-4.9,16.4c-1.2,3.6-6.1,2.1-4.9-1.7l5.4-17.8c0.6-2,3.1-5.6,7.6-5.6h4.1l0,0h4.4c4.4,0,7,3.6,7.6,5.6
			l5.4,17.8c1.1,3.8-3.8,5.4-4.9,1.7l-4.9-16.3h-1.4l8.4,28.7h-7.8v21.7c0,3.9-5.8,3.8-5.8,0V89.8H141.6z"/>
	</g>
	<g>
		<circle fill="#E21769" stroke="#FFFFFF" stroke-width="1.8193" stroke-miterlimit="10" cx="142.5" cy="46.8" r="6.2"/>
		<path stroke="#FFFFFF" stroke-width="1.8193" stroke-miterlimit="10" d="M142.5,46.8"/>
	</g>
</g>
<g>
	<path stroke="#FFFFFF" stroke-width="1.8193" stroke-miterlimit="10" d="M116,50.3"/>
	<g>
		<path fill="#E21769" stroke="#FFFFFF" stroke-width="1.8193" stroke-miterlimit="10" d="M115.1,89.8l0,21.6c0,3.9-5.8,3.9-5.8,0
			l0-21.6h-7.7l8.3-28.7h-1.3l-4.9,16.4c-1.2,3.6-6.1,2.1-4.9-1.7l5.4-17.8c0.6-2,3.1-5.6,7.6-5.6h4.1l0,0h4.4c4.4,0,7,3.6,7.6,5.6
			l5.4,17.8c1.1,3.8-3.8,5.4-4.9,1.7l-4.9-16.3H122l8.4,28.7h-7.8v21.7c0,3.9-5.8,3.8-5.8,0V89.8H115.1z"/>
	</g>
	<g>
		<circle fill="#E21769" stroke="#FFFFFF" stroke-width="1.8193" stroke-miterlimit="10" cx="116" cy="46.8" r="6.2"/>
		<path stroke="#FFFFFF" stroke-width="1.8193" stroke-miterlimit="10" d="M116,46.8"/>
	</g>
</g>
<g>
	<path stroke="#FFFFFF" stroke-width="1.8193" stroke-miterlimit="10" d="M86.7,50.3"/>
	<g>
		<path fill="#E21769" stroke="#FFFFFF" stroke-width="1.8193" stroke-miterlimit="10" d="M85.8,89.8l0,21.6c0,3.9-5.8,3.9-5.8,0
			l0-21.6h-7.7l8.3-28.7h-1.3l-4.9,16.4c-1.2,3.6-6.1,2.1-4.9-1.7L74.8,58c0.6-2,3.1-5.6,7.6-5.6h4.1l0,0h4.4c4.4,0,7,3.6,7.6,5.6
			l5.4,17.8c1.1,3.8-3.8,5.4-4.9,1.7l-4.9-16.3h-1.4l8.4,28.7h-7.8v21.7c0,3.9-5.8,3.8-5.8,0V89.8H85.8z"/>
	</g>
	<g>
		<circle fill="#E21769" stroke="#FFFFFF" stroke-width="1.8193" stroke-miterlimit="10" cx="86.6" cy="46.8" r="6.2"/>
		<path stroke="#FFFFFF" stroke-width="1.8193" stroke-miterlimit="10" d="M86.6,46.8"/>
	</g>
</g>
<g>
	<path fill="#008DD0" stroke="#FFFFFF" stroke-width="1.8193" stroke-miterlimit="10" d="M191.5,52.3c-4.4,0-7.9,3.6-7.9,8.1v19.1
		c0,3.7,5.4,3.7,5.4,0V62.1h1.3v48.5c0,5,7.1,4.8,7.1,0V82.2h1.2v28.4c0,4.8,7.2,5,7.2,0V62.1h1.2v17.5c0,3.7,5.3,3.7,5.3,0v-19
		c0-4.1-3.2-8.2-7.9-8.2L191.5,52.3z"/>
</g>
<g>
	<circle fill="#008DD0" stroke="#FFFFFF" stroke-width="1.8193" stroke-miterlimit="10" cx="198.1" cy="46.8" r="6.2"/>
	<path fill="#5D5D5D" stroke="#FFFFFF" stroke-width="1.8193" stroke-miterlimit="10" d="M198.1,46.8"/>
</g>
<g>
	<path stroke="#FFFFFF" stroke-width="1.8193" stroke-miterlimit="10" d="M223.3,50.3"/>
	<g>
		<path fill="#E21769" stroke="#FFFFFF" stroke-width="1.8193" stroke-miterlimit="10" d="M222.4,89.8l0,21.6c0,3.9-5.8,3.9-5.8,0
			l0-21.6h-7.7l8.3-28.7h-1.3l-4.9,16.4c-1.2,3.6-6.1,2.1-4.9-1.7l5.4-17.8c0.6-2,3.1-5.6,7.6-5.6h4.1l0,0h4.4c4.4,0,7,3.6,7.6,5.6
			l5.4,17.8c1.1,3.8-3.8,5.4-4.9,1.7l-4.9-16.3h-1.4l8.4,28.7h-7.8v21.7c0,3.9-5.8,3.8-5.8,0V89.8H222.4z"/>
	</g>
	<g>
		<circle fill="#E21769" stroke="#FFFFFF" stroke-width="1.8193" stroke-miterlimit="10" cx="223.2" cy="46.8" r="6.2"/>
		<path stroke="#FFFFFF" stroke-width="1.8193" stroke-miterlimit="10" d="M223.2,46.8"/>
	</g>
</g>
<g>
	<path stroke="#FFFFFF" stroke-width="1.8193" stroke-miterlimit="10" d="M296.6,50.3"/>
	<g>
		<path fill="#E21769" stroke="#FFFFFF" stroke-width="1.8193" stroke-miterlimit="10" d="M295.7,89.8l0,21.6c0,3.9-5.8,3.9-5.8,0
			l0-21.6h-7.7l8.3-28.7h-1.3l-4.9,16.4c-1.2,3.6-6.1,2.1-4.9-1.7l5.4-17.8c0.6-2,3.1-5.6,7.6-5.6h4.1l0,0h4.4c4.4,0,7,3.6,7.6,5.6
			l5.4,17.8c1.1,3.8-3.8,5.4-4.9,1.7l-4.9-16.3h-1.4l8.4,28.7h-7.8v21.7c0,3.9-5.8,3.8-5.8,0V89.8H295.7z"/>
	</g>
	<g>
		<circle fill="#E21769" stroke="#FFFFFF" stroke-width="1.8193" stroke-miterlimit="10" cx="296.6" cy="46.8" r="6.2"/>
		<path stroke="#FFFFFF" stroke-width="1.8193" stroke-miterlimit="10" d="M296.6,46.8"/>
	</g>
</g>
<g>
	<path fill="#008DD0" stroke="#FFFFFF" stroke-width="1.8193" stroke-miterlimit="10" d="M151,69c-4.9,0-8.9,4.1-8.9,9.2v21.7
		c0,4.2,6.1,4.2,6.1,0V80h1.4v55c0,5.6,8.1,5.5,8.1,0v-32.2h1.4V135c0,5.5,8.2,5.6,8.2,0V80h1.4v19.8c0,4.3,6.1,4.3,6,0V78.3
		c0-4.7-3.6-9.3-9-9.3L151,69z"/>
</g>
<g>
	<circle fill="#008DD0" stroke="#FFFFFF" stroke-width="1.8193" stroke-miterlimit="10" cx="158.4" cy="62.7" r="7"/>
	<path fill="#5D5D5D" stroke="#FFFFFF" stroke-width="1.8193" stroke-miterlimit="10" d="M158.4,62.7"/>
</g>
<g>
	<path fill="#008DD0" stroke="#FFFFFF" stroke-width="1.8193" stroke-miterlimit="10" d="M227,69c-4.9,0-8.9,4.1-8.9,9.2v21.7
		c0,4.2,6.1,4.2,6.1,0V80h1.4v55c0,5.6,8.1,5.5,8.1,0v-32.2h1.4V135c0,5.5,8.2,5.6,8.2,0V80h1.4v19.8c0,4.3,6.1,4.3,6,0V78.3
		c0-4.7-3.6-9.3-9-9.3L227,69z"/>
</g>
<g>
	<circle fill="#008DD0" stroke="#FFFFFF" stroke-width="1.8193" stroke-miterlimit="10" cx="234.4" cy="62.7" r="7"/>
	<path fill="#5D5D5D" stroke="#FFFFFF" stroke-width="1.8193" stroke-miterlimit="10" d="M234.4,62.7"/>
</g>
<g>
	<path fill="#008DD0" stroke="#FFFFFF" stroke-width="1.8193" stroke-miterlimit="10" d="M249.9,69c-4.9,0-8.9,4.1-8.9,9.2v21.7
		c0,4.2,6.1,4.2,6.1,0V80h1.4v55c0,5.6,8.1,5.5,8.1,0v-32.2h1.4V135c0,5.5,8.2,5.6,8.2,0V80h1.4v19.8c0,4.3,6.1,4.3,6,0V78.3
		c0-4.7-3.6-9.3-9-9.3L249.9,69z"/>
</g>
<g>
	<circle fill="#008DD0" stroke="#FFFFFF" stroke-width="1.8193" stroke-miterlimit="10" cx="257.3" cy="62.7" r="7"/>
	<path fill="#5D5D5D" stroke="#FFFFFF" stroke-width="1.8193" stroke-miterlimit="10" d="M257.3,62.7"/>
</g>
<g>
	<path fill="#008DD0" stroke="#FFFFFF" stroke-width="1.8193" stroke-miterlimit="10" d="M277.2,69c-4.9,0-8.9,4.1-8.9,9.2v21.7
		c0,4.2,6.1,4.2,6.1,0V80h1.4v55c0,5.6,8.1,5.5,8.1,0v-32.2h1.4V135c0,5.5,8.2,5.6,8.2,0V80h1.4v19.8c0,4.3,6.1,4.3,6,0V78.3
		c0-4.7-3.6-9.3-9-9.3L277.2,69z"/>
</g>
<g>
	<circle fill="#008DD0" stroke="#FFFFFF" stroke-width="1.8193" stroke-miterlimit="10" cx="284.6" cy="62.7" r="7"/>
	<path fill="#5D5D5D" stroke="#FFFFFF" stroke-width="1.8193" stroke-miterlimit="10" d="M284.6,62.7"/>
</g>
<g>
	<path fill="#008DD0" stroke="#FFFFFF" stroke-width="1.8193" stroke-miterlimit="10" d="M118.2,69c-4.9,0-8.9,4.1-8.9,9.2v21.7
		c0,4.2,6.1,4.2,6.1,0V80h1.4v55c0,5.6,8.1,5.5,8.1,0v-32.2h1.4V135c0,5.5,8.2,5.6,8.2,0V80h1.4v19.8c0,4.3,6.1,4.3,6,0V78.3
		c0-4.7-3.6-9.3-9-9.3L118.2,69z"/>
</g>
<g>
	<circle fill="#008DD0" stroke="#FFFFFF" stroke-width="1.8193" stroke-miterlimit="10" cx="125.6" cy="62.7" r="7"/>
	<path fill="#5D5D5D" stroke="#FFFFFF" stroke-width="1.8193" stroke-miterlimit="10" d="M125.6,62.7"/>
</g>
<g>
	<path fill="#008DD0" stroke="#FFFFFF" stroke-width="1.8193" stroke-miterlimit="10" d="M44,69c-4.9,0-8.9,4.1-8.9,9.2v21.7
		c0,4.2,6.1,4.2,6.1,0V80h1.4v55c0,5.6,8.1,5.5,8.1,0v-32.2h1.4V135c0,5.5,8.2,5.6,8.2,0V80h1.4v19.8c0,4.3,6.1,4.3,6,0V78.3
		c0-4.7-3.6-9.3-9-9.3L44,69z"/>
</g>
<g>
	<circle fill="#008DD0" stroke="#FFFFFF" stroke-width="1.8193" stroke-miterlimit="10" cx="51.4" cy="62.7" r="7"/>
	<path fill="#5D5D5D" stroke="#FFFFFF" stroke-width="1.8193" stroke-miterlimit="10" d="M51.4,62.7"/>
</g>
<g>
	<path stroke="#FFFFFF" stroke-width="1.8193" stroke-miterlimit="10" d="M92.9,66.7"/>
	<g>
		<path fill="#E21769" stroke="#FFFFFF" stroke-width="1.8193" stroke-miterlimit="10" d="M91.9,111.5l0,24.5c0,4.4-6.6,4.4-6.6,0
			l0-24.5h-8.8L85.9,79h-1.5l-5.5,18.6c-1.3,4.1-6.9,2.4-5.6-2l6.1-20.2C80.1,73.1,83,69,88,69h4.6l0,0h5c5,0,7.9,4.1,8.7,6.4
			l6.1,20.2c1.2,4.3-4.3,6.1-5.6,1.9L101.4,79h-1.6l9.5,32.5h-8.8v24.6c0,4.4-6.6,4.4-6.6,0v-24.6H91.9z"/>
	</g>
	<g>
		<circle fill="#E21769" stroke="#FFFFFF" stroke-width="1.8193" stroke-miterlimit="10" cx="92.9" cy="62.7" r="7"/>
		<path stroke="#FFFFFF" stroke-width="1.8193" stroke-miterlimit="10" d="M92.9,62.7"/>
	</g>
</g>
<g>
	<path stroke="#FFFFFF" stroke-width="1.8193" stroke-miterlimit="10" d="M188.1,66.7"/>
	<g>
		<path fill="#E21769" stroke="#FFFFFF" stroke-width="1.8193" stroke-miterlimit="10" d="M187.1,111.5l0,24.5c0,4.4-6.6,4.4-6.6,0
			l0-24.5h-8.8l9.4-32.5h-1.5l-5.5,18.6c-1.3,4.1-6.9,2.4-5.6-2l6.1-20.2c0.7-2.3,3.6-6.4,8.6-6.4h4.6l0,0h5c5,0,7.9,4.1,8.7,6.4
			l6.1,20.2c1.2,4.3-4.3,6.1-5.6,1.9L196.6,79H195l9.5,32.5h-8.8v24.6c0,4.4-6.6,4.4-6.6,0v-24.6H187.1z"/>
	</g>
	<g>
		<circle fill="#E21769" stroke="#FFFFFF" stroke-width="1.8193" stroke-miterlimit="10" cx="188.1" cy="62.7" r="7"/>
		<path stroke="#FFFFFF" stroke-width="1.8193" stroke-miterlimit="10" d="M188.1,62.7"/>
	</g>
</g>
<g>
	<path stroke="#FFFFFF" stroke-width="1.8193" stroke-miterlimit="10" d="M207.9,66.7"/>
	<g>
		<path fill="#E21769" stroke="#FFFFFF" stroke-width="1.8193" stroke-miterlimit="10" d="M206.9,111.5l0,24.5c0,4.4-6.6,4.4-6.6,0
			l0-24.5h-8.8l9.4-32.5h-1.5l-5.5,18.6c-1.3,4.1-6.9,2.4-5.6-2l6.1-20.2c0.7-2.3,3.6-6.4,8.6-6.4h4.6l0,0h5c5,0,7.9,4.1,8.7,6.4
			l6.1,20.2c1.2,4.3-4.3,6.1-5.6,1.9L216.4,79h-1.6l9.5,32.5h-8.8v24.6c0,4.4-6.6,4.4-6.6,0v-24.6H206.9z"/>
	</g>
	<g>
		<circle fill="#E21769" stroke="#FFFFFF" stroke-width="1.8193" stroke-miterlimit="10" cx="207.9" cy="62.7" r="7"/>
		<path stroke="#FFFFFF" stroke-width="1.8193" stroke-miterlimit="10" d="M207.9,62.7"/>
	</g>
</g>
<g>
	<path fill="#008DD0" stroke="#FFFFFF" stroke-width="1.8193" stroke-miterlimit="10" d="M197.5,85.2c-5.7,0-10.3,4.7-10.3,10.6
		v25.1c0,4.9,7,4.9,7,0v-23h1.7v63.6c0,6.5,9.4,6.3,9.4,0v-37.2h1.6v37.2c0,6.3,9.4,6.5,9.4,0V97.9h1.6v23c0,4.9,7,4.9,7,0V95.9
		c0-5.4-4.2-10.7-10.4-10.7L197.5,85.2z"/>
</g>
<g>
	<circle fill="#008DD0" stroke="#FFFFFF" stroke-width="1.8193" stroke-miterlimit="10" cx="206" cy="77.9" r="8.1"/>
	<path fill="#5D5D5D" stroke="#FFFFFF" stroke-width="1.8193" stroke-miterlimit="10" d="M206,77.9"/>
</g>
<g>
	<path fill="#008DD0" stroke="#FFFFFF" stroke-width="1.8193" stroke-miterlimit="10" d="M278.4,85.2c-5.7,0-10.3,4.7-10.3,10.6
		v25.1c0,4.9,7,4.9,7,0v-23h1.7v63.6c0,6.5,9.4,6.3,9.4,0v-37.2h1.6v37.2c0,6.3,9.4,6.5,9.4,0V97.9h1.6v23c0,4.9,7,4.9,7,0V95.9
		c0-5.4-4.2-10.7-10.4-10.7L278.4,85.2z"/>
</g>
<g>
	<circle fill="#008DD0" stroke="#FFFFFF" stroke-width="1.8193" stroke-miterlimit="10" cx="287" cy="77.9" r="8.1"/>
	<path fill="#5D5D5D" stroke="#FFFFFF" stroke-width="1.8193" stroke-miterlimit="10" d="M287,77.9"/>
</g>
<g>
	<path fill="#008DD0" stroke="#FFFFFF" stroke-width="1.8193" stroke-miterlimit="10" d="M134.9,85.2c-5.7,0-10.3,4.7-10.3,10.6
		v25.1c0,4.9,7,4.9,7,0v-23h1.7v63.6c0,6.5,9.4,6.3,9.4,0v-37.2h1.6v37.2c0,6.3,9.4,6.5,9.4,0V97.9h1.6v23c0,4.9,7,4.9,7,0V95.9
		c0-5.4-4.2-10.7-10.4-10.7L134.9,85.2z"/>
</g>
<g>
	<circle fill="#008DD0" stroke="#FFFFFF" stroke-width="1.8193" stroke-miterlimit="10" cx="143.5" cy="77.9" r="8.1"/>
	<path fill="#5D5D5D" stroke="#FFFFFF" stroke-width="1.8193" stroke-miterlimit="10" d="M143.5,77.9"/>
</g>
<g>
	<path fill="#008DD0" stroke="#FFFFFF" stroke-width="1.8193" stroke-miterlimit="10" d="M96.9,85.2c-5.7,0-10.3,4.7-10.3,10.6v25.1
		c0,4.9,7,4.9,7,0v-23h1.7v63.6c0,6.5,9.4,6.3,9.4,0v-37.2h1.6v37.2c0,6.3,9.4,6.5,9.4,0V97.9h1.6v23c0,4.9,7,4.9,7,0V95.9
		c0-5.4-4.2-10.7-10.4-10.7L96.9,85.2z"/>
</g>
<g>
	<circle fill="#008DD0" stroke="#FFFFFF" stroke-width="1.8193" stroke-miterlimit="10" cx="105.5" cy="77.9" r="8.1"/>
	<path fill="#5D5D5D" stroke="#FFFFFF" stroke-width="1.8193" stroke-miterlimit="10" d="M105.5,77.9"/>
</g>
<g>
	<path stroke="#FFFFFF" stroke-width="1.8193" stroke-miterlimit="10" d="M175.3,82.5"/>
	<g>
		<path fill="#E21769" stroke="#FFFFFF" stroke-width="1.8193" stroke-miterlimit="10" d="M174.1,134.3l0,28.4c0,5.1-7.6,5.1-7.6,0
			l0-28.4h-10.1l10.8-37.6h-1.7l-6.4,21.5c-1.5,4.7-8,2.8-6.5-2.3l7.1-23.3c0.8-2.7,4.1-7.4,10-7.4h5.4l0,0h5.8
			c5.8,0,9.2,4.8,10,7.4l7.1,23.3c1.4,5-5,7.1-6.5,2.2L185,96.7h-1.8l11,37.6H184v28.4c0,5.1-7.6,5-7.6,0v-28.4H174.1z"/>
	</g>
	<g>
		<circle fill="#E21769" stroke="#FFFFFF" stroke-width="1.8193" stroke-miterlimit="10" cx="175.2" cy="77.9" r="8.1"/>
		<path stroke="#FFFFFF" stroke-width="1.8193" stroke-miterlimit="10" d="M175.2,77.9"/>
	</g>
</g>
<g>
	<path stroke="#FFFFFF" stroke-width="1.8193" stroke-miterlimit="10" d="M234.5,82.5"/>
	<g>
		<path fill="#E21769" stroke="#FFFFFF" stroke-width="1.8193" stroke-miterlimit="10" d="M233.3,134.3l0,28.4c0,5.1-7.6,5.1-7.6,0
			l0-28.4h-10.1l10.8-37.6h-1.7l-6.4,21.5c-1.5,4.7-8,2.8-6.5-2.3l7.1-23.3c0.8-2.7,4.1-7.4,10-7.4h5.4l0,0h5.8
			c5.8,0,9.2,4.8,10,7.4l7.1,23.3c1.4,5-5,7.1-6.5,2.2l-6.4-21.4h-1.8l11,37.6h-10.2v28.4c0,5.1-7.6,5-7.6,0v-28.4H233.3z"/>
	</g>
	<g>
		<circle fill="#E21769" stroke="#FFFFFF" stroke-width="1.8193" stroke-miterlimit="10" cx="234.4" cy="77.9" r="8.1"/>
		<path stroke="#FFFFFF" stroke-width="1.8193" stroke-miterlimit="10" d="M234.4,77.9"/>
	</g>
</g>
<g>
	<path stroke="#FFFFFF" stroke-width="1.8193" stroke-miterlimit="10" d="M258.8,82.5"/>
	<g>
		<path fill="#E21769" stroke="#FFFFFF" stroke-width="1.8193" stroke-miterlimit="10" d="M257.6,134.3l0,28.4c0,5.1-7.6,5.1-7.6,0
			l0-28.4h-10.1l10.8-37.6H249l-6.4,21.5c-1.5,4.7-8,2.8-6.5-2.3l7.1-23.3c0.8-2.7,4.1-7.4,10-7.4h5.4l0,0h5.8c5.8,0,9.2,4.8,10,7.4
			l7.1,23.3c1.4,5-5,7.1-6.5,2.2l-6.4-21.4h-1.8l11,37.6h-10.2v28.4c0,5.1-7.6,5-7.6,0v-28.4H257.6z"/>
	</g>
	<g>
		<circle fill="#E21769" stroke="#FFFFFF" stroke-width="1.8193" stroke-miterlimit="10" cx="258.7" cy="77.9" r="8.1"/>
		<path stroke="#FFFFFF" stroke-width="1.8193" stroke-miterlimit="10" d="M258.7,77.9"/>
	</g>
</g>
<g>
	<path stroke="#FFFFFF" stroke-width="1.8193" stroke-miterlimit="10" d="M67.8,82.5"/>
	<g>
		<path fill="#E21769" stroke="#FFFFFF" stroke-width="1.8193" stroke-miterlimit="10" d="M66.6,134.3l0,28.4c0,5.1-7.6,5.1-7.6,0
			l0-28.4H48.8l10.8-37.6H58l-6.4,21.5c-1.5,4.7-8,2.8-6.5-2.3l7.1-23.3c0.8-2.7,4.1-7.4,10-7.4h5.4l0,0h5.8c5.8,0,9.2,4.8,10,7.4
			l7.1,23.3c1.4,5-5,7.1-6.5,2.2l-6.4-21.4h-1.8l11,37.6H76.5v28.4c0,5.1-7.6,5-7.6,0v-28.4H66.6z"/>
	</g>
	<g>
		<circle fill="#E21769" stroke="#FFFFFF" stroke-width="1.8193" stroke-miterlimit="10" cx="67.7" cy="77.9" r="8.1"/>
		<path stroke="#FFFFFF" stroke-width="1.8193" stroke-miterlimit="10" d="M67.7,77.9"/>
	</g>
</g>
<g>
	<path fill="#008DD0" stroke="#FFFFFF" stroke-width="2" stroke-miterlimit="10" d="M159.9,78.1c-4.8,0-8.6,4-8.6,8.9v21
		c0,4.1,5.9,4.1,5.9,0V88.8h1.4v53.3c0,5.5,7.9,5.3,7.9,0v-31.2h1.4v31.2c0,5.3,7.9,5.5,7.9,0V88.8h1.4V108c0,4.1,5.9,4.1,5.9,0
		V87.1c0-4.6-3.5-9-8.7-9L159.9,78.1z"/>
</g>
<g>
	<circle fill="#008DD0" stroke="#FFFFFF" stroke-width="2" stroke-miterlimit="10" cx="167.1" cy="72" r="6.8"/>
	<path fill="#5D5D5D" stroke="#FFFFFF" stroke-width="2" stroke-miterlimit="10" d="M167.1,72"/>
</g>
<g>
	<path fill="#008DD0" stroke="#FFFFFF" stroke-width="2" stroke-miterlimit="10" d="M245.2,78.1c-4.8,0-8.6,4-8.6,8.9v21
		c0,4.1,5.9,4.1,5.9,0V88.8h1.4v53.3c0,5.5,7.9,5.3,7.9,0v-31.2h1.4v31.2c0,5.3,7.9,5.5,7.9,0V88.8h1.4V108c0,4.1,5.9,4.1,5.9,0
		V87.1c0-4.6-3.5-9-8.7-9L245.2,78.1z"/>
</g>
<g>
	<circle fill="#008DD0" stroke="#FFFFFF" stroke-width="2" stroke-miterlimit="10" cx="252.4" cy="72" r="6.8"/>
	<path fill="#5D5D5D" stroke="#FFFFFF" stroke-width="2" stroke-miterlimit="10" d="M252.4,72"/>
</g>
<g>
	<path fill="#008DD0" stroke="#FFFFFF" stroke-width="2" stroke-miterlimit="10" d="M272.5,78.1c-4.8,0-8.6,4-8.6,8.9v21
		c0,4.1,5.9,4.1,5.9,0V88.8h1.4v53.3c0,5.5,7.9,5.3,7.9,0v-31.2h1.4v31.2c0,5.3,7.9,5.5,7.9,0V88.8h1.4V108c0,4.1,5.9,4.1,5.9,0
		V87.1c0-4.6-3.5-9-8.7-9L272.5,78.1z"/>
</g>
<g>
	<circle fill="#008DD0" stroke="#FFFFFF" stroke-width="2" stroke-miterlimit="10" cx="279.7" cy="72" r="6.8"/>
	<path fill="#5D5D5D" stroke="#FFFFFF" stroke-width="2" stroke-miterlimit="10" d="M279.7,72"/>
</g>
<g>
	<path fill="#008DD0" stroke="#FFFFFF" stroke-width="2" stroke-miterlimit="10" d="M39.2,78.1c-4.8,0-8.6,4-8.6,8.9v21
		c0,4.1,5.9,4.1,5.9,0V88.8h1.4v53.3c0,5.5,7.9,5.3,7.9,0v-31.2h1.4v31.2c0,5.3,7.9,5.5,7.9,0V88.8h1.4V108c0,4.1,5.9,4.1,5.9,0
		V87.1c0-4.6-3.5-9-8.7-9L39.2,78.1z"/>
</g>
<g>
	<circle fill="#008DD0" stroke="#FFFFFF" stroke-width="2" stroke-miterlimit="10" cx="46.4" cy="72" r="6.8"/>
	<path fill="#5D5D5D" stroke="#FFFFFF" stroke-width="2" stroke-miterlimit="10" d="M46.4,72"/>
</g>
<g>
	<path stroke="#FFFFFF" stroke-width="2" stroke-miterlimit="10" d="M135.5,75.9"/>
	<g>
		<path fill="#E21769" stroke="#FFFFFF" stroke-width="2" stroke-miterlimit="10" d="M134.5,119.3l0,23.8c0,4.3-6.4,4.3-6.4,0
			l0-23.8h-8.5l9.1-31.5h-1.4l-5.4,18c-1.3,3.9-6.7,2.3-5.4-1.9l5.9-19.6c0.6-2.2,3.5-6.2,8.3-6.2h4.5l0,0h4.8c4.8,0,7.7,4,8.4,6.2
			l5.9,19.5c1.2,4.2-4.2,5.9-5.4,1.8l-5.4-17.9h-1.5l9.2,31.5h-8.5v23.8c0,4.2-6.4,4.2-6.4,0v-23.8H134.5z"/>
	</g>
	<g>
		<circle fill="#E21769" stroke="#FFFFFF" stroke-width="2" stroke-miterlimit="10" cx="135.5" cy="72" r="6.8"/>
		<path stroke="#FFFFFF" stroke-width="2" stroke-miterlimit="10" d="M135.5,72"/>
	</g>
</g>
<g>
	<path stroke="#FFFFFF" stroke-width="2" stroke-miterlimit="10" d="M106.4,75.9"/>
	<g>
		<path fill="#E21769" stroke="#FFFFFF" stroke-width="2" stroke-miterlimit="10" d="M105.4,119.3l0,23.8c0,4.3-6.4,4.3-6.4,0
			l0-23.8h-8.5l9.1-31.5h-1.4l-5.4,18c-1.3,3.9-6.7,2.3-5.4-1.9l5.9-19.6c0.6-2.2,3.5-6.2,8.3-6.2h4.5l0,0h4.8c4.8,0,7.7,4,8.4,6.2
			l5.9,19.5c1.2,4.2-4.2,5.9-5.4,1.8l-5.4-17.9H113l9.2,31.5h-8.5v23.8c0,4.2-6.4,4.2-6.4,0v-23.8H105.4z"/>
	</g>
	<g>
		<circle fill="#E21769" stroke="#FFFFFF" stroke-width="2" stroke-miterlimit="10" cx="106.3" cy="72" r="6.8"/>
		<path stroke="#FFFFFF" stroke-width="2" stroke-miterlimit="10" d="M106.3,72"/>
	</g>
</g>
<g>
	<path stroke="#FFFFFF" stroke-width="2" stroke-miterlimit="10" d="M74.1,75.9"/>
	<g>
		<path fill="#E21769" stroke="#FFFFFF" stroke-width="2" stroke-miterlimit="10" d="M73.1,119.3l0,23.8c0,4.3-6.4,4.3-6.4,0l0-23.8
			h-8.5l9.1-31.5h-1.4l-5.4,18c-1.3,3.9-6.7,2.3-5.4-1.9l5.9-19.6c0.6-2.2,3.5-6.2,8.3-6.2h4.5l0,0h4.8c4.8,0,7.7,4,8.4,6.2
			l5.9,19.5c1.2,4.2-4.2,5.9-5.4,1.8l-5.4-17.9h-1.5l9.2,31.5h-8.5v23.8c0,4.2-6.4,4.2-6.4,0v-23.8H73.1z"/>
	</g>
	<g>
		<circle fill="#E21769" stroke="#FFFFFF" stroke-width="2" stroke-miterlimit="10" cx="74.1" cy="72" r="6.8"/>
		<path stroke="#FFFFFF" stroke-width="2" stroke-miterlimit="10" d="M74.1,72"/>
	</g>
</g>
<g>
	<path fill="#008DD0" stroke="#FFFFFF" stroke-width="2" stroke-miterlimit="10" d="M189.4,78.1c-4.8,0-8.6,4-8.6,8.9v21
		c0,4.1,5.9,4.1,5.9,0V88.8h1.4v53.3c0,5.5,7.9,5.3,7.9,0v-31.2h1.4v31.2c0,5.3,7.9,5.5,7.9,0V88.8h1.4V108c0,4.1,5.9,4.1,5.9,0
		V87.1c0-4.6-3.5-9-8.7-9L189.4,78.1z"/>
</g>
<g>
	<circle fill="#008DD0" stroke="#FFFFFF" stroke-width="2" stroke-miterlimit="10" cx="196.6" cy="72" r="6.8"/>
	<path fill="#5D5D5D" stroke="#FFFFFF" stroke-width="2" stroke-miterlimit="10" d="M196.6,72"/>
</g>
<g>
	<path stroke="#FFFFFF" stroke-width="2" stroke-miterlimit="10" d="M224.3,75.9"/>
	<g>
		<path fill="#E21769" stroke="#FFFFFF" stroke-width="2" stroke-miterlimit="10" d="M223.3,119.3l0,23.8c0,4.3-6.4,4.3-6.4,0
			l0-23.8h-8.5l9.1-31.5h-1.4l-5.4,18c-1.3,3.9-6.7,2.3-5.4-1.9l5.9-19.6c0.6-2.2,3.5-6.2,8.3-6.2h4.5l0,0h4.8c4.8,0,7.7,4,8.4,6.2
			l5.9,19.5c1.2,4.2-4.2,5.9-5.4,1.8l-5.4-17.9h-1.5l9.2,31.5h-8.5v23.8c0,4.2-6.4,4.2-6.4,0v-23.8H223.3z"/>
	</g>
	<g>
		<circle fill="#E21769" stroke="#FFFFFF" stroke-width="2" stroke-miterlimit="10" cx="224.3" cy="72" r="6.8"/>
		<path stroke="#FFFFFF" stroke-width="2" stroke-miterlimit="10" d="M224.3,72"/>
	</g>
</g>
<g>
	<path stroke="#FFFFFF" stroke-width="2" stroke-miterlimit="10" d="M305,75.9"/>
	<g>
		<path fill="#E21769" stroke="#FFFFFF" stroke-width="2" stroke-miterlimit="10" d="M304,119.3l0,23.8c0,4.3-6.4,4.3-6.4,0l0-23.8
			H289l9.1-31.5h-1.4l-5.4,18c-1.3,3.9-6.7,2.3-5.4-1.9l5.9-19.6c0.6-2.2,3.5-6.2,8.3-6.2h4.5l0,0h4.8c4.8,0,7.7,4,8.4,6.2l5.9,19.5
			c1.2,4.2-4.2,5.9-5.4,1.8l-5.4-17.9h-1.5l9.2,31.5h-8.5v23.8c0,4.2-6.4,4.2-6.4,0v-23.8H304z"/>
	</g>
	<g>
		<circle fill="#E21769" stroke="#FFFFFF" stroke-width="2" stroke-miterlimit="10" cx="304.9" cy="72" r="6.8"/>
		<path stroke="#FFFFFF" stroke-width="2" stroke-miterlimit="10" d="M304.9,72"/>
	</g>
</g>
<g>
	<path fill="#008DD0" stroke="#FFFFFF" stroke-width="2" stroke-miterlimit="10" d="M144.9,96.4c-5.4,0-9.8,4.5-9.8,10.1v23.9
		c0,4.6,6.7,4.6,6.7,0v-21.8h1.6V169c0,6.2,8.9,6,8.9,0v-35.4h1.5V169c0,6,9,6.2,9,0v-60.5h1.5v21.8c0,4.7,6.7,4.7,6.6,0v-23.7
		c0-5.2-4-10.2-9.9-10.2L144.9,96.4z"/>
</g>
<g>
	<circle fill="#008DD0" stroke="#FFFFFF" stroke-width="2" stroke-miterlimit="10" cx="153" cy="89.5" r="7.7"/>
	<path fill="#5D5D5D" stroke="#FFFFFF" stroke-width="2" stroke-miterlimit="10" d="M153,89.5"/>
</g>
<g>
	<path fill="#008DD0" stroke="#FFFFFF" stroke-width="2" stroke-miterlimit="10" d="M228.4,96.4c-5.4,0-9.8,4.5-9.8,10.1v23.9
		c0,4.6,6.7,4.6,6.7,0v-21.8h1.6V169c0,6.2,8.9,6,8.9,0v-35.4h1.5V169c0,6,9,6.2,9,0v-60.5h1.5v21.8c0,4.7,6.7,4.7,6.6,0v-23.7
		c0-5.2-4-10.2-9.9-10.2L228.4,96.4z"/>
</g>
<g>
	<circle fill="#008DD0" stroke="#FFFFFF" stroke-width="2" stroke-miterlimit="10" cx="236.6" cy="89.5" r="7.7"/>
	<path fill="#5D5D5D" stroke="#FFFFFF" stroke-width="2" stroke-miterlimit="10" d="M236.6,89.5"/>
</g>
<g>
	<path fill="#008DD0" stroke="#FFFFFF" stroke-width="2" stroke-miterlimit="10" d="M253.6,96.4c-5.4,0-9.8,4.5-9.8,10.1v23.9
		c0,4.6,6.7,4.6,6.7,0v-21.8h1.6V169c0,6.2,8.9,6,8.9,0v-35.4h1.5V169c0,6,9,6.2,9,0v-60.5h1.5v21.8c0,4.7,6.7,4.7,6.6,0v-23.7
		c0-5.2-4-10.2-9.9-10.2L253.6,96.4z"/>
</g>
<g>
	<circle fill="#008DD0" stroke="#FFFFFF" stroke-width="2" stroke-miterlimit="10" cx="261.7" cy="89.5" r="7.7"/>
	<path fill="#5D5D5D" stroke="#FFFFFF" stroke-width="2" stroke-miterlimit="10" d="M261.7,89.5"/>
</g>
<g>
	<path fill="#008DD0" stroke="#FFFFFF" stroke-width="2" stroke-miterlimit="10" d="M283.5,96.4c-5.4,0-9.8,4.5-9.8,10.1v23.9
		c0,4.6,6.7,4.6,6.7,0v-21.8h1.6V169c0,6.2,8.9,6,8.9,0v-35.4h1.5V169c0,6,9,6.2,9,0v-60.5h1.5v21.8c0,4.7,6.7,4.7,6.6,0v-23.7
		c0-5.2-4-10.2-9.9-10.2L283.5,96.4z"/>
</g>
<g>
	<circle fill="#008DD0" stroke="#FFFFFF" stroke-width="2" stroke-miterlimit="10" cx="291.7" cy="89.5" r="7.7"/>
	<path fill="#5D5D5D" stroke="#FFFFFF" stroke-width="2" stroke-miterlimit="10" d="M291.7,89.5"/>
</g>
<g>
	<path fill="#008DD0" stroke="#FFFFFF" stroke-width="2" stroke-miterlimit="10" d="M108.7,96.4c-5.4,0-9.8,4.5-9.8,10.1v23.9
		c0,4.6,6.7,4.6,6.7,0v-21.8h1.6V169c0,6.2,8.9,6,8.9,0v-35.4h1.5V169c0,6,9,6.2,9,0v-60.5h1.5v21.8c0,4.7,6.7,4.7,6.6,0v-23.7
		c0-5.2-4-10.2-9.9-10.2L108.7,96.4z"/>
</g>
<g>
	<circle fill="#008DD0" stroke="#FFFFFF" stroke-width="2" stroke-miterlimit="10" cx="116.9" cy="89.5" r="7.7"/>
	<path fill="#5D5D5D" stroke="#FFFFFF" stroke-width="2" stroke-miterlimit="10" d="M116.9,89.5"/>
</g>
<g>
	<path fill="#008DD0" stroke="#FFFFFF" stroke-width="2" stroke-miterlimit="10" d="M27.2,96.4c-5.4,0-9.8,4.5-9.8,10.1v23.9
		c0,4.6,6.7,4.6,6.7,0v-21.8h1.6V169c0,6.2,8.9,6,8.9,0v-35.4h1.5V169c0,6,9,6.2,9,0v-60.5h1.5v21.8c0,4.7,6.7,4.7,6.6,0v-23.7
		c0-5.2-4-10.2-9.9-10.2L27.2,96.4z"/>
</g>
<g>
	<circle fill="#008DD0" stroke="#FFFFFF" stroke-width="2" stroke-miterlimit="10" cx="35.4" cy="89.5" r="7.7"/>
	<path fill="#5D5D5D" stroke="#FFFFFF" stroke-width="2" stroke-miterlimit="10" d="M35.4,89.5"/>
</g>
<g>
	<path stroke="#FFFFFF" stroke-width="2" stroke-miterlimit="10" d="M81,93.9"/>
	<g>
		<path fill="#E21769" stroke="#FFFFFF" stroke-width="2" stroke-miterlimit="10" d="M79.9,143.2l0,27c0,4.9-7.3,4.9-7.3,0l0-27H63
			l10.3-35.8h-1.6l-6.1,20.4c-1.4,4.5-7.6,2.6-6.2-2.1l6.7-22.2c0.7-2.5,3.9-7,9.5-7h5.1l0,0h5.5c5.5,0,8.7,4.5,9.5,7l6.7,22.2
			c1.3,4.8-4.7,6.7-6.2,2.1l-6.1-20.4h-1.8L99,143.2h-9.7v27c0,4.8-7.2,4.8-7.2,0v-27H79.9z"/>
	</g>
	<g>
		<circle fill="#E21769" stroke="#FFFFFF" stroke-width="2" stroke-miterlimit="10" cx="81" cy="89.5" r="7.7"/>
		<path stroke="#FFFFFF" stroke-width="2" stroke-miterlimit="10" d="M81,89.5"/>
	</g>
</g>
<g>
	<path stroke="#FFFFFF" stroke-width="2" stroke-miterlimit="10" d="M185.7,93.9"/>
	<g>
		<path fill="#E21769" stroke="#FFFFFF" stroke-width="2" stroke-miterlimit="10" d="M184.5,143.2l0,27c0,4.9-7.3,4.9-7.3,0l0-27
			h-9.6l10.3-35.8h-1.6l-6.1,20.4c-1.4,4.5-7.6,2.6-6.2-2.1l6.7-22.2c0.7-2.5,3.9-7,9.5-7h5.1l0,0h5.5c5.5,0,8.7,4.5,9.5,7l6.7,22.2
			c1.3,4.8-4.7,6.7-6.2,2.1l-6.1-20.4h-1.8l10.4,35.8h-9.7v27c0,4.8-7.2,4.8-7.2,0v-27H184.5z"/>
	</g>
	<g>
		<circle fill="#E21769" stroke="#FFFFFF" stroke-width="2" stroke-miterlimit="10" cx="185.6" cy="89.5" r="7.7"/>
		<path stroke="#FFFFFF" stroke-width="2" stroke-miterlimit="10" d="M185.6,89.5"/>
	</g>
</g>
<g>
	<path stroke="#FFFFFF" stroke-width="2" stroke-miterlimit="10" d="M207.4,93.9"/>
	<g>
		<path fill="#E21769" stroke="#FFFFFF" stroke-width="2" stroke-miterlimit="10" d="M206.3,143.2l0,27c0,4.9-7.3,4.9-7.3,0l0-27
			h-9.6l10.3-35.8h-1.6l-6.1,20.4c-1.4,4.5-7.6,2.6-6.2-2.1l6.7-22.2c0.7-2.5,3.9-7,9.5-7h5.1l0,0h5.5c5.5,0,8.7,4.5,9.5,7l6.7,22.2
			c1.3,4.8-4.7,6.7-6.2,2.1l-6.1-20.4h-1.8l10.4,35.8h-9.7v27c0,4.8-7.2,4.8-7.2,0v-27H206.3z"/>
	</g>
	<g>
		<circle fill="#E21769" stroke="#FFFFFF" stroke-width="2" stroke-miterlimit="10" cx="207.4" cy="89.5" r="7.7"/>
		<path stroke="#FFFFFF" stroke-width="2" stroke-miterlimit="10" d="M207.4,89.5"/>
	</g>
</g>
<g>
	<path fill="#008DD0" stroke="#FFFFFF" stroke-width="2" stroke-miterlimit="10" d="M196,114.2c-6.3,0-11.3,5.2-11.3,11.7v27.6
		c0,5.4,7.7,5.4,7.7,0v-25.2h1.8v69.9c0,7.2,10.3,7,10.3,0v-40.9h1.8v40.9c0,7,10.4,7.2,10.4,0v-69.9h1.8v25.2c0,5.4,7.7,5.4,7.7,0
		v-27.4c0-6-4.6-11.8-11.5-11.8L196,114.2z"/>
</g>
<g>
	<circle fill="#008DD0" stroke="#FFFFFF" stroke-width="2" stroke-miterlimit="10" cx="205.4" cy="106.2" r="8.9"/>
	<path fill="#5D5D5D" stroke="#FFFFFF" stroke-width="2" stroke-miterlimit="10" d="M205.4,106.2"/>
</g>
<g>
	<path fill="#008DD0" stroke="#FFFFFF" stroke-width="2" stroke-miterlimit="10" d="M284.9,114.2c-6.3,0-11.3,5.2-11.3,11.7v27.6
		c0,5.4,7.7,5.4,7.7,0v-25.2h1.8v69.9c0,7.2,10.3,7,10.3,0v-40.9h1.8v40.9c0,7,10.4,7.2,10.4,0v-69.9h1.8v25.2c0,5.4,7.7,5.4,7.7,0
		v-27.4c0-6-4.6-11.8-11.5-11.8L284.9,114.2z"/>
</g>
<g>
	<circle fill="#008DD0" stroke="#FFFFFF" stroke-width="2" stroke-miterlimit="10" cx="294.3" cy="106.2" r="8.9"/>
	<path fill="#5D5D5D" stroke="#FFFFFF" stroke-width="2" stroke-miterlimit="10" d="M294.3,106.2"/>
</g>
<g>
	<path fill="#008DD0" stroke="#FFFFFF" stroke-width="2" stroke-miterlimit="10" d="M127.2,114.2c-6.3,0-11.3,5.2-11.3,11.7v27.6
		c0,5.4,7.7,5.4,7.7,0v-25.2h1.8v69.9c0,7.2,10.3,7,10.3,0v-40.9h1.8v40.9c0,7,10.4,7.2,10.4,0v-69.9h1.8v25.2c0,5.4,7.7,5.4,7.7,0
		v-27.4c0-6-4.6-11.8-11.5-11.8L127.2,114.2z"/>
</g>
<g>
	<circle fill="#008DD0" stroke="#FFFFFF" stroke-width="2" stroke-miterlimit="10" cx="136.6" cy="106.2" r="8.9"/>
	<path fill="#5D5D5D" stroke="#FFFFFF" stroke-width="2" stroke-miterlimit="10" d="M136.6,106.2"/>
</g>
<g>
	<path fill="#008DD0" stroke="#FFFFFF" stroke-width="2" stroke-miterlimit="10" d="M85.4,114.2c-6.3,0-11.3,5.2-11.3,11.7v27.6
		c0,5.4,7.7,5.4,7.7,0v-25.2h1.8v69.9c0,7.2,10.3,7,10.3,0v-40.9h1.8v40.9c0,7,10.4,7.2,10.4,0v-69.9h1.8v25.2c0,5.4,7.7,5.4,7.7,0
		v-27.4c0-6-4.6-11.8-11.5-11.8L85.4,114.2z"/>
</g>
<g>
	<circle fill="#008DD0" stroke="#FFFFFF" stroke-width="2" stroke-miterlimit="10" cx="94.8" cy="106.2" r="8.9"/>
	<path fill="#5D5D5D" stroke="#FFFFFF" stroke-width="2" stroke-miterlimit="10" d="M94.8,106.2"/>
</g>
<g>
	<path stroke="#FFFFFF" stroke-width="2" stroke-miterlimit="10" d="M171.5,111.3"/>
	<g>
		<path fill="#E21769" stroke="#FFFFFF" stroke-width="2" stroke-miterlimit="10" d="M170.2,168.3l0,31.2c0,5.6-8.4,5.6-8.4,0
			l0-31.2h-11.1l11.9-41.4h-1.9l-7,23.6c-1.7,5.2-8.7,3-7.1-2.5l7.8-25.7c0.8-2.9,4.5-8.1,10.9-8.1h5.9l0,0h6.4
			c6.4,0,10.1,5.2,11,8.1l7.8,25.6c1.6,5.5-5.5,7.8-7.1,2.4l-7-23.5h-2l12.1,41.4h-11.2v31.2c0,5.6-8.4,5.5-8.4,0v-31.2H170.2z"/>
	</g>
	<g>
		<circle fill="#E21769" stroke="#FFFFFF" stroke-width="2" stroke-miterlimit="10" cx="171.5" cy="106.2" r="8.9"/>
		<path stroke="#FFFFFF" stroke-width="2" stroke-miterlimit="10" d="M171.5,106.2"/>
	</g>
</g>
<g>
	<path stroke="#FFFFFF" stroke-width="2" stroke-miterlimit="10" d="M236.6,111.3"/>
	<g>
		<path fill="#E21769" stroke="#FFFFFF" stroke-width="2" stroke-miterlimit="10" d="M235.3,168.3l0,31.2c0,5.6-8.4,5.6-8.4,0
			l0-31.2h-11.1l11.9-41.4h-1.9l-7,23.6c-1.7,5.2-8.7,3-7.1-2.5l7.8-25.7c0.8-2.9,4.5-8.1,10.9-8.1h5.9l0,0h6.4
			c6.4,0,10.1,5.2,11,8.1l7.8,25.6c1.6,5.5-5.5,7.8-7.1,2.4l-7-23.5h-2l12.1,41.4h-11.2v31.2c0,5.6-8.4,5.5-8.4,0v-31.2H235.3z"/>
	</g>
	<g>
		<circle fill="#E21769" stroke="#FFFFFF" stroke-width="2" stroke-miterlimit="10" cx="236.6" cy="106.2" r="8.9"/>
		<path stroke="#FFFFFF" stroke-width="2" stroke-miterlimit="10" d="M236.6,106.2"/>
	</g>
</g>
<g>
	<path stroke="#FFFFFF" stroke-width="2" stroke-miterlimit="10" d="M263.4,111.3"/>
	<g>
		<path fill="#E21769" stroke="#FFFFFF" stroke-width="2" stroke-miterlimit="10" d="M262,168.3l0,31.2c0,5.6-8.4,5.6-8.4,0l0-31.2
			h-11.1l11.9-41.4h-1.9l-7,23.6c-1.7,5.2-8.7,3-7.1-2.5l7.8-25.7c0.8-2.9,4.5-8.1,10.9-8.1h5.9l0,0h6.4c6.4,0,10.1,5.2,11,8.1
			l7.8,25.6c1.6,5.5-5.5,7.8-7.1,2.4l-7-23.5h-2l12.1,41.4h-11.2v31.2c0,5.6-8.4,5.5-8.4,0v-31.2H262z"/>
	</g>
	<g>
		<circle fill="#E21769" stroke="#FFFFFF" stroke-width="2" stroke-miterlimit="10" cx="263.3" cy="106.2" r="8.9"/>
		<path stroke="#FFFFFF" stroke-width="2" stroke-miterlimit="10" d="M263.3,106.2"/>
	</g>
</g>
<g>
	<path stroke="#FFFFFF" stroke-width="2" stroke-miterlimit="10" d="M53.4,111.3"/>
	<g>
		<path fill="#E21769" stroke="#FFFFFF" stroke-width="2" stroke-miterlimit="10" d="M52.1,168.3l0,31.2c0,5.6-8.4,5.6-8.4,0l0-31.2
			H32.5l11.9-41.4h-1.9l-7,23.6c-1.7,5.2-8.7,3-7.1-2.5l7.8-25.7c0.8-2.9,4.5-8.1,10.9-8.1h5.9l0,0h6.4c6.4,0,10.1,5.2,11,8.1
			l7.8,25.6c1.6,5.5-5.5,7.8-7.1,2.4l-7-23.5h-2l12.1,41.4H62.9v31.2c0,5.6-8.4,5.5-8.4,0v-31.2H52.1z"/>
	</g>
	<g>
		<circle fill="#E21769" stroke="#FFFFFF" stroke-width="2" stroke-miterlimit="10" cx="53.3" cy="106.2" r="8.9"/>
		<path stroke="#FFFFFF" stroke-width="2" stroke-miterlimit="10" d="M53.3,106.2"/>
	</g>
</g>
<g>
	<path fill="#008DD0" stroke="#FFFFFF" stroke-width="2" stroke-miterlimit="10" d="M102,141.6c-7.8,0-14.1,6.4-14.1,14.5v34.3
		c0,6.7,9.6,6.7,9.6,0V159h2.3v86.8c0,8.9,12.8,8.6,12.8,0V195h2.2v50.8c0,8.6,12.9,8.9,12.9,0V159h2.2v31.3c0,6.7,9.6,6.7,9.5,0
		v-34.1c0-7.4-5.7-14.7-14.2-14.7L102,141.6z"/>
</g>
<g>
	<circle fill="#008DD0" stroke="#FFFFFF" stroke-width="2" stroke-miterlimit="10" cx="113.7" cy="131.7" r="11.1"/>
	<path fill="#5D5D5D" stroke="#FFFFFF" stroke-width="2" stroke-miterlimit="10" d="M113.7,131.7"/>
</g>
<g>
	<path fill="#008DD0" stroke="#FFFFFF" stroke-width="2" stroke-miterlimit="10" d="M174,141.6c-7.8,0-14.1,6.4-14.1,14.5v34.3
		c0,6.7,9.6,6.7,9.6,0V159h2.3v86.8c0,8.9,12.8,8.6,12.8,0V195h2.2v50.8c0,8.6,12.9,8.9,12.9,0V159h2.2v31.3c0,6.7,9.6,6.7,9.5,0
		v-34.1c0-7.4-5.7-14.7-14.2-14.7L174,141.6z"/>
</g>
<g>
	<circle fill="#008DD0" stroke="#FFFFFF" stroke-width="2" stroke-miterlimit="10" cx="185.6" cy="131.7" r="11.1"/>
	<path fill="#5D5D5D" stroke="#FFFFFF" stroke-width="2" stroke-miterlimit="10" d="M185.6,131.7"/>
</g>
<g>
	<path fill="#008DD0" stroke="#FFFFFF" stroke-width="2" stroke-miterlimit="10" d="M225.5,141.6c-7.8,0-14.1,6.4-14.1,14.5v34.3
		c0,6.7,9.6,6.7,9.6,0V159h2.3v86.8c0,8.9,12.8,8.6,12.8,0V195h2.2v50.8c0,8.6,12.9,8.9,12.9,0V159h2.2v31.3c0,6.7,9.6,6.7,9.5,0
		v-34.1c0-7.4-5.7-14.7-14.2-14.7L225.5,141.6z"/>
</g>
<g>
	<circle fill="#008DD0" stroke="#FFFFFF" stroke-width="2" stroke-miterlimit="10" cx="237.2" cy="131.7" r="11.1"/>
	<path fill="#5D5D5D" stroke="#FFFFFF" stroke-width="2" stroke-miterlimit="10" d="M237.2,131.7"/>
</g>
<g>
	<path fill="#008DD0" stroke="#FFFFFF" stroke-width="2" stroke-miterlimit="10" d="M297.9,141.6c-7.8,0-14.1,6.4-14.1,14.5v34.3
		c0,6.7,9.6,6.7,9.6,0V159h2.3v86.8c0,8.9,12.8,8.6,12.8,0V195h2.2v50.8c0,8.6,12.9,8.9,12.9,0V159h2.2v31.3c0,6.7,9.6,6.7,9.5,0
		v-34.1c0-7.4-5.7-14.7-14.2-14.7L297.9,141.6z"/>
</g>
<g>
	<circle fill="#008DD0" stroke="#FFFFFF" stroke-width="2" stroke-miterlimit="10" cx="309.6" cy="131.7" r="11.1"/>
	<path fill="#5D5D5D" stroke="#FFFFFF" stroke-width="2" stroke-miterlimit="10" d="M309.6,131.7"/>
</g>
<g>
	<path stroke="#FFFFFF" stroke-width="2" stroke-miterlimit="10" d="M71.7,138"/>
	<g>
		<path fill="#E21769" stroke="#FFFFFF" stroke-width="2" stroke-miterlimit="10" d="M70.1,208.7l0,38.7c0,7-10.4,7-10.4,0l0-38.7
			H45.8l14.8-51.4h-2.3l-8.7,29.3c-2.1,6.4-10.9,3.8-8.9-3.1l9.7-31.9c1-3.6,5.6-10.1,13.6-10.1h7.3l0,0h7.9
			c7.9,0,12.5,6.5,13.7,10.1l9.7,31.8c1.9,6.8-6.8,9.7-8.9,3L85,157.3h-2.5l15,51.4H83.6v38.8c0,6.9-10.4,6.9-10.4,0v-38.8H70.1z"/>
	</g>
	<g>
		<circle fill="#E21769" stroke="#FFFFFF" stroke-width="2" stroke-miterlimit="10" cx="71.6" cy="131.7" r="11.1"/>
		<path stroke="#FFFFFF" stroke-width="2" stroke-miterlimit="10" d="M71.6,131.7"/>
	</g>
</g>
<g>
	<path stroke="#FFFFFF" stroke-width="2" stroke-miterlimit="10" d="M149.7,138"/>
	<g>
		<path fill="#E21769" stroke="#FFFFFF" stroke-width="2" stroke-miterlimit="10" d="M148,208.7l0,38.7c0,7-10.4,7-10.4,0l0-38.7
			h-13.8l14.8-51.4h-2.3l-8.7,29.3c-2.1,6.4-10.9,3.8-8.9-3.1l9.7-31.9c1-3.6,5.6-10.1,13.6-10.1h7.3l0,0h7.9
			c7.9,0,12.5,6.5,13.7,10.1l9.7,31.8c1.9,6.8-6.8,9.7-8.9,3l-8.7-29.2h-2.5l15,51.4h-13.9v38.8c0,6.9-10.4,6.9-10.4,0v-38.8H148z"
			/>
	</g>
	<g>
		<circle fill="#E21769" stroke="#FFFFFF" stroke-width="2" stroke-miterlimit="10" cx="149.6" cy="131.7" r="11.1"/>
		<path stroke="#FFFFFF" stroke-width="2" stroke-miterlimit="10" d="M149.6,131.7"/>
	</g>
</g>
<g>
	<path stroke="#FFFFFF" stroke-width="2" stroke-miterlimit="10" d="M273.8,138"/>
	<g>
		<path fill="#E21769" stroke="#FFFFFF" stroke-width="2" stroke-miterlimit="10" d="M272.1,208.7l0,38.7c0,7-10.4,7-10.4,0l0-38.7
			h-13.8l14.8-51.4h-2.3l-8.7,29.3c-2.1,6.4-10.9,3.8-8.9-3.1l9.7-31.9c1-3.6,5.6-10.1,13.6-10.1h7.3l0,0h7.9
			c7.9,0,12.5,6.5,13.7,10.1l9.7,31.8c1.9,6.8-6.8,9.7-8.9,3l-8.7-29.2h-2.5l15,51.4h-13.9v38.8c0,6.9-10.4,6.9-10.4,0v-38.8H272.1z
			"/>
	</g>
	<g>
		<circle fill="#E21769" stroke="#FFFFFF" stroke-width="2" stroke-miterlimit="10" cx="273.7" cy="131.7" r="11.1"/>
		<path stroke="#FFFFFF" stroke-width="2" stroke-miterlimit="10" d="M273.7,131.7"/>
	</g>
</g>
<g>
	<path fill="#008DD0" stroke="#FFFFFF" stroke-width="2" stroke-miterlimit="10" d="M122.9,168.1c-9.2,0-16.5,7.6-16.5,17v40.3
		c0,7.8,11.3,7.8,11.3,0v-36.8h2.7v102c0,10.5,15,10.2,15,0v-59.7h2.6v59.7c0,10.2,15.1,10.5,15.1,0v-102h2.6v36.8
		c0,7.9,11.2,7.9,11.2,0v-40c0-8.7-6.7-17.2-16.7-17.2L122.9,168.1z"/>
</g>
<g>
	<circle fill="#008DD0" stroke="#FFFFFF" stroke-width="2" stroke-miterlimit="10" cx="136.6" cy="156.5" r="13"/>
	<path fill="#5D5D5D" stroke="#FFFFFF" stroke-width="2" stroke-miterlimit="10" d="M136.6,156.5"/>
</g>
<g>
	<path fill="#008DD0" stroke="#FFFFFF" stroke-width="2" stroke-miterlimit="10" d="M241.7,168.1c-9.2,0-16.5,7.6-16.5,17v40.3
		c0,7.8,11.3,7.8,11.3,0v-36.8h2.7v102c0,10.5,15,10.2,15,0v-59.7h2.6v59.7c0,10.2,15.1,10.5,15.1,0v-102h2.6v36.8
		c0,7.9,11.2,7.9,11.2,0v-40c0-8.7-6.7-17.2-16.7-17.2L241.7,168.1z"/>
</g>
<g>
	<circle fill="#008DD0" stroke="#FFFFFF" stroke-width="2" stroke-miterlimit="10" cx="255.5" cy="156.5" r="13"/>
	<path fill="#5D5D5D" stroke="#FFFFFF" stroke-width="2" stroke-miterlimit="10" d="M255.5,156.5"/>
</g>
<g>
	<path stroke="#FFFFFF" stroke-width="2" stroke-miterlimit="10" d="M87.2,163.9"/>
	<g>
		<path fill="#E21769" stroke="#FFFFFF" stroke-width="2" stroke-miterlimit="10" d="M85.3,247l0,45.5c0,8.2-12.3,8.2-12.3,0l0-45.5
			H56.7l17.4-60.4h-2.7l-10.2,34.5c-2.4,7.5-12.8,4.4-10.4-3.6L62.1,180c1.2-4.3,6.6-11.8,16-11.8h8.6l0,0H96
			c9.3,0,14.7,7.6,16.1,11.8l11.4,37.4c2.3,8-8,11.4-10.4,3.5l-10.2-34.4h-3l17.6,60.4h-16.3v45.6c0,8.1-12.2,8.1-12.2,0V247H85.3z"
			/>
	</g>
	<g>
		<circle fill="#E21769" stroke="#FFFFFF" stroke-width="2" stroke-miterlimit="10" cx="87.1" cy="156.5" r="13"/>
		<path stroke="#FFFFFF" stroke-width="2" stroke-miterlimit="10" d="M87.1,156.5"/>
	</g>
</g>
<g>
	<path stroke="#FFFFFF" stroke-width="2" stroke-miterlimit="10" d="M180.1,163.9"/>
	<g>
		<path fill="#E21769" stroke="#FFFFFF" stroke-width="2" stroke-miterlimit="10" d="M178.2,247l0,45.5c0,8.2-12.3,8.2-12.3,0
			l0-45.5h-16.3l17.4-60.4h-2.7L154,221.1c-2.4,7.5-12.8,4.4-10.4-3.6L155,180c1.2-4.3,6.6-11.8,16-11.8h8.6l0,0h9.3
			c9.3,0,14.7,7.6,16.1,11.8l11.4,37.4c2.3,8-8,11.4-10.4,3.5l-10.2-34.4h-3l17.6,60.4H194v45.6c0,8.1-12.2,8.1-12.2,0V247H178.2z"
			/>
	</g>
	<g>
		<circle fill="#E21769" stroke="#FFFFFF" stroke-width="2" stroke-miterlimit="10" cx="180" cy="156.5" r="13"/>
		<path stroke="#FFFFFF" stroke-width="2" stroke-miterlimit="10" d="M180,156.5"/>
	</g>
</g>
<g>
	<path stroke="#FFFFFF" stroke-width="2" stroke-miterlimit="10" d="M294.4,163.9"/>
	<g>
		<path fill="#E21769" stroke="#FFFFFF" stroke-width="2" stroke-miterlimit="10" d="M292.5,247l0,45.5c0,8.2-12.3,8.2-12.3,0
			l0-45.5H264l17.4-60.4h-2.7l-10.2,34.5c-2.4,7.5-12.8,4.4-10.4-3.6l11.4-37.5c1.2-4.3,6.6-11.8,16-11.8h8.6l0,0h9.3
			c9.3,0,14.7,7.6,16.1,11.8l11.4,37.4c2.3,8-8,11.4-10.4,3.5l-10.2-34.4h-3l17.6,60.4h-16.3v45.6c0,8.1-12.2,8.1-12.2,0V247H292.5z
			"/>
	</g>
	<g>
		<circle fill="#E21769" stroke="#FFFFFF" stroke-width="2" stroke-miterlimit="10" cx="294.3" cy="156.5" r="13"/>
		<path stroke="#FFFFFF" stroke-width="2" stroke-miterlimit="10" d="M294.3,156.5"/>
	</g>
</g>
<g>
	<path stroke="#FFFFFF" stroke-width="2" stroke-miterlimit="10" d="M225.2,163.9"/>
	<g>
		<path fill="#E21769" stroke="#FFFFFF" stroke-width="2" stroke-miterlimit="10" d="M223.3,247l0,45.5c0,8.2-12.3,8.2-12.3,0
			l0-45.5h-16.3l17.4-60.4h-2.7l-10.2,34.5c-2.4,7.5-12.8,4.4-10.4-3.6l11.4-37.5c1.2-4.3,6.6-11.8,16-11.8h8.6l0,0h9.3
			c9.3,0,14.7,7.6,16.1,11.8l11.4,37.4c2.3,8-8,11.4-10.4,3.5l-10.2-34.4h-3l17.6,60.4h-16.3v45.6c0,8.1-12.2,8.1-12.2,0V247H223.3z
			"/>
	</g>
	<g>
		<circle fill="#E21769" stroke="#FFFFFF" stroke-width="2" stroke-miterlimit="10" cx="225.1" cy="156.5" r="13"/>
		<path stroke="#FFFFFF" stroke-width="2" stroke-miterlimit="10" d="M225.1,156.5"/>
	</g>
</g>
<g>
	<path fill="#008DD0" stroke="#FFFFFF" stroke-width="2" stroke-miterlimit="10" d="M96.5,194.2c-11.1,0-20,9.2-20,20.6v48.8
		c0,9.5,13.7,9.5,13.7,0V219h3.2v123.6c0,12.7,18.2,12.3,18.2,0v-72.4h3.1v72.4c0,12.3,18.3,12.7,18.3,0V219h3.2v44.6
		c0,9.6,13.6,9.6,13.6,0v-48.5c0-10.6-8.1-20.9-20.3-20.9L96.5,194.2z"/>
</g>
<g>
	<circle fill="#008DD0" stroke="#FFFFFF" stroke-width="2" stroke-miterlimit="10" cx="113.2" cy="180" r="15.8"/>
	<path fill="#5D5D5D" stroke="#FFFFFF" stroke-width="2" stroke-miterlimit="10" d="M113.2,180"/>
</g>
<g>
	<path fill="#008DD0" stroke="#FFFFFF" stroke-width="2" stroke-miterlimit="10" d="M281.9,194.2c-11.1,0-20,9.2-20,20.6v48.8
		c0,9.5,13.7,9.5,13.7,0V219h3.2v123.6c0,12.7,18.2,12.3,18.2,0v-72.4h3.1v72.4c0,12.3,18.3,12.7,18.3,0V219h3.2v44.6
		c0,9.6,13.6,9.6,13.6,0v-48.5c0-10.6-8.1-20.9-20.3-20.9L281.9,194.2z"/>
</g>
<g>
	<circle fill="#008DD0" stroke="#FFFFFF" stroke-width="2" stroke-miterlimit="10" cx="298.5" cy="180" r="15.8"/>
	<path fill="#5D5D5D" stroke="#FFFFFF" stroke-width="2" stroke-miterlimit="10" d="M298.5,180"/>
</g>
<g>
	<path fill="#008DD0" stroke="#FFFFFF" stroke-width="2" stroke-miterlimit="10" d="M213.9,194.2c-11.1,0-20,9.2-20,20.6v48.8
		c0,9.5,13.7,9.5,13.7,0V219h3.2v123.6c0,12.7,18.2,12.3,18.2,0v-72.4h3.1v72.4c0,12.3,18.3,12.7,18.3,0V219h3.2v44.6
		c0,9.6,13.6,9.6,13.6,0v-48.5c0-10.6-8.1-20.9-20.3-20.9L213.9,194.2z"/>
</g>
<g>
	<circle fill="#008DD0" stroke="#FFFFFF" stroke-width="2" stroke-miterlimit="10" cx="230.5" cy="180" r="15.8"/>
	<path fill="#5D5D5D" stroke="#FFFFFF" stroke-width="2" stroke-miterlimit="10" d="M230.5,180"/>
</g>
<g>
	<path stroke="#FFFFFF" stroke-width="2" stroke-miterlimit="10" d="M53.3,189"/>
	<g>
		<path fill="#E21769" stroke="#FFFFFF" stroke-width="2" stroke-miterlimit="10" d="M51,289.7l0,55.2c0,9.9-14.9,9.9-14.9,0l0-55.2
			H16.4l21.1-73.1h-3.3l-12.4,41.8c-3,9.1-15.5,5.4-12.6-4.4L23,208.6c1.5-5.2,8-14.4,19.4-14.4h10.4l0,0H64
			c11.2,0,17.8,9.3,19.5,14.4l13.8,45.4c2.8,9.8-9.7,13.8-12.6,4.3l-12.4-41.6h-3.6L90,289.7H70.2V345c0,9.9-14.8,9.8-14.8,0v-55.2
			H51z"/>
	</g>
	<g>
		<circle fill="#E21769" stroke="#FFFFFF" stroke-width="2" stroke-miterlimit="10" cx="53.2" cy="180" r="15.8"/>
		<path stroke="#FFFFFF" stroke-width="2" stroke-miterlimit="10" d="M53.2,180"/>
	</g>
</g>
<path stroke="#FFFFFF" stroke-width="2" stroke-miterlimit="10" d="M170,189"/>
<g>
	<path fill="#E21769" stroke="#FFFFFF" stroke-width="2" stroke-miterlimit="10" d="M167.7,289.7l0,55.2c0,9.9-14.9,9.9-14.9,0
		l0-55.2h-19.7l21.1-73.1h-3.3l-12.4,41.8c-3,9.1-15.5,5.4-12.6-4.4l13.8-45.4c1.5-5.2,8-14.4,19.4-14.4h10.4l0,0h11.2
		c11.2,0,17.8,9.3,19.5,14.4l13.8,45.4c2.8,9.8-9.7,13.8-12.6,4.3l-12.4-41.6h-3.6l21.3,73.1h-19.8V345c0,9.9-14.8,9.8-14.8,0v-55.2
		H167.7z"/>
</g>
<g>
	<circle fill="#E21769" stroke="#FFFFFF" stroke-width="2" stroke-miterlimit="10" cx="169.9" cy="180" r="15.8"/>
	<path stroke="#FFFFFF" stroke-width="2" stroke-miterlimit="10" d="M169.9,180"/>
</g>
</svg>
