<?xml version="1.0" encoding="utf-8"?>
<!-- Generator: Adobe Illustrator 18.1.1, SVG Export Plug-In . SVG Version: 6.00 Build 0)  -->
<svg version="1.1" id="Layer_3" xmlns="http://www.w3.org/2000/svg" xmlns:xlink="http://www.w3.org/1999/xlink" x="0px" y="0px"
	 viewBox="0 0 360 360" enable-background="new 0 0 360 360" xml:space="preserve">
<path fill-rule="evenodd" clip-rule="evenodd" fill="#236620" d="M267.5,9.5l-94.2,96.1L8.7,89.6l14.1,15l139,8.9l-11.5,7.9l-18,1.3
	c0,0-8.4,1.6-16.6,6.2c-8.2,4.6-16.2,12.2-16.2,12.2s-6.9-1.1-13,1c-5.6,1.9-10.5,6.8-10.5,6.8s-2.8,6.8,1.9,12.9
	c7,9,22.4,18.4,22.4,18.4l86.6,31.8c0,0,25.6-6.5,42.6-7.1c32-1.2,65.4,3.2,65.4,3.2l14.2,29l8.9-1.7l-10-27.3l16.8-3.2l-13.8-10
	l19.6-6.4l-4.4-4.7l-13.7,4l6-27.5l-7.6-7.5l-20.4,36.6l-45.3-16.7L214,141.8l-0.4-6l-8.8,2.7l-6.9-11.5l-18.1-13.7l157.2-3.5
	l12.2-10.9l-165.9,7.1L294,14.6L267.5,9.5z"/>
<g>
	<g>
		<path fill="#E70019" d="M228.3,351.3h113c6,0,10.9-4.9,10.9-10.9v-73.3c0-6-4.9-10.9-10.9-10.9h-16.2v21.6
			c6.4,1.9,11.1,7.8,11.1,14.8v11.8h-8.9v-11.8c0-3.7-3-6.6-6.6-6.6c-3.7,0-6.6,3-6.6,6.6v11.8h-8.9v-11.8c0-7,4.7-12.9,11.1-14.8
			v-21.1c-8.1,8-19.2,13-31.4,13c-11.8,0-22.5-4.6-30.5-12.1v23.6c5.8,1.9,10,7.3,10,13.7c0,7.9-6.5,14.4-14.4,14.4
			c-7.9,0-14.4-6.5-14.4-14.4c0-6.4,4.2-11.8,10-13.7v-25h-17.1c-6,0-10.9,4.9-10.9,10.9v73.3C217.4,346.4,222.3,351.3,228.3,351.3z
			"/>
		<path fill="#E70019" d="M257.7,253.6c1,0.9,2,1.8,3.1,2.7c6.6,5.1,15,8.2,24,8.2s17.4-3.1,24-8.2c1.1-0.8,2.1-1.7,3.1-2.7
			c0.9-0.8,1.7-1.7,2.5-2.7c6-6.9,9.7-16,9.7-25.9c0-21.7-17.6-39.4-39.4-39.4c-21.7,0-39.4,17.6-39.4,39.4c0,9.9,3.7,18.9,9.7,25.9
			C255.9,251.8,256.8,252.7,257.7,253.6z"/>
		<path fill="#E70019" d="M244.3,294.9c0,3,2.5,5.5,5.5,5.5s5.5-2.5,5.5-5.5c0-1.7-0.8-3.2-2-4.2c-1-0.8-2.2-1.3-3.5-1.3
			s-2.6,0.5-3.5,1.3C245.1,291.7,244.3,293.2,244.3,294.9z"/>
	</g>
</g>
<g>
	<path fill="#FF0104" d="M174,285.9c0,13-14.5,31.1-36.5,37.9c-0.6,0.3-3.6,0.9-6.5,1.2c-11.1,18.3-32.9,26.3-41.9,26.3
		c-8.9,0-30.3-7.8-41.5-25.7c-1.9-0.3-4.1-0.8-6.8-1.9c-22.1-6.9-36.5-25-36.5-37.9c0-22.6,26.2-30.3,26.2-30.3
		c0-29.3,19.4-53.8,45.4-60.1v-2.5c0-3.7,3-6.6,6.6-6.6h13.3c3.7,0,6.6,3,6.6,6.6v2.5c26,6.3,45.4,30.8,45.4,60.1
		C147.7,255.5,174,264.4,174,285.9z M75.8,226.1c0,5,7.4,9.9,11.2,12.1c0.7,0,1.4,0.1,2.1,0.1c0.7,0,1.4-0.1,2.1-0.1
		c3.7-2.2,11.2-7.2,11.2-12.1c0-6.6,0-13.3,0-13.3H75.8C75.8,212.8,75.8,219.4,75.8,226.1z M125,308.3c0.6-2.8,6-31.1,5.9-34.3
		c-0.2-2.7-0.5-5.2-0.9-7.6c-10.6-5.2-25-8.3-40.9-8.3c-16,0-30.4,3.2-41,8.4c-0.4,2.4-0.7,5-0.9,7.6c-0.2,3.2,5.3,31.7,5.9,34.2
		c4.6,21.8,28.9,31.1,36,31.1C96.2,339.3,120.4,330,125,308.3z"/>
</g>
<g>
	<path fill="#FFFFFF" d="M138.2,266.7c0.5,6.3,0.7,9.5-0.4,11c-1.8,2.4-4.2,1.1-7.5,4.1c-0.4,0.3-3,2.7-3.9,6.5
		c-1,4.3,0.8,8,2.4,11.4c2.6,5.3,6.3,8.7,8.7,10.8c3.6,3.2,3.9,2.4,6.1,4.7c4.6,4.7,3.4,8.1,7.1,13.8c3.5,5.3,8.2,8,10.8,9.5
		c6.1,3.5,11.7,4.3,14.6,4.7c2.7,0.3,6.1,0.7,10.4,0c4.2-0.7,7.2-2.3,13-5.5c6.8-3.7,10.2-5.5,12-7.5c2.6-2.9,4.4-6.8,7.9-14.6
		c1.7-3.8,2.4-5.7,4.7-7.3c2.9-2.1,4.9-1,7.3-3.3c2.1-1.9,2.6-4.5,3.3-8.1c0.3-1.8,0.9-5,0-8.9c-0.4-2-1.5-6.7-4.3-7.3
		c-1.9-0.4-2.9,1.4-4.1,0.8c-2.1-1,0.4-6.7-2.2-12.4c-1.1-2.5-2.7-3.9-4.1-5.1c-5.1-4.6-11.3-5.3-16.3-5.9
		c-18.1-2.3-13.8-3.4-26.4-4.5c-9.1-0.7-16.1,0.1-30.3,1.6c-2.5,0.3-7.3,0.9-8.9,4.1C137.4,260.5,137.8,261.5,138.2,266.7z"/>
	<g>
		<path fill="#1726FF" d="M232.6,271.4V270c0-1.4-0.6-2.6-1.4-3.6c-0.3-1.7-0.5-3.4-0.9-5c-0.1-0.4-0.3-0.6-0.5-1
			c1-1.2,1.7-2.2,1.7-2.9c0,0-16.1-7.7-50.9-7.7s-50.9,7.7-50.9,7.7c0,0.7,0.6,1.7,1.6,2.8c-0.1,0.2-0.2,0.3-0.3,0.5
			c-0.4,1.7-0.7,3.6-1,5.4c-0.9,1-1.4,2.3-1.4,3.7v1.4c-6.7,3-11.3,10.9-11.3,20.8c0,10.8,10.3,20,18.3,23
			c7.5,24.9,34.8,35.5,45,35.5c10.2,0,37.4-10.6,44.9-35.3c8.9-2.8,18.4-12.9,18.4-23.2C243.9,282.6,239.2,274.5,232.6,271.4z
			 M220.9,304.6c-2.7,0-5.1,1.9-5.6,4.6c-4.4,20.9-27.8,30-34.7,30s-30.2-9-34.7-30c-0.5-2.5-3.1-4.3-5.6-4.6
			c-2.6-0.2-11.6-6.5-11.6-12.4c0-2.7,0.6-5,1.4-6.7c1.1,1.2,2.5,1.9,4.2,1.9c3.2,0,5.8-2.6,5.8-5.8v-4.9c0-0.2,0.1-0.3,0.1-0.5
			c0.2-2.7,0.5-5.3,1-7.8c9.5,5.9,23.9,11.9,39.4,11.9c15.5,0,29.9-6,39.4-11.9c0.4,2.5,0.8,5.1,0.9,7.8c0,0.2,0.1,0.3,0.1,0.5v4.9
			c0,3.2,2.6,5.8,5.8,5.8c1.6,0,3.1-0.7,4.1-1.8c0.9,1.8,1.5,4,1.5,6.6C232.4,298,224.2,304.6,220.9,304.6z"/>
		<path fill="#1726FF" d="M180.9,241.8c35.7,0,50.9,6.3,50.9,6.3c0-11.4,25.2-30.5,17.3-30.5c-43.8,0-52.9-31.3-68.5-31.3
			c-15.6,0-19.2,31.3-68.2,31.3c-7.9,0,10.6,18.9,10.6,30.5C123,248.1,145.3,241.8,180.9,241.8z M167.8,210.7h25.6c0,0,0,6.4,0,12.8
			c0,6.4-12.8,12.8-12.8,12.8s-12.8-6.4-12.8-12.8C167.8,217.1,167.8,210.7,167.8,210.7z"/>
	</g>
</g>
</svg>
