<?xml version="1.0" encoding="utf-8"?>
<!-- Generator: Adobe Illustrator 18.1.1, SVG Export Plug-In . SVG Version: 6.00 Build 0)  -->
<svg version="1.1" id="Layer_3" xmlns="http://www.w3.org/2000/svg" xmlns:xlink="http://www.w3.org/1999/xlink" x="0px" y="0px"
	 viewBox="0 0 360 360" enable-background="new 0 0 360 360" xml:space="preserve">
<g>
	<g>
		<path fill="#FF9600" d="M295,40.4c3.8,3.7,8.4,5.7,13.7,6c5.3-0.3,9.9-2.3,13.7-6s5.6-8.2,5.2-13.5c0.3-5.3-1.4-9.9-5.2-13.7
			c-3.8-3.8-8.4-5.7-13.7-5.7s-9.9,1.9-13.7,5.7s-5.7,8.4-5.7,13.7S291.2,36.7,295,40.4z"/>
		<path fill="#FF9600" d="M232.8,143.1c1.3,3.2,4,5.1,8,5.7c4,0.7,7.3-0.8,10-4.5l51-60.5c1-1,2.1-1.1,3.2-0.2
			c1.2,0.8,1.2,1.7,0.2,2.7l-15,21v46l35.5,92c1.7,5.7,5,8.7,10,9.2c5,0.5,9.3-1.2,13-5c3.7-3.8,4.7-8.6,3-14.2l-31-82V91.9l13,26.5
			l-5,32.5c-2,3-0.8,6.2,3.5,9.5c6,4.7,11,3.7,15-3l7-46l-30-54.5c-3.7-3-8.9-4.3-15.7-4c-6.8,0.3-11.1,1.8-12.7,4.5l-62,75
			C231.8,136.4,231.5,139.9,232.8,143.1z"/>
		<path fill="#FF9600" d="M259.1,250.1c3.2,3.8,7.3,5.5,12.5,5c5.2-0.5,8.9-3.4,11.2-8.7l17.5-52l-12.5-33.5l-30,75.5
			C255.5,241.7,255.9,246.3,259.1,250.1z"/>
		<path fill="#FF9600" d="M234.3,154.4c1-1.7,0.8-3.2-0.5-4.5c-1.7-1.3-3.3-1.2-5,0.5l-57,99.5c-1,1.7-0.8,3.2,0.5,4.5
			c1.7,1.3,3.2,1.2,4.5-0.5l0.5-0.5L234.3,154.4z"/>
	</g>
</g>
<g>
	<g>
		<path fill="#7C81B8" d="M29,8.3l16.9-7.9C39.1,0.5,33.1,3.6,29,8.3z"/>
		<path fill="#7C81B8" d="M57.5,3.3l-18.4,8.7L61.4,6C60.2,5,58.9,4.1,57.5,3.3z"/>
		<path fill="#7C81B8" d="M35.2,254.3c5.8,0,10.5-4.7,10.5-10.5v-3.5l-21,3.6C24.7,249.6,29.4,254.3,35.2,254.3z"/>
		<polygon fill="#7C81B8" points="45.7,208.7 24.6,217.5 24.6,220.1 45.7,217.2 		"/>
		<polygon fill="#7C81B8" points="24.6,239.7 45.7,236.1 45.7,233.4 24.6,230.8 		"/>
		<polygon fill="#7C81B8" points="24.6,224.3 24.6,226.6 45.7,229.3 45.7,221.3 		"/>
		<circle fill="#FE230A" cx="105.2" cy="22.8" r="22.8"/>
		<path fill="#FE230A" d="M108.9,108.2c-3.6,1.2-7.9,0-7.9,0c-0.6-0.1-1.3-0.2-1.9-0.4c-6.4-2-12.1-4.4-17.2-7.3
			c-1.9,8.4-8.4,36.5-11.4,52.5v13.4c2.4,2.2,7.3,4.1,13.6,5.4l0,71.6c0,5.8,4.7,10.5,10.5,10.5c5.8,0,10.5-4.7,10.5-10.5l0-68.7
			c0.5,0,1,0,1.5,0l0,68.7c0,5.8,4.7,10.5,10.5,10.5c5.8,0,10.5-4.7,10.5-10.5l0-72.3c6.2-1.9,11-4.8,12.7-9.1c0-9.4-5-34-8.6-49.8
			C131.5,112.1,112.9,109.2,108.9,108.2z"/>
		<path fill="#FE230A" d="M110.8,46.9C110.8,46.9,110.8,46.9,110.8,46.9l-5.6,5.8l-5.7-5.7c-3.1,0.8-13.9,5.7-22.6,15.3
			c0.4,0.6,0.9,1.1,1.3,1.7c5.8,7.5,10.8,14,24.4,19l2.5,1c2.1-1.4,4.6-2.2,7.3-2.2c1.2,0,2.3,0.2,3.5,0.5c1.6,0.4,9.7,2.1,12.7,2.7
			v-3.6c2.8,3.1,5.5,7,6.6,9.2l-20.5-3.9c-0.8-0.2-1.5-0.3-2.3-0.3c-0.6,0-1.2,0.1-1.7,0.2c1.8,1.5,3.1,3.4,3.8,5.6l0.1,0.3l0.4,1.8
			c0.3,1.8,0.1,3.6-0.4,5.3c-0.5,1.7-1.4,3.3-2.6,4.6c4.4,1.1,12.3,2.8,19.4,3.3v0c0,0,0,0,0,0c0.1,0,0.1,0,0.2,0l0,0
			c0.1,0,0.3,0,0.4,0c7.7,0,17.2-1.8,20.4-10.8C158.5,79,128,52.4,110.8,46.9z"/>
		<path fill="#7C81B8" d="M17.8,21.8c-0.2,0.5-0.4,1-0.6,1.4c-0.9,2.3-1.3,3-4.4,3.6l1.2,6.7c6.8-1.2,8.3-5,9.5-7.7
			c0-0.1,0-0.1,0.1-0.1c1.2,11.6,10.9,20.6,22.8,20.6C59,46.2,69.3,36,69.3,23.3c0-3.9-1-7.6-2.7-10.8L26.2,23.1l-0.5-5l13.3-6.2
			l-13.5,3.6h0l-0.8,0.2c0,0,0,0,0,0.1c-0.9,0.3-2.3,0.6-3,0.3c-2.1-0.8-4.5-3.4-5.3-5.8l-6.5,2C11.1,16.2,14.3,20,17.8,21.8z"/>
		<path fill="#7C81B8" d="M52.1,47.6l-5.7,5.8l-5.5-5.8c0,0,0,0-0.1,0c-2.9,0.7-9.3,4-9.8,4.3c0,0-0.1,0.1-0.1,0.1L43,82.8l12-34.3
			C54,48.1,53,47.8,52.1,47.6z"/>
		<path fill="#7C81B8" d="M49.5,96.8c0-4-2.9-7.3-6.7-8l0,0L28.9,53.2c-0.2,0.1-0.4,0.2-0.6,0.4l-5.5,35.2c-1.6,0-2,0-2,0l5-33.4
			c-3,2.1-5.9,4.5-8.5,7.2C9.8,71,4.5,77.8,0.7,90.1c-1,3.1-1.1,7.5,0.9,10.1c2.2,2.7,4.2,4,20.2,4.8c0,0,19.6-0.1,19.6-0.1
			C45.9,104.9,49.5,101.3,49.5,96.8z"/>
		<path fill="#7C81B8" d="M108.8,89l-6.8-2.9C87.6,80.8,82,73.6,76.1,66c-4.1-5.3-9.9-12.5-18.9-16.5l-6.6,42c0,0,1.2,2.7,1.1,5.3
			c-0.1,5.6-4.6,10.2-10.2,10.2H22.9c0,0,0,5.2,0,11.1c0,5.9,1.7,8.7,1.7,8.7l0,86.6l21-8.8l0-66.2c0.4,0,0.8,0,1.3,0
			c0.1,0,0.2,0,0.2,0v105.4c0,5.8,4.7,10.5,10.5,10.5s10.5-4.7,10.5-10.5v-117c0,0,1.6-3.8,1.6-8.6c0-4.5,0-31.9,0-31.9
			c6.4,6.7,15.4,13.5,30.9,18.2c5.4,1.3,8.1-1.6,8.1-1.6c1.4-1.1,2.4-2.6,3-4.3C113.3,92.9,110.8,90.1,108.8,89z"/>
		<path fill="#7C81B8" d="M53.1,60.8L44,86.9c1.8,0.5,3.3,1.3,4.6,2.6L53.1,60.8z"/>
	</g>
</g>
<g>
	<path fill="#10167F" d="M203.9,72.9c0,18.1-14.7,32.8-32.8,32.8S138.3,91,138.3,72.9s14.7-32.8,32.8-32.8S203.9,54.8,203.9,72.9z
		 M171.9,339c-43.5,0-78.8-35.4-78.8-78.8c0-29.3,16.3-54.6,40-68.2v-23.8c-35.8,15.2-61,50.7-61,92c0,55.1,44.8,99.9,99.9,99.9
		c36.5,0,68.3-20,85.6-49.4l-10.8-27C236.7,315.6,207.2,339,171.9,339z M318.4,291h-23.7c0,0-14.4-40.9-18.4-51.8
		c-2.6-7.2-9.3-12.4-17.4-12.4h-57.6v-40.2h54.6c7.2,0,13.1-5.8,13.1-13.1s-5.9-13.2-13.1-13.2h-54.6c0,0-3.1-47.7-30.2-47.7
		c-18.6,0-24.9,15.1-24.9,33.6v84.2c0,18.6,15.1,33.7,33.6,33.7c0.6,0,1-0.3,1.6-0.3c0.5,0,1,0.3,1.6,0.3h70.2l23.3,58.4h41.9
		c8.7,0,15.7-7.1,15.7-15.7C334.1,298,327,291,318.4,291z"/>
</g>
</svg>
