<?xml version="1.0" encoding="utf-8"?>
<!-- Generator: Adobe Illustrator 18.1.1, SVG Export Plug-In . SVG Version: 6.00 Build 0)  -->
<svg version="1.1" id="Layer_3" xmlns="http://www.w3.org/2000/svg" xmlns:xlink="http://www.w3.org/1999/xlink" x="0px" y="0px"
	 viewBox="0 0 360 360" enable-background="new 0 0 360 360" xml:space="preserve">
<g>
	<g id="c18_bow">
		<path fill="#6607A5" d="M257.9,81.2c-8.7-29.6-18.7-56.7-18.7-56.7s3.3,12.9-14.6,42.5c-24.9,41.1-23.4,37.4-164.1,236.8
			l36.2,50.4l155.8-231C252.5,123.3,266.7,110.7,257.9,81.2z"/>
		<polygon fill="#6607A5" points="231.8,184 197,235.1 260.2,358.3 295.7,306.3 		"/>
		<path fill="#6607A5" d="M141,25.8l1.5-4.7C141.7,22.5,141.2,24.1,141,25.8z"/>
		<path fill="#6607A5" d="M144.7,164.3l30.9-52.5L150,54.9c0,0-10.4-17.6-9-29.1l-18.9,59.3c0,0-6.2,15.6,3,32.7
			C134.2,134.9,144.7,164.3,144.7,164.3z"/>
		<path fill="#6607A5" d="M226.2,52c0,0,16.1-22.7,8.1-38.6c0,0-35.3-28.1-83.9-4c0,0-15.4,9.1,4.2,42.5C154.6,52,202,39.4,226.2,52
			z"/>
	</g>
</g>
</svg>
