<?xml version="1.0" encoding="utf-8"?>
<!-- Generator: Adobe Illustrator 18.1.1, SVG Export Plug-In . SVG Version: 6.00 Build 0)  -->
<svg version="1.1" id="Layer_3" xmlns="http://www.w3.org/2000/svg" xmlns:xlink="http://www.w3.org/1999/xlink" x="0px" y="0px"
	 viewBox="0 0 360 360" enable-background="new 0 0 360 360" xml:space="preserve">
<circle fill="#F8FF2E" cx="169.1" cy="182" r="36.9"/>
<g>
	<g>
		<path fill="#004173" d="M360,64.5v-60c-17,7.4-71.4,25.1-86.3,26C258.8,31.3,189,20.3,170,25.1C154.8,28.9,61.4,98.6,36.5,116
			c-39.8,27.7-4.6,32.2,12.1,25.7c16.8-6.5,80.8-43.6,80.8-43.6c-0.2,6.1,0.8,14.8,6.2,24.2c0,0,6.2,8.7,13.6,17.2
			c-16.1,7.3-27.2,23.5-27.2,42.3c0,15.9,8.1,30,20.3,38.4H12.2c-4.4,0-8,3.6-8,8l20,123.6c0,4.4,3.6,8.1,8,8.1H328
			c4.4,0,8-3.6,8-8.1l20-123.6c0-4.4-3.6-8-8-8H194.6c12.3-8.4,20.3-22.5,20.3-38.4c0-11.6-4.3-22.3-11.4-30.5
			c-0.1-0.1-0.2-0.1-0.2-0.2c11.6-5.8,23.8-16.1,53.3-28.2C306.3,102.6,345.7,72.5,360,64.5z M200.5,118.6
			c-9.3,6.6-15.7,13-19.4,18.6c-2.1-0.6-4.2-1-6.4-1.3c-1.9-6.2-5.2-14.4-10.3-25.2c0,0-5.2-10.1-4.4-16.6c1.9-7.3,9-18.6,27.5-21
			c31.2-4,44.5,20,23.9,36.4C208.4,112.5,204.7,115.6,200.5,118.6z M168.5,216.1c-18.9,0-34.2-15.3-34.2-34.2
			c0-18.9,15.3-34.2,34.2-34.2c2.8,0,5.5,0.3,8.1,1c0,5.4,4.2,8.5,11.2,7.8c1.1-0.1,2.1-0.3,3.1-0.4c7.2,6.3,11.8,15.5,11.8,25.9
			C202.7,200.7,187.4,216.1,168.5,216.1z"/>
	</g>
</g>
<rect x="151.1" y="159.3" fill="none" width="36" height="56"/>
<text transform="matrix(1 0 0 1 151.1261 202.4124)" font-family="'HelveticaLTStd-BoldObl'" font-size="60">$</text>
</svg>
