<?xml version="1.0" encoding="utf-8"?>
<!-- Generator: Adobe Illustrator 18.1.1, SVG Export Plug-In . SVG Version: 6.00 Build 0)  -->
<svg version="1.1" id="Layer_3" xmlns="http://www.w3.org/2000/svg" xmlns:xlink="http://www.w3.org/1999/xlink" x="0px" y="0px"
	 viewBox="0 0 360 360" enable-background="new 0 0 360 360" xml:space="preserve">
<circle fill="#FF9600" cx="290.5" cy="69.1" r="13.4"/>
<g>
	<g>
		<path fill="#10167F" d="M360,26.3V4.5c-6.2,2.7-26,9.2-31.4,9.5c-5.4,0.3-30.9-3.7-37.8-2c-5.5,1.4-39.6,26.8-48.7,33.1
			c-14.5,10.1-1.7,11.7,4.4,9.4c6.1-2.4,29.4-15.9,29.4-15.9c-0.1,2.2,0.3,5.4,2.3,8.8c0,0,2.3,3.2,5,6.3c-5.8,2.7-9.9,8.6-9.9,15.4
			c0,5.8,2.9,10.9,7.4,14h-47.4c-1.6,0-2.9,1.3-2.9,2.9l7.3,45c0,1.6,1.3,2.9,2.9,2.9h107.7c1.6,0,2.9-1.3,2.9-2.9l7.3-45
			c0-1.6-1.3-2.9-2.9-2.9h-55.9c4.5-3,7.4-8.2,7.4-14c0-4.2-1.6-8.1-4.2-11.1c0,0-0.1-0.1-0.1-0.1c4.2-2.1,8.7-5.9,19.4-10.3
			C340.5,40.2,354.8,29.3,360,26.3z M301.9,46c-3.4,2.4-5.7,4.7-7.1,6.8c-0.8-0.2-1.5-0.4-2.3-0.5c-0.7-2.3-1.9-5.2-3.7-9.2
			c0,0-1.9-3.7-1.6-6.1c0.7-2.6,3.3-6.8,10-7.7c11.4-1.5,16.2,7.3,8.7,13.3C304.8,43.8,303.4,45,301.9,46z M290.2,81.6
			c-6.9,0-12.5-5.6-12.5-12.5c0-6.9,5.6-12.5,12.5-12.5c1,0,2,0.1,2.9,0.4c0,2,1.5,3.1,4.1,2.9c0.4,0,0.8-0.1,1.1-0.2
			c2.6,2.3,4.3,5.7,4.3,9.4C302.7,76,297.1,81.6,290.2,81.6z"/>
	</g>
</g>
<rect x="283.9" y="60.9" fill="none" width="13.1" height="20.4"/>
<text transform="matrix(1 0 0 1 283.9004 76.5859)" font-family="'HelveticaLTStd-BoldObl'" font-size="21.86">$</text>
<polygon fill="#7C81B8" points="207.6,56.8 214.5,43.5 211,32.1 26.3,32.1 22.7,44.4 27,56.8 17.4,91.6 5.4,184.2 7.9,241.2 
	27.6,320.4 22.7,347.6 208.1,350.5 214.5,341.1 210.1,327.4 204.1,318.2 219,298.8 232.5,195.6 220.2,106.8 "/>
<g>
	<path d="M17,330.1v12.4c0,6.6,5.4,12,12,12h177.1c6.6,0,12-5.4,12-12v-12.4c0-3.6-1.6-6.9-4.2-9.1c4.6-15.3,21.2-74,21.2-131.2
		c0-57.4-16.5-115.9-21.2-131.2c2.5-2.2,4.2-5.4,4.2-9.1V37.1c0-6.6-5.4-12-12-12H29c-6.6,0-12,5.4-12,12v12.4
		c0,3.6,1.6,6.9,4.2,9.1C16.5,74,0,132.5,0,189.9s16.5,115.9,21.2,131.2C18.7,323.3,17,326.5,17,330.1z M207.8,37.1v12.4
		c0,0.9-0.8,1.7-1.7,1.7H171c-0.8-0.2-1.7-0.2-2.6,0c0,0,0,0-0.1,0h-49.4c-0.4-0.1-0.9-0.2-1.3-0.2s-0.9,0.1-1.3,0.2H66.8
		c0,0,0,0-0.1,0c-0.9-0.2-1.8-0.2-2.6,0H29c-0.9,0-1.7-0.8-1.7-1.7V37.1c0-0.9,0.8-1.7,1.7-1.7h177.1
		C207.1,35.4,207.8,36.2,207.8,37.1L207.8,37.1z M224.9,189.9c0,56.1-16.3,113.7-20.8,128.3h-173c-4.4-14.7-20.8-73-20.8-128.3
		S26.6,76.3,31.1,61.5h27.9C40.2,139,38.7,217.7,54.5,295.4c0.5,2.4,2.6,4.1,5,4.1c0.3,0,0.7,0,1-0.1c2.8-0.6,4.6-3.3,4-6
		c-15.6-77-13.9-155,5-231.8h42.9l0,232.8c0,2.8,2.3,5.1,5.1,5.1c2.8,0,5.1-2.3,5.1-5.1V61.5h42.9c18.9,76.8,20.6,154.8,5,231.8
		c-0.6,2.8,1.2,5.5,4,6c0.3,0.1,0.7,0.1,1,0.1c2.4,0,4.5-1.7,5-4.1c15.8-77.7,14.3-156.3-4.4-233.8h27.9
		C208.5,76.3,224.9,134.5,224.9,189.9z M27.3,330.1c0-0.9,0.8-1.7,1.7-1.7h177.1c0.9,0,1.7,0.8,1.7,1.7v12.4c0,0.9-0.8,1.7-1.7,1.7
		H29c-0.9,0-1.7-0.8-1.7-1.7V330.1z"/>
</g>
<g>
	<circle fill="#FF9600" cx="310.7" cy="334.5" r="8.1"/>
	<polygon fill="#FFFFFF" points="329.9,330.3 327.4,329 318.8,332 318.6,335.8 316.1,340 312.3,342.1 309.8,342.1 306.9,341.2 
		304.5,339.7 303.1,337.3 302.6,335 301.9,331.7 296,330.7 292.5,329 292.5,353.7 300.1,357.8 311.8,358.5 318.8,357.6 326.8,355.4 
		329.9,353.5 330.3,350.6 	"/>
	<g>
		<polygon fill="#FFFFFF" points="330.8,308.8 329.8,304.9 320.9,300.8 306.1,300.5 295.5,301.8 292.5,304.7 291.9,322 295.9,323 
			307.3,324.1 322.1,323.5 328.8,322.3 330.8,321.4 		"/>
		<g>
			<path fill="#FF0000" d="M290.6,308.2l-0.5-0.9c0-5.4,11-8.4,21-8.4c9.9,0,21,2.9,21,8.4l-0.5,1.1V350l0.5,1.6
				c0,5.4-11,8.4-21,8.4c-9.9,0-21-2.9-21-8.4l0.5-1.4V308.2z M293.4,330.5v16.7v4.4c0,2.3,6.7,5.6,17.7,5.6c11,0,17.7-3.3,17.7-5.6
				v-4.4v-16.7c0,0-2.5,2.2-9.5,3.3c0,0.1,0,0.2,0,0.3c0,4.8-3.9,8.8-8.8,8.8c-4.8,0-8.8-3.9-8.8-8.8c0-0.1,0-0.2,0-0.3
				C295.3,332.7,293.4,330.5,293.4,330.5L293.4,330.5z M318.1,334.1c0-0.1,0-0.2,0-0.3l0-0.1c-0.4-3.8-3.6-6.8-7.5-6.8
				c-4,0-7.2,3-7.6,6.9c0,0.1,0,0.2,0,0.3c0,4.2,3.4,7.6,7.6,7.6C314.7,341.7,318.1,338.3,318.1,334.1z M311.1,312.9
				c11,0,17.7-3.3,17.7-5.6s-6.7-5.6-17.7-5.6c-11,0-17.7,3.3-17.7,5.6C293.4,309.6,300.1,312.9,311.1,312.9z M299.6,347"/>
		</g>
	</g>
</g>
<g>
	<circle fill="#FF9600" cx="267.3" cy="334.5" r="8.1"/>
	<polygon fill="#FFFFFF" points="286.5,330.3 284,329 275.4,332 275.2,335.8 272.7,340 268.9,342.1 266.4,342.1 263.5,341.2 
		261.1,339.7 259.7,337.3 259.3,335 258.5,331.7 252.6,330.7 249.1,329 249.1,353.7 256.7,357.8 268.5,358.5 275.4,357.6 
		283.4,355.4 286.5,353.5 287,350.6 	"/>
	<g>
		<polygon fill="#FFFFFF" points="287.4,308.8 286.4,304.9 277.5,300.8 262.7,300.5 252.2,301.8 249.1,304.7 248.5,322 252.5,323 
			263.9,324.1 278.7,323.5 285.4,322.3 287.4,321.4 		"/>
		<g>
			<path fill="#FF0000" d="M247.2,308.2l-0.5-0.9c0-5.4,11-8.4,21-8.4c9.9,0,21,2.9,21,8.4l-0.5,1.1V350l0.5,1.6
				c0,5.4-11,8.4-21,8.4c-9.9,0-21-2.9-21-8.4l0.5-1.4V308.2z M250,330.5v16.7v4.4c0,2.3,6.7,5.6,17.7,5.6c11,0,17.7-3.3,17.7-5.6
				v-4.4v-16.7c0,0-2.5,2.2-9.5,3.3c0,0.1,0,0.2,0,0.3c0,4.8-3.9,8.8-8.8,8.8c-4.8,0-8.8-3.9-8.8-8.8c0-0.1,0-0.2,0-0.3
				C251.9,332.7,250,330.5,250,330.5L250,330.5z M274.7,334.1c0-0.1,0-0.2,0-0.3l0-0.1c-0.4-3.8-3.6-6.8-7.5-6.8c-4,0-7.2,3-7.6,6.9
				c0,0.1,0,0.2,0,0.3c0,4.2,3.4,7.6,7.6,7.6C271.3,341.7,274.7,338.3,274.7,334.1z M267.7,312.9c11,0,17.7-3.3,17.7-5.6
				s-6.7-5.6-17.7-5.6c-11,0-17.7,3.3-17.7,5.6C250,309.6,256.7,312.9,267.7,312.9z M256.2,347"/>
		</g>
	</g>
</g>
<g>
	<circle fill="#FF9600" cx="223.5" cy="334.5" r="8.1"/>
	<polygon fill="#FFFFFF" points="242.6,330.3 240.2,329 231.6,332 231.4,335.8 228.9,340 225.1,342.1 222.6,342.1 219.7,341.2 
		217.3,339.7 215.9,337.3 215.4,335 214.7,331.7 208.7,330.7 205.3,329 205.3,353.7 212.9,357.8 224.6,358.5 231.6,357.6 
		239.5,355.4 242.6,353.5 243.1,350.6 	"/>
	<g>
		<polygon fill="#FFFFFF" points="243.6,308.8 242.6,304.9 233.7,300.8 218.9,300.5 208.3,301.8 205.3,304.7 204.6,322 208.7,323 
			220,324.1 234.9,323.5 241.6,322.3 243.6,321.4 		"/>
		<g>
			<path fill="#FF0000" d="M203.4,308.2l-0.5-0.9c0-5.4,11-8.4,21-8.4c9.9,0,21,2.9,21,8.4l-0.5,1.1V350l0.5,1.6
				c0,5.4-11,8.4-21,8.4c-9.9,0-21-2.9-21-8.4l0.5-1.4V308.2z M206.2,330.5v16.7v4.4c0,2.3,6.7,5.6,17.7,5.6c11,0,17.7-3.3,17.7-5.6
				v-4.4v-16.7c0,0-2.5,2.2-9.5,3.3c0,0.1,0,0.2,0,0.3c0,4.8-3.9,8.8-8.8,8.8c-4.8,0-8.8-3.9-8.8-8.8c0-0.1,0-0.2,0-0.3
				C208.1,332.7,206.2,330.5,206.2,330.5L206.2,330.5z M230.9,334.1c0-0.1,0-0.2,0-0.3l0-0.1c-0.4-3.8-3.6-6.8-7.5-6.8
				c-4,0-7.2,3-7.6,6.9c0,0.1,0,0.2,0,0.3c0,4.2,3.4,7.6,7.6,7.6C227.5,341.7,230.9,338.3,230.9,334.1z M223.9,312.9
				c11,0,17.7-3.3,17.7-5.6s-6.7-5.6-17.7-5.6c-11,0-17.7,3.3-17.7,5.6C206.2,309.6,212.9,312.9,223.9,312.9z M212.4,347"/>
		</g>
	</g>
</g>
<g>
	<circle fill="#FF9600" cx="180.1" cy="334.5" r="8.1"/>
	<polygon fill="#FFFFFF" points="199.3,330.3 196.8,329 188.2,332 188,335.8 185.5,340 181.7,342.1 179.2,342.1 176.3,341.2 
		173.9,339.7 172.5,337.3 172,335 171.3,331.7 165.4,330.7 161.9,329 161.9,353.7 169.5,357.8 181.2,358.5 188.2,357.6 196.2,355.4 
		199.3,353.5 199.7,350.6 	"/>
	<g>
		<polygon fill="#FFFFFF" points="200.2,308.8 199.2,304.9 190.3,300.8 175.5,300.5 164.9,301.8 161.9,304.7 161.3,322 165.3,323 
			176.7,324.1 191.5,323.5 198.2,322.3 200.2,321.4 		"/>
		<g>
			<path fill="#FF0000" d="M160,308.2l-0.5-0.9c0-5.4,11-8.4,21-8.4c9.9,0,21,2.9,21,8.4l-0.5,1.1V350l0.5,1.6c0,5.4-11,8.4-21,8.4
				c-9.9,0-21-2.9-21-8.4l0.5-1.4V308.2z M162.8,330.5v16.7v4.4c0,2.3,6.7,5.6,17.7,5.6c11,0,17.7-3.3,17.7-5.6v-4.4v-16.7
				c0,0-2.5,2.2-9.5,3.3c0,0.1,0,0.2,0,0.3c0,4.8-3.9,8.8-8.8,8.8c-4.8,0-8.8-3.9-8.8-8.8c0-0.1,0-0.2,0-0.3
				C164.7,332.7,162.8,330.5,162.8,330.5L162.8,330.5z M187.5,334.1c0-0.1,0-0.2,0-0.3l0-0.1c-0.4-3.8-3.6-6.8-7.5-6.8
				c-4,0-7.2,3-7.6,6.9c0,0.1,0,0.2,0,0.3c0,4.2,3.4,7.6,7.6,7.6C184.1,341.7,187.5,338.3,187.5,334.1z M180.5,312.9
				c11,0,17.7-3.3,17.7-5.6s-6.7-5.6-17.7-5.6c-11,0-17.7,3.3-17.7,5.6C162.8,309.6,169.5,312.9,180.5,312.9z M169,347"/>
		</g>
	</g>
</g>
<g>
	<circle fill="#FF9600" cx="290" cy="281.9" r="8.1"/>
	<polygon fill="#FFFFFF" points="309.1,277.6 306.7,276.4 298,279.4 297.9,283.2 295.4,287.3 291.6,289.5 289.1,289.5 286.2,288.6 
		283.7,287 282.4,284.7 281.9,282.4 281.1,279.1 275.2,278 271.7,276.4 271.7,301.1 279.4,305.1 291.1,305.9 298,304.9 306,302.8 
		309.1,300.9 309.6,298 	"/>
	<g>
		<polygon fill="#FFFFFF" points="310,256.2 309.1,252.2 300.2,248.1 285.3,247.8 274.8,249.1 271.7,252.1 271.1,269.3 275.2,270.4 
			286.5,271.4 301.3,270.9 308,269.7 310,268.8 		"/>
		<g>
			<path fill="#FF0000" d="M269.8,255.5l-0.5-0.9c0-5.4,11-8.4,21-8.4c9.9,0,21,2.9,21,8.4l-0.5,1.1v41.6l0.5,1.6
				c0,5.4-11,8.4-21,8.4c-9.9,0-21-2.9-21-8.4l0.5-1.4V255.5z M272.6,277.9v16.7v4.4c0,2.3,6.7,5.6,17.7,5.6c11,0,17.7-3.3,17.7-5.6
				v-4.4v-16.7c0,0-2.5,2.2-9.5,3.3c0,0.1,0,0.2,0,0.3c0,4.8-3.9,8.8-8.8,8.8c-4.8,0-8.8-3.9-8.8-8.8c0-0.1,0-0.2,0-0.3
				C274.5,280,272.6,277.9,272.6,277.9L272.6,277.9z M297.4,281.5c0-0.1,0-0.2,0-0.3l0-0.1c-0.4-3.8-3.6-6.8-7.5-6.8
				c-4,0-7.2,3-7.6,6.9c0,0.1,0,0.2,0,0.3c0,4.2,3.4,7.6,7.6,7.6C294,289,297.4,285.6,297.4,281.5z M290.3,260.3
				c11,0,17.7-3.3,17.7-5.6c0-2.3-6.7-5.6-17.7-5.6c-11,0-17.7,3.3-17.7,5.6C272.6,257,279.4,260.3,290.3,260.3z M278.8,294.4"/>
		</g>
	</g>
</g>
<g>
	<circle fill="#FF9600" cx="246.6" cy="281.9" r="8.1"/>
	<polygon fill="#FFFFFF" points="265.7,277.6 263.3,276.4 254.6,279.4 254.5,283.2 252,287.3 248.2,289.5 245.7,289.5 242.8,288.6 
		240.3,287 239,284.7 238.5,282.4 237.7,279.1 231.8,278 228.3,276.4 228.3,301.1 236,305.1 247.7,305.9 254.6,304.9 262.6,302.8 
		265.7,300.9 266.2,298 	"/>
	<g>
		<polygon fill="#FFFFFF" points="266.7,256.2 265.7,252.2 256.8,248.1 242,247.8 231.4,249.1 228.3,252.1 227.7,269.3 231.8,270.4 
			243.1,271.4 257.9,270.9 264.6,269.7 266.7,268.8 		"/>
		<g>
			<path fill="#FF0000" d="M226.4,255.5l-0.5-0.9c0-5.4,11-8.4,21-8.4c9.9,0,21,2.9,21,8.4l-0.5,1.1v41.6l0.5,1.6
				c0,5.4-11,8.4-21,8.4c-9.9,0-21-2.9-21-8.4l0.5-1.4V255.5z M229.2,277.9v16.7v4.4c0,2.3,6.7,5.6,17.7,5.6c11,0,17.7-3.3,17.7-5.6
				v-4.4v-16.7c0,0-2.5,2.2-9.5,3.3c0,0.1,0,0.2,0,0.3c0,4.8-3.9,8.8-8.8,8.8c-4.8,0-8.8-3.9-8.8-8.8c0-0.1,0-0.2,0-0.3
				C231.1,280,229.2,277.9,229.2,277.9L229.2,277.9z M254,281.5c0-0.1,0-0.2,0-0.3l0-0.1c-0.4-3.8-3.6-6.8-7.5-6.8
				c-4,0-7.2,3-7.6,6.9c0,0.1,0,0.2,0,0.3c0,4.2,3.4,7.6,7.6,7.6C250.6,289,254,285.6,254,281.5z M246.9,260.3
				c11,0,17.7-3.3,17.7-5.6c0-2.3-6.7-5.6-17.7-5.6c-11,0-17.7,3.3-17.7,5.6C229.2,257,236,260.3,246.9,260.3z M235.5,294.4"/>
		</g>
	</g>
</g>
<g>
	<circle fill="#FF9600" cx="202.7" cy="281.9" r="8.1"/>
	<polygon fill="#FFFFFF" points="221.9,277.6 219.5,276.4 210.8,279.4 210.7,283.2 208.2,287.3 204.4,289.5 201.8,289.5 
		198.9,288.6 196.5,287 195.2,284.7 194.7,282.4 193.9,279.1 188,278 184.5,276.4 184.5,301.1 192.2,305.1 203.9,305.9 210.8,304.9 
		218.8,302.8 221.9,300.9 222.4,298 	"/>
	<g>
		<polygon fill="#FFFFFF" points="222.8,256.2 221.8,252.2 213,248.1 198.1,247.8 187.6,249.1 184.5,252.1 183.9,269.3 188,270.4 
			199.3,271.4 214.1,270.9 220.8,269.7 222.8,268.8 		"/>
		<g>
			<path fill="#FF0000" d="M182.6,255.5l-0.5-0.9c0-5.4,11-8.4,21-8.4c9.9,0,21,2.9,21,8.4l-0.5,1.1v41.6l0.5,1.6
				c0,5.4-11,8.4-21,8.4c-9.9,0-21-2.9-21-8.4l0.5-1.4V255.5z M185.4,277.9v16.7v4.4c0,2.3,6.7,5.6,17.7,5.6c11,0,17.7-3.3,17.7-5.6
				v-4.4v-16.7c0,0-2.5,2.2-9.5,3.3c0,0.1,0,0.2,0,0.3c0,4.8-3.9,8.8-8.8,8.8c-4.8,0-8.8-3.9-8.8-8.8c0-0.1,0-0.2,0-0.3
				C187.3,280,185.4,277.9,185.4,277.9L185.4,277.9z M210.1,281.5c0-0.1,0-0.2,0-0.3l0-0.1c-0.4-3.8-3.6-6.8-7.5-6.8
				c-4,0-7.2,3-7.6,6.9c0,0.1,0,0.2,0,0.3c0,4.2,3.4,7.6,7.6,7.6C206.8,289,210.1,285.6,210.1,281.5z M203.1,260.3
				c11,0,17.7-3.3,17.7-5.6c0-2.3-6.7-5.6-17.7-5.6c-11,0-17.7,3.3-17.7,5.6C185.4,257,192.1,260.3,203.1,260.3z M191.6,294.4"/>
		</g>
	</g>
</g>
<g>
	<circle fill="#FF9600" cx="267.9" cy="228.6" r="8.1"/>
	<polygon fill="#FFFFFF" points="287.1,224.3 284.6,223.1 276,226.1 275.8,229.9 273.3,234 269.5,236.2 267,236.2 264.1,235.3 
		261.7,233.7 260.3,231.4 259.8,229.1 259.1,225.8 253.2,224.7 249.7,223.1 249.7,247.8 257.3,251.9 269,252.6 276,251.7 284,249.5 
		287.1,247.6 287.5,244.7 	"/>
	<g>
		<polygon fill="#FFFFFF" points="288,202.9 287,198.9 278.1,194.9 263.3,194.5 252.7,195.8 249.7,198.8 249.1,216.1 253.1,217.1 
			264.5,218.2 279.3,217.6 286,216.4 288,215.5 		"/>
		<g>
			<path fill="#FF0000" d="M247.8,202.2l-0.5-0.9c0-5.4,11-8.4,21-8.4c9.9,0,21,2.9,21,8.4l-0.5,1.1v41.6l0.5,1.6
				c0,5.4-11,8.4-21,8.4c-9.9,0-21-2.9-21-8.4l0.5-1.4V202.2z M250.6,224.6v16.7v4.4c0,2.3,6.7,5.6,17.7,5.6c11,0,17.7-3.3,17.7-5.6
				v-4.4v-16.7c0,0-2.5,2.2-9.5,3.3c0,0.1,0,0.2,0,0.3c0,4.8-3.9,8.8-8.8,8.8c-4.8,0-8.8-3.9-8.8-8.8c0-0.1,0-0.2,0-0.3
				C252.5,226.7,250.6,224.6,250.6,224.6L250.6,224.6z M275.3,228.2c0-0.1,0-0.2,0-0.3l0-0.1c-0.4-3.8-3.6-6.8-7.5-6.8
				c-4,0-7.2,3-7.6,6.9c0,0.1,0,0.2,0,0.3c0,4.2,3.4,7.6,7.6,7.6C271.9,235.8,275.3,232.4,275.3,228.2z M268.3,207
				c11,0,17.7-3.3,17.7-5.6s-6.7-5.6-17.7-5.6c-11,0-17.7,3.3-17.7,5.6C250.6,203.7,257.3,207,268.3,207z M256.8,241.1"/>
		</g>
	</g>
</g>
<g>
	<circle fill="#FF9600" cx="224.5" cy="228.6" r="8.1"/>
	<polygon fill="#FFFFFF" points="243.7,224.3 241.2,223.1 232.6,226.1 232.4,229.9 229.9,234 226.1,236.2 223.6,236.2 220.7,235.3 
		218.3,233.7 216.9,231.4 216.4,229.1 215.7,225.8 209.8,224.7 206.3,223.1 206.3,247.8 213.9,251.9 225.6,252.6 232.6,251.7 
		240.6,249.5 243.7,247.6 244.1,244.7 	"/>
	<g>
		<polygon fill="#FFFFFF" points="244.6,202.9 243.6,198.9 234.7,194.9 219.9,194.5 209.3,195.8 206.3,198.8 205.7,216.1 
			209.7,217.1 221.1,218.2 235.9,217.6 242.6,216.4 244.6,215.5 		"/>
		<g>
			<path fill="#FF0000" d="M204.4,202.2l-0.5-0.9c0-5.4,11-8.4,21-8.4c9.9,0,21,2.9,21,8.4l-0.5,1.1v41.6l0.5,1.6
				c0,5.4-11,8.4-21,8.4c-9.9,0-21-2.9-21-8.4l0.5-1.4V202.2z M207.2,224.6v16.7v4.4c0,2.3,6.7,5.6,17.7,5.6c11,0,17.7-3.3,17.7-5.6
				v-4.4v-16.7c0,0-2.5,2.2-9.5,3.3c0,0.1,0,0.2,0,0.3c0,4.8-3.9,8.8-8.8,8.8c-4.8,0-8.8-3.9-8.8-8.8c0-0.1,0-0.2,0-0.3
				C209.1,226.7,207.2,224.6,207.2,224.6L207.2,224.6z M231.9,228.2c0-0.1,0-0.2,0-0.3l0-0.1c-0.4-3.8-3.6-6.8-7.5-6.8
				c-4,0-7.2,3-7.6,6.9c0,0.1,0,0.2,0,0.3c0,4.2,3.4,7.6,7.6,7.6C228.5,235.8,231.9,232.4,231.9,228.2z M224.9,207
				c11,0,17.7-3.3,17.7-5.6s-6.7-5.6-17.7-5.6c-11,0-17.7,3.3-17.7,5.6C207.2,203.7,213.9,207,224.9,207z M213.4,241.1"/>
		</g>
	</g>
</g>
<g>
	<circle fill="#FF9600" cx="246.2" cy="176.4" r="8.1"/>
	<polygon fill="#FFFFFF" points="265.4,172.2 262.9,171 254.3,174 254.1,177.7 251.6,181.9 247.8,184 245.3,184 242.4,183.2 
		240,181.6 238.6,179.3 238.1,177 237.4,173.7 231.5,172.6 228,171 228,195.7 235.6,199.7 247.3,200.5 254.3,199.5 262.3,197.4 
		265.4,195.5 265.8,192.6 	"/>
	<g>
		<polygon fill="#FFFFFF" points="266.3,150.8 265.3,146.8 256.4,142.7 241.6,142.4 231,143.7 228,146.7 227.4,163.9 231.4,165 
			242.8,166 257.6,165.5 264.3,164.2 266.3,163.3 		"/>
		<g>
			<path fill="#FF0000" d="M226.1,150.1l-0.5-0.9c0-5.4,11-8.4,21-8.4c9.9,0,21,2.9,21,8.4l-0.5,1.1V192l0.5,1.6
				c0,5.4-11,8.4-21,8.4c-9.9,0-21-2.9-21-8.4l0.5-1.4V150.1z M228.9,172.5v16.7v4.4c0,2.3,6.7,5.6,17.7,5.6c11,0,17.7-3.3,17.7-5.6
				v-4.4v-16.7c0,0-2.5,2.2-9.5,3.3c0,0.1,0,0.2,0,0.3c0,4.8-3.9,8.8-8.8,8.8c-4.8,0-8.8-3.9-8.8-8.8c0-0.1,0-0.2,0-0.3
				C230.8,174.6,228.9,172.5,228.9,172.5L228.9,172.5z M253.6,176c0-0.1,0-0.2,0-0.3l0-0.1c-0.4-3.8-3.6-6.8-7.5-6.8
				c-4,0-7.2,3-7.6,6.9c0,0.1,0,0.2,0,0.3c0,4.2,3.4,7.6,7.6,7.6C250.2,183.6,253.6,180.2,253.6,176z M246.6,154.8
				c11,0,17.7-3.3,17.7-5.6c0-2.3-6.7-5.6-17.7-5.6c-11,0-17.7,3.3-17.7,5.6C228.9,151.6,235.6,154.8,246.6,154.8z M235.1,189"/>
		</g>
	</g>
</g>
</svg>
