<?xml version="1.0" encoding="utf-8"?>
<!-- Generator: Adobe Illustrator 18.1.1, SVG Export Plug-In . SVG Version: 6.00 Build 0)  -->
<svg version="1.1" id="Layer_3" xmlns="http://www.w3.org/2000/svg" xmlns:xlink="http://www.w3.org/1999/xlink" x="0px" y="0px"
	 viewBox="0 0 360 360" enable-background="new 0 0 360 360" xml:space="preserve">
<rect x="61.7" y="180" fill="#FF9600" width="242.7" height="152.7"/>
<polygon fill="#FF9600" points="189,45.7 145.7,68 142.9,145.3 231,152.7 231,82.7 "/>
<line fill="#FE230A" stroke="#FE230A" stroke-width="11.8924" stroke-miterlimit="10" x1="72.4" y1="142.8" x2="72.4" y2="22.5"/>
<path fill="#7C81B8" d="M37.2,30.9c13.4-0.2,26.6-2.6,34.2-13.7c0-1.9,6.8-1.9,6.8,0v51.3l-6.8,3.7c-13.7,6.9-25.8,3.2-34.2-7.1
	C27.8,53.4,17.1,49.7,3,44.5C3,44.5,16.7,31.2,37.2,30.9z"/>
<g>
	<g>
		<path fill="#10167F" d="M100,268.4h17.1c2.6,0,4.3-1.7,4.3-4.3V247c0-2.6-1.7-4.3-4.3-4.3H100c-2.6,0-4.3,1.7-4.3,4.3v17.1
			C95.8,265.8,97.5,268.4,100,268.4z"/>
		<path fill="#10167F" d="M100,301.8h17.1c2.6,0,4.3-1.7,4.3-4.3v-17.1c0-2.6-1.7-4.3-4.3-4.3H100c-2.6,0-4.3,1.7-4.3,4.3v17.1
			C95.8,300,97.5,301.8,100,301.8z"/>
		<path fill="#10167F" d="M247.8,268.4h17.1c2.6,0,4.3-1.7,4.3-4.3V247c0-2.6-1.7-4.3-4.3-4.3h-17.1c-2.6,0-4.3,1.7-4.3,4.3v17.1
			C243.5,265.8,245.2,268.4,247.8,268.4z"/>
		<path fill="#10167F" d="M247.8,301.8h17.1c2.6,0,4.3-1.7,4.3-4.3v-17.1c0-2.6-1.7-4.3-4.3-4.3h-17.1c-2.6,0-4.3,1.7-4.3,4.3v17.1
			C243.5,300,245.2,301.8,247.8,301.8z"/>
		<path fill="#10167F" d="M354.1,193.9l-36-61.7c-2.6-4.3-6.9-6.9-11.1-6.9h-65.5v-23.1l8.6,6c2.6,1.7,5.1,2.6,7.7,2.6
			c4.3,0,7.7-1.7,10.3-5.1c4.3-6,2.6-13.7-2.6-18l-75.4-54.8c-4.3-3.4-10.3-3.4-15.4,0L99.4,87.7c-6,4.3-6.9,12-2.6,18
			c4.3,6,12,6.9,18,2.6l8.6-6v23.1H57.9c-4.3,0-8.6,2.6-11.1,6.9L10,195.6c-2.6,4.3-2.6,8.6,0,12.8c2.6,4.3,6.9,6.9,11.1,6.9h26.5
			v119.9c0,6.9,6,12.8,12.8,12.8h244c6.9,0,12.8-6,12.8-12.8V215.3h26.5l0,0c6.9,0,12.8-6,12.8-12.8
			C356.7,199,355.8,196.4,354.1,193.9z M182.5,59.4l33.4,24c0,0,0,0,0,0.9v40.2h-66.8V84.3c0,0,0,0,0-0.9L182.5,59.4z M291.6,322.3
			h-73.2v-50.5c0-19.7-16.3-35.1-35.1-35.1c-18.8,0-35.1,16.3-35.1,35.1v50.5H75v-107h218.3L291.6,322.3L291.6,322.3z"/>
	</g>
</g>
</svg>
