<?xml version="1.0" encoding="utf-8"?>
<!-- Generator: Adobe Illustrator 18.1.1, SVG Export Plug-In . SVG Version: 6.00 Build 0)  -->
<svg version="1.1" id="Layer_3" xmlns="http://www.w3.org/2000/svg" xmlns:xlink="http://www.w3.org/1999/xlink" x="0px" y="0px"
	 viewBox="0 0 360 360" enable-background="new 0 0 360 360" xml:space="preserve">
<g>
	<polygon fill="#FF9600" points="33.2,237.8 121.9,237.1 212,226.8 227.4,228.6 235.6,268.1 228.5,293.3 172.3,292 123.2,292.3 
		79.3,295.8 37.8,303.5 23.7,292.5 18.2,272.4 25.4,246.9 	"/>
	<g>
		<path fill="#7C81B8" d="M30.3,213l4.7,16.1c-11.9,0.4-16.5,11.1-16.5,11.1c-9.6,20.8-8.5,40.4,3.3,59.9l0.3,0.4
			c4.1,5.7,11.3,9.1,18.4,8.7c0.5,0,1.1-0.1,1.6-0.2l0.2,0c21-3.5,42.3-6.2,63.5-8.1c-3.5,15.5-8.7,27.1-15.2,33.7
			c-1.1,1.1-1.3,2.8-0.6,4.1c0.7,1.4,2.3,2.1,3.8,1.8l12.9-2.5l0.6,16.4c0,1.4,0.9,2.7,2.2,3.2c0.5,0.2,1,0.3,1.5,0.2
			c0.9,0,1.7-0.4,2.3-1.1c7.3-7.5,13.3-17.6,17.9-30.1c6,11.9,13.1,21.3,21.2,27.9c0.7,0.6,1.6,0.8,2.4,0.8c0.5,0,1-0.2,1.4-0.4
			c1.2-0.7,2-2,1.9-3.4l-1.3-16.4l13.1,1.1c1.5,0.1,3-0.8,3.6-2.2c0.6-1.4,0.2-3.1-1-4c-7.2-5.9-13.6-16.8-18.9-31.8
			c21.3-0.5,42.8-0.2,64,1l0.2,0c0.5,0,1.1,0,1.6,0c7.1-0.4,13.9-4.6,17.3-10.7l0.2-0.5c9.6-20.8,8.5-40.4-3.4-59.9l-0.3-0.4
			c-3.5-5.3-10.6-8.8-17.3-8.7l2.9-16.5c0.5-2.7-0.7-5.5-3.1-7c-2.3-1.5-5.3-1.5-7.6,0.1c-0.4,0.3-31.6,21.4-61.8,30.4l-41.4,2.3
			c-31-5.6-64.4-23.1-64.8-23.3c-2.5-1.3-5.5-1-7.6,0.8C30.4,207.5,29.5,210.4,30.3,213z M147.3,241.4c19.9-1.6,39.9-4,59.7-7.1
			l3.3-0.5c1.7-0.3,3.4-0.6,5.2-0.9c3.1-0.5,5.6,0.9,6.6,2.7c9.3,15.6,10.1,29.9,2.6,46.5c-0.9,2-3.6,3.3-5.9,3.4
			c-0.1,0-0.3,0-0.4,0c-22.8-1.3-45.8-1.5-68.6-0.9L147.3,241.4z M36.8,242.9c0.1,0,0.3,0,0.4,0c1.7,0.1,3.5,0.2,5.2,0.3l3.3,0.2
			c20,0.9,40.1,1,60.1,0.4l2.4,43.3c-22.8,1.9-45.6,4.7-68.1,8.5c-0.1,0-0.2,0-0.4,0c-2.3,0.1-4.9-1-6.2-2.8
			c-9.3-15.6-10.1-29.9-2.6-46.5C31.9,244.3,34.5,243,36.8,242.9z"/>
	</g>
</g>
<g>
	<g>
		<path fill="#10167F" d="M49.5,164.7c0,19.8,101,80.6,128.6,80.6c27.6,0,110.6-60.9,110.6-80.6c0-2.3-0.7-4.5-2-6.6
			c0.1,0.1,0.2,0.2,0.2,0.2l-9-56l-107.8,65.5L60.3,102.4l-9,51.8C50.3,160.5,49.5,162.6,49.5,164.7z M0,53.3L168.9,0l169.4,54
			L169.4,156.4L0,53.3z"/>
	</g>
	<polygon fill="#FE230A" points="328.5,178.3 337.9,212 348.1,178.3 337.9,66.2 	"/>
</g>
</svg>
