<?xml version="1.0" encoding="utf-8"?>
<!-- Generator: Adobe Illustrator 18.1.1, SVG Export Plug-In . SVG Version: 6.00 Build 0)  -->
<svg version="1.1" id="Layer_3" xmlns="http://www.w3.org/2000/svg" xmlns:xlink="http://www.w3.org/1999/xlink" x="0px" y="0px"
	 viewBox="0 0 360 360" enable-background="new 0 0 360 360" xml:space="preserve">
<g>
	<circle fill="#FFFFFF" cx="246.8" cy="115.1" r="92.4"/>
	<g>
		<g>
			<g>
				<path fill="#10167F" d="M246.8,5.2c-60.6,0-109.9,49.3-109.9,109.9S186.2,225,246.8,225c60.6,0,109.9-49.3,109.9-109.9
					C356.7,54.5,307.4,5.2,246.8,5.2z M293,188.5l-4.7-8.1c-0.5-0.9-1.6-1.5-2.7-1.5c-0.5,0-1.1,0.1-1.5,0.4
					c-0.7,0.4-1.2,1.1-1.4,1.9c-0.2,0.8-0.1,1.6,0.3,2.3l4.7,8.2c-10.6,5.7-22.5,9.2-35.1,10.1v-11.5c0-3.2-2.6-5.8-5.8-5.8
					c-3.2,0-5.8,2.6-5.8,5.8v11.5c-12.5-0.8-24.2-4.3-34.7-9.8l4.7-8.2c0.4-0.7,0.5-1.5,0.3-2.3c-0.2-0.8-0.7-1.4-1.4-1.9
					c-0.5-0.3-1-0.4-1.5-0.4c-1.1,0-2.1,0.6-2.7,1.5l-4.7,8.2c-10.5-6.5-19.4-15.2-26.3-25.4l9.9-5.7c2.8-1.6,3.7-5.1,2.1-7.9
					c-1.6-2.8-5.1-3.7-7.9-2.1l-10,5.7c-5.2-10.6-8.4-22.4-8.8-34.9l9.4,0c0.8,0,1.6-0.3,2.2-0.9c0.6-0.6,0.9-1.4,0.9-2.2
					c0-1.7-1.4-3.1-3.1-3.1l-9.5,0c0.4-12.7,3.5-24.7,8.9-35.5l10,5.7c0.9,0.5,1.9,0.8,2.9,0.8c2,0,3.9-1,5-2.9
					c1.6-2.8,0.6-6.3-2.1-7.9l-9.9-5.7c6.8-10.1,15.6-18.6,25.8-25.1l4.7,8.1c0.3,0.5,0.7,0.8,1.1,1.1c0.9,0.5,2.1,0.5,3.1,0
					c0.7-0.4,1.2-1.1,1.4-1.9c0.2-0.8,0.1-1.6-0.3-2.3l-4.7-8.2c10.6-5.7,22.5-9.2,35.1-10.1V40c0,3.2,2.6,5.8,5.8,5.8
					c3.2,0,5.8-2.6,5.8-5.8V28.5c12.5,0.8,24.2,4.3,34.7,9.8l-4.7,8.2c-0.8,1.5-0.3,3.3,1.1,4.2c0.5,0.3,1,0.4,1.5,0.4
					c1.1,0,2.1-0.6,2.7-1.5l4.7-8.2c10.5,6.5,19.4,15.2,26.3,25.4l-9.9,5.7c-2.8,1.6-3.7,5.1-2.1,7.9c1.1,1.9,3,2.9,5,2.9
					c1,0,2-0.2,2.9-0.8l10-5.7c5.2,10.6,8.4,22.4,8.8,34.9l-9.4,0c-0.8,0-1.6,0.3-2.2,0.9c-0.6,0.6-0.9,1.3-0.9,2.2
					c0,1.1,0.6,2.1,1.5,2.7c0.5,0.3,1,0.4,1.5,0.4h0l9.4,0c-0.4,12.7-3.5,24.7-8.9,35.5l-10-5.7c-2.8-1.6-6.3-0.6-7.9,2.1
					c-1.6,2.8-0.7,6.3,2.1,7.9l9.9,5.7C312.1,173.4,303.2,182,293,188.5z"/>
				<path fill="#10167F" d="M289.5,83.7l-37.1,20.6c-1.7-0.9-3.6-1.4-5.6-1.4c-2,0-4,0.5-5.6,1.4L204,83.7c-3.5-1.9-7.9-0.7-9.9,2.8
					c-1.9,3.5-0.7,7.9,2.8,9.9l37.9,21c1.1,5.6,6,9.8,11.9,9.8c5.9,0,10.9-4.2,11.9-9.8l37.9-21c3.5-1.9,4.8-6.4,2.8-9.9
					C297.5,83,293,81.8,289.5,83.7z"/>
			</g>
		</g>
	</g>
</g>
<rect x="190" y="231.1" fill="#FFFFFF" width="161.5" height="89.7"/>
<g>
	<polygon fill="#FFFFFF" points="4.1,306.6 5.1,144.6 5.1,95.7 12.3,85.5 40.2,83.2 136.1,84.4 163,112.6 210.4,153.9 210.4,339.2 
		206.9,349.2 199.4,354.1 32,354.1 15.1,351.3 8.7,347.7 4.1,341 	"/>
	<g>
		<path d="M212.9,148.7L143.5,79c-2.7-2.7-5.3-2.5-5.3-2.5H26.7C12,76.5,0,88.5,0,103.2v230C0,348,12,360,26.7,360h162
			c14.7,0,26.7-12,26.7-26.7c0,0,0-175.3,0-177.9C215.5,152.8,214.7,150.5,212.9,148.7z M146.1,106.5l39.5,39.6h-33.1
			c-3.5,0-6.4-2.9-6.4-6.4L146.1,106.5L146.1,106.5z M206,342.1c0,3.9-3.2,7.1-7.1,7.1h-181c-3.9,0-7.1-3.2-7.1-7.1V94.4
			c0-3.9,3.2-7.1,7.1-7.1l114,0.7v52.5c0,13.2,7.4,19.2,20.6,19.2l53.6,0.7V342.1L206,342.1z"/>
		<path d="M28,191.8h88.7c7.4,0-7.6-32.4-7.6-32.4c-0.8-1.9-2.7-3.1-4.6-3.9l-16.6-5.8l-6-5.1l-9.5,9.5l4.3,28.5
			c0,0.1,0,0.2-0.1,0.3l-4.6,6.2c-0.1,0.1-0.2,0.2-0.3,0.2c-0.1,0-0.2-0.1-0.3-0.2l-4.6-6.2c-0.1-0.1-0.1-0.2-0.1-0.3l4.3-28.5
			l-9.5-9.5l-6,5.1l-16.6,5.8c-1.9,0.8-3.6,1.7-4.6,3.9C34.2,159.4,20.6,191.8,28,191.8z"/>
		<line fill="none" stroke="#000000" stroke-width="7.5819" stroke-miterlimit="10" x1="25.8" y1="204.6" x2="192" y2="204.6"/>
		<line fill="none" stroke="#000000" stroke-width="7.5819" stroke-miterlimit="10" x1="25.8" y1="218.1" x2="192" y2="218.1"/>
		<line fill="none" stroke="#000000" stroke-width="7.5819" stroke-miterlimit="10" x1="25.8" y1="233.7" x2="192" y2="233.7"/>
		<line fill="none" stroke="#000000" stroke-width="7.5819" stroke-miterlimit="10" x1="25.8" y1="276.3" x2="192" y2="276.3"/>
		<line fill="none" stroke="#000000" stroke-width="7.5819" stroke-miterlimit="10" x1="25.8" y1="291.9" x2="192" y2="291.9"/>
		<line fill="none" stroke="#000000" stroke-width="5.9466" stroke-miterlimit="10" x1="25.8" y1="250.6" x2="128" y2="250.6"/>
		<line fill="none" stroke="#000000" stroke-width="5.9466" stroke-miterlimit="10" x1="25.8" y1="263.4" x2="128" y2="263.4"/>
		<line fill="none" stroke="#000000" stroke-width="6.6348" stroke-miterlimit="10" x1="25.8" y1="306.6" x2="153.1" y2="306.6"/>
		<line fill="none" stroke="#000000" stroke-width="6.6348" stroke-miterlimit="10" x1="25.8" y1="319.4" x2="153.1" y2="319.4"/>
	</g>
</g>
<circle cx="69.6" cy="133.3" r="20.3"/>
<g>
	<rect x="171.4" y="223.2" fill="#FFFFFF" width="173.8" height="87.5"/>
	<g>
		<rect x="187.3" y="240.2" width="72.2" height="11.5"/>
		<path fill="#7C81B8" d="M307.3,312.5c1.3-1.9,3.4-3.8,5.5-5.5H178.2v-78h162.5v42.2l10.4-5.5v-58.2H167.8v109.9H304L307.3,312.5z"
			/>
		<rect x="187.3" y="260.5" width="131.1" height="11.6"/>
		<path fill="#FF9600" d="M356.3,271.7l-28.2,14.9l-6.7,21l6.3,4.1l14.7-22.1c-0.8-1.2-0.9-2.9,0-4.2c1.2-1.7,3.5-2.2,5.2-1.1
			c1.7,1.2,2.2,3.5,1.1,5.2c-0.8,1.3-2.3,1.8-3.7,1.6l-14.7,22.1l6.5,4.2l16.9-13.9L356.3,271.7L356.3,271.7z"/>
		<path fill="#FE230A" d="M310.1,318.9c-2.3,3.5-16.5,24.7-16.5,24.7l10.1,6.7l3,2l4.1,2.7l3,2c0,0,14.2-21.4,16.4-24.7
			c2.2-3.3,3.9-12.4,3.9-12.4l-13.9-9.3C320.2,310.7,312.4,315.4,310.1,318.9z"/>
	</g>
</g>
</svg>
