<?xml version="1.0" encoding="utf-8"?>
<!-- Generator: Adobe Illustrator 18.1.1, SVG Export Plug-In . SVG Version: 6.00 Build 0)  -->
<svg version="1.1" id="Layer_3" xmlns="http://www.w3.org/2000/svg" xmlns:xlink="http://www.w3.org/1999/xlink" x="0px" y="0px"
	 viewBox="0 0 360 360" enable-background="new 0 0 360 360" xml:space="preserve">
<g>
	<g>
		<path d="M321,93.8L234.8,7.2c-3.3-3.3-6.6-3.2-6.6-3.2H89.5C71.2,4,56.3,18.9,56.3,37.2v286c0,18.3,14.9,33.2,33.2,33.2H291
			c18.3,0,33.2-14.9,33.2-33.2c0,0,0-217.9,0-221.1C324.2,98.8,323.2,96,321,93.8z M237.9,41.3l49,49.3h-41.1
			c-4.4,0-7.9-3.5-7.9-7.9L237.9,41.3L237.9,41.3z M312.4,334.1c0,4.9-4,8.8-8.8,8.8h-225c-4.9,0-8.8-4-8.8-8.8V26.3
			c0-4.9,4-8.8,8.8-8.8l141.7,0.8v65.2c0,16.4,9.1,23.9,25.6,23.9l66.6,0.8V334.1L312.4,334.1z"/>
		<path d="M91.1,147.4h110.2c9.2,0-9.4-40.3-9.4-40.3c-1-2.4-3.4-3.8-5.7-4.9L165.5,95l-7.5-6.3l-11.9,11.8l5.3,35.4
			c0,0.1,0,0.3-0.1,0.4l-5.7,7.8c-0.1,0.1-0.2,0.2-0.4,0.2c-0.2,0-0.3-0.1-0.4-0.2l-5.7-7.8c-0.1-0.1-0.1-0.2-0.1-0.4l5.3-35.4
			l-11.9-11.8l-7.5,6.3l-20.6,7.2c-2.3,0.9-4.5,2.1-5.7,4.9C98.8,107.1,81.9,147.4,91.1,147.4z"/>
		<line fill="none" stroke="#000000" stroke-width="9.4247" stroke-miterlimit="10" x1="88.3" y1="163.2" x2="295" y2="163.2"/>
		<line fill="none" stroke="#000000" stroke-width="9.4247" stroke-miterlimit="10" x1="88.3" y1="180" x2="295" y2="180"/>
		<line fill="none" stroke="#000000" stroke-width="9.4247" stroke-miterlimit="10" x1="88.3" y1="199.4" x2="295" y2="199.4"/>
		<line fill="none" stroke="#000000" stroke-width="9.4247" stroke-miterlimit="10" x1="88.3" y1="252.4" x2="295" y2="252.4"/>
		<line fill="none" stroke="#000000" stroke-width="9.4247" stroke-miterlimit="10" x1="88.3" y1="271.7" x2="295" y2="271.7"/>
		<line fill="none" stroke="#000000" stroke-width="7.392" stroke-miterlimit="10" x1="88.3" y1="220.4" x2="215.5" y2="220.4"/>
		<line fill="none" stroke="#000000" stroke-width="7.392" stroke-miterlimit="10" x1="88.3" y1="236.4" x2="215.5" y2="236.4"/>
		<line fill="none" stroke="#000000" stroke-width="8.2474" stroke-miterlimit="10" x1="88.3" y1="290" x2="246.6" y2="290"/>
		<line fill="none" stroke="#000000" stroke-width="8.2474" stroke-miterlimit="10" x1="88.3" y1="306" x2="246.6" y2="306"/>
	</g>
</g>
<circle cx="145" cy="67.5" r="25.9"/>
</svg>
