<?xml version="1.0" encoding="utf-8"?>
<!-- Generator: Adobe Illustrator 18.1.1, SVG Export Plug-In . SVG Version: 6.00 Build 0)  -->
<svg version="1.1" id="Layer_3" xmlns="http://www.w3.org/2000/svg" xmlns:xlink="http://www.w3.org/1999/xlink" x="0px" y="0px"
	 viewBox="0 0 360 360" enable-background="new 0 0 360 360" xml:space="preserve">
<g>
	<path fill="#11D400" d="M303.4,80.1c20.1-28.2,28-56.2,28.4-57.4c0.9-3.3,0.3-6.8-1.6-9.6c-1.9-2.8-5-4.6-8.4-4.9
		c-11.9-1.1-23.2-1.6-33.7-1.6c-52.8,0-88.5,13.5-106.1,40.1c-18.3,27.8-10.9,60.8-5.2,77.4c0,0,0,0,0,0c-3.5-2.9-7.2-5.1-10.7-6.8
		c-4.7-25.3-21.1-50.9-55.4-50.9c-20.7,0-46.2,9.5-75.7,28.2c-2.1,1.3-3.5,3.5-3.8,5.9c-0.3,2.4,0.5,4.9,2.1,6.7
		c1.5,1.6,37.6,40,85,40c11.8,0,23.2-2.4,34.2-7.1c2.9,1,11.2,4.6,13.6,12.5c-2.1,9.4-3.5,19.7-4,30.7H57.3
		c-7.1,0-12.9,5.8-12.9,12.9v13.5c0,7.1,5.8,12.9,12.9,12.9h8.8L84.5,349c0.9,6.3,6.4,11,12.8,11h165.5c6.4,0,11.8-4.7,12.8-11
		L294,222.7h8.8c7.1,0,12.9-5.8,12.9-12.9v-13.5c0-7.1-5.8-12.9-12.9-12.9H188.2c1-19.4,5-35,10.5-44.8
		C240.2,138.4,276.4,118.1,303.4,80.1z M53,103.1c22.8-13.3,42.1-20,57.6-20c21.3,0,31.4,13.4,36.1,26.1c-0.7-0.4-1.4-0.8-2.1-1.2
		c-7-3.8-16.7-7.9-26.8-10.2c-2.5-0.6-5.1-1-7.6-1.4c-1.3-0.2-2.5-0.3-3.7-0.4c-1.2-0.1-2.5-0.2-3.7-0.3c-1.2,0-2.4-0.1-3.5-0.1
		c-1.2,0-2.3,0.1-3.4,0.1c-2.2,0.1-4.2,0.3-6.1,0.6c-0.9,0.1-1.8,0.3-2.7,0.4c-0.8,0.2-1.6,0.3-2.4,0.4c-1.5,0.4-2.8,0.6-3.8,0.9
		c-2.1,0.6-3.3,1-3.3,1s1.2-0.1,3.4-0.3c1.1-0.1,2.4-0.1,3.9-0.1c0.7,0,1.5,0,2.4,0.1c0.8,0,1.7,0.1,2.6,0.1
		c1.8,0.1,3.8,0.4,5.8,0.7c1,0.2,2.1,0.4,3.1,0.6c1.1,0.2,2.1,0.5,3.2,0.8c1.1,0.3,2.2,0.6,3.3,0.9c1.1,0.4,2.2,0.7,3.3,1.1
		c2.2,0.8,4.4,1.7,6.5,2.7c8.6,4,16.4,9.4,21.6,14c2.7,2.3,4.7,4.3,6.1,5.7c0.2,0.2,0.4,0.4,0.6,0.6c-8.2,3.2-16.6,4.8-25.2,4.8
		C89.7,130.8,64.9,113.2,53,103.1z M201.1,59.4c13.1-19.8,42.3-29.8,87-29.8c5.4,0,11,0.2,16.8,0.5c-10.5,25.6-39.3,79.2-96.6,85.2
		c0.1-0.3,0.2-0.7,0.3-1.1c0.8-2.6,2.1-6.4,3.9-10.8c0.9-2.2,2-4.6,3.2-7.1c1.2-2.5,2.5-5.1,4-7.8c1.5-2.7,3.1-5.3,4.9-8
		c0.9-1.3,1.8-2.7,2.7-4l1.4-2l1.5-1.9c2-2.6,4.1-5.1,6.3-7.5c1.1-1.2,2.2-2.3,3.4-3.5c1.2-1.1,2.3-2.2,3.4-3.2c1.2-1,2.3-2,3.5-3
		c1.2-0.9,2.3-1.8,3.5-2.7c1.2-0.8,2.3-1.6,3.4-2.4c1.1-0.8,2.2-1.4,3.3-2.1c0.5-0.3,1.1-0.7,1.6-1c0.5-0.3,1-0.6,1.5-0.9
		c1-0.6,2-1.1,2.9-1.6c1.9-0.9,3.5-1.7,4.8-2.3c2.8-1.2,4.3-1.8,4.3-1.8s-1.7,0.3-4.6,0.9c-1.5,0.3-3.2,0.8-5.3,1.3
		c-1,0.3-2.1,0.6-3.2,1c-0.6,0.2-1.2,0.4-1.8,0.5c-0.6,0.2-1.2,0.4-1.8,0.6c-1.2,0.5-2.5,0.9-3.8,1.4c-1.3,0.6-2.7,1.1-4,1.7
		c-1.4,0.7-2.8,1.3-4.2,2c-1.4,0.8-2.8,1.5-4.3,2.3c-1.4,0.9-2.9,1.7-4.3,2.6c-1.4,1-2.9,1.9-4.3,2.9c-2.9,2-5.7,4.2-8.4,6.5
		c-2.8,2.3-5.4,4.7-7.9,7.2c-2.5,2.5-4.9,5-7.1,7.6c-2.3,2.5-4.3,5.1-6.2,7.5c-1.9,2.5-3.6,4.9-5.2,7.1c-0.6,0.9-1.2,1.7-1.7,2.6
		C192.4,83.6,194,70.2,201.1,59.4z"/>
</g>
<g>
	<g>
		<path fill="#003C00" d="M334.9,353.7c-0.1-0.1-0.1-0.3-0.1-0.4c-4.8-14.6-18.3-24.4-33.6-24.4c-5.5,0-10.8,1.3-15.6,3.6
			c-0.5-0.5-1-0.9-1.5-1.4c-7-6.1-15.8-9.7-24.9-10.5v-13.5c2.7-1.3,6.5-1.5,10.8-1.8c8.6-0.5,19.4-1.2,28.5-11.1
			c11.7-12.8,14.2-36.1,11.7-41.9c-0.9-2-2.3-2.3-3.1-2.3c-0.8,0-1.5,0.3-2.2,0.8c-2.4,1.9-6.6,2.1-11.5,2.4
			c-8.6,0.5-19.3,1-28.2,10.7c-2.4,2.6-4.4,5.7-6.1,8.9v-31.3c2.2-2.3,5.5-4.3,9.2-6.5c8.5-5.2,19.2-11.6,23.1-26.6
			c4.6-17.5-3.2-39.9-8.7-47.1c-1.5-2-3-3-4.4-3c-0.6,0-2.2,0.2-3.1,2.2c-1.5,3.3-5.7,5.9-10.7,8.8c-8.5,5.1-19.2,11.4-23,25.9
			c-4.8,18.3,3.5,39.7,8.8,46.5c0.1,0.2,0.3,0.3,0.4,0.5v17c-1.6-5.8-4.5-11.8-10.9-17c-9.6-7.9-24.2-10.7-33.7-10.7
			c-9.2,0-10.3,2.4-10.7,3.2c-0.2,0.5-0.7,2,0.7,3.5c2,2.3,2.5,6.5,3,11.4c0.9,8.6,2.1,19.2,12.2,27.5c9.5,7.7,23.2,10.5,32.9,10.5
			c2.6,0,4.7-0.2,6.4-0.5v33.7c-8.8,1-17.2,4.6-23.9,10.4c-0.5,0.4-1,0.9-1.5,1.4c-4.7-2.3-10-3.6-15.6-3.6
			c-7.3,0-14.3,2.2-20.2,6.4c-5.8,4.1-10.2,9.7-12.8,16.3c-1,2.5-0.9,4.6,0.2,6.1c1,1.5,2.8,2.3,5.3,2.3h29.6h33.2h20.9H299h31.8
			c1.9,0,3.2-0.6,4-1.7C336,356.7,335.2,354.7,334.9,353.7z M241.6,273.7c-0.1-0.1-0.2-0.2-0.3-0.3l-0.2-0.2l0,0l0,0
			c0,0,0.1,0.1,0,0l0,0l-0.1-0.1c-0.2-0.2-0.4-0.4-0.6-0.6c-0.5-0.4-0.9-0.7-1.4-1.1c-2-1.4-4.2-2.8-6.7-4c-2.4-1.3-5-2.6-7.5-4.1
			c-1.2-0.7-2.4-1.6-3.4-2.4c-1-0.9-2-1.8-2.7-2.7c-0.7-1-1.3-1.9-1.7-2.8c-0.1-0.2-0.2-0.4-0.3-0.7c-0.1-0.2-0.1-0.4-0.2-0.6
			c-0.1-0.4-0.2-0.8-0.2-1.1c0-0.4-0.1-0.7-0.1-0.9c0-0.3,0-0.5,0-0.7c0-0.4,0-0.5,0-0.5s0.1,0.2,0.3,0.5c0.1,0.1,0.2,0.3,0.4,0.5
			c0.1,0.2,0.3,0.4,0.5,0.7c0.2,0.2,0.4,0.5,0.7,0.8c0.3,0.3,0.5,0.6,0.8,0.8c0.6,0.6,1.3,1.1,2.2,1.6c0.8,0.5,1.8,1,2.8,1.5
			c1,0.5,2.2,1,3.4,1.5c2.4,1,5.1,2.1,7.8,3.5c1.3,0.7,2.7,1.5,3.9,2.4c1.3,0.9,2.5,1.9,3.5,3c0.5,0.5,1,1.1,1.5,1.7
			c0.2,0.3,0.4,0.6,0.6,0.9l0.1,0.1l0,0c0,0,0.1,0.1,0,0.1l0,0l0,0.1l0.1,0.2c0.1,0.1,0.2,0.3,0.2,0.4c0.7,1.1,1.2,2.1,1.8,3.1
			c0.3,0.5,0.5,0.9,0.7,1.4c0.2,0.5,0.4,0.9,0.6,1.3c0.4,0.8,0.7,1.6,1,2.2c0.5,1.2,0.7,2,0.7,2s-0.6-0.4-1.7-1.2
			c-1-0.8-2.4-2-4.1-3.5C243.4,275.4,242.5,274.6,241.6,273.7z M255.5,235.7c0.2-0.7,0.5-1.6,0.9-2.5c0.4-1,0.8-2,1.3-3.2
			c0.5-1.2,1-2.4,1.6-3.8c0.1-0.2,0.1-0.3,0.2-0.5l0.1-0.3l0-0.1l0,0c0,0-0.1,0.1,0,0l0,0l0-0.1c0.1-0.3,0.2-0.6,0.4-1
			c0.2-0.7,0.4-1.3,0.6-2c0.8-2.8,1.3-5.8,1.6-9c0.4-3.2,0.6-6.6,1.2-9.8c0.3-1.6,0.6-3.2,1.1-4.7c0.5-1.5,1-2.9,1.7-4.1
			c0.7-1.2,1.4-2.3,2.2-3c0.2-0.2,0.4-0.4,0.6-0.6c0.2-0.2,0.4-0.3,0.6-0.5c0.4-0.3,0.7-0.5,1.1-0.8c0.3-0.2,0.7-0.4,0.9-0.5
			c0.3-0.1,0.5-0.2,0.7-0.3c0.4-0.1,0.6-0.2,0.6-0.2s-0.1,0.2-0.4,0.5c-0.1,0.2-0.3,0.4-0.5,0.6c-0.2,0.2-0.3,0.5-0.5,0.8
			c-0.2,0.3-0.4,0.6-0.6,1c-0.2,0.4-0.4,0.8-0.6,1.2c-0.1,0.2-0.2,0.4-0.3,0.7c-0.1,0.2-0.2,0.5-0.2,0.7c-0.1,0.2-0.1,0.5-0.2,0.8
			c-0.1,0.3-0.1,0.5-0.2,0.8c-0.3,1.1-0.4,2.4-0.6,3.7c-0.1,1.3-0.2,2.8-0.2,4.3c-0.1,3-0.2,6.4-0.5,9.9c-0.2,1.7-0.5,3.5-0.9,5.2
			c-0.4,1.7-1,3.4-1.7,5c-0.3,0.8-0.7,1.5-1.1,2.3c-0.2,0.4-0.4,0.7-0.6,1.1l-0.1,0.1l0,0l0,0.1l0,0l0,0.1l-0.2,0.2
			c-0.1,0.1-0.2,0.3-0.3,0.4c-0.9,1.2-1.7,2.3-2.5,3.3c-0.4,0.5-0.8,1-1.2,1.4c-0.4,0.4-0.7,0.9-1.1,1.3c-0.7,0.8-1.3,1.4-1.9,2
			c-1.1,1.1-1.7,1.7-1.7,1.7S255,237.1,255.5,235.7z M267,294.1L267,294.1L267,294.1c0.3-0.3,0.5-0.5,0.7-0.7
			c0.4-0.4,0.8-0.8,1.2-1.3c1.7-1.8,3.2-3.9,4.8-6.2c1.6-2.3,3.1-4.7,4.9-7c0.9-1.1,1.8-2.2,2.8-3.1c1-0.9,2-1.8,3-2.4
			c1-0.6,2.1-1.1,3-1.4c0.2-0.1,0.5-0.1,0.7-0.2c0.2-0.1,0.4-0.1,0.6-0.1c0.4-0.1,0.8-0.1,1.1-0.1c0.4,0,0.7,0,0.9,0
			c0.3,0,0.5,0.1,0.6,0.1c0.4,0.1,0.5,0.1,0.5,0.1s-0.2,0.1-0.5,0.3c-0.2,0.1-0.4,0.2-0.6,0.3c-0.2,0.1-0.4,0.3-0.7,0.4
			c-0.3,0.2-0.5,0.4-0.8,0.6c-0.3,0.2-0.6,0.4-0.9,0.7c-0.6,0.5-1.2,1.2-1.9,2c-0.6,0.8-1.2,1.6-1.8,2.6c-0.6,1-1.2,2.1-1.8,3.2
			c-1.3,2.3-2.6,4.8-4.3,7.4c-0.8,1.3-1.8,2.5-2.8,3.6c-1,1.2-2.1,2.2-3.3,3.2c-0.6,0.5-1.2,0.9-1.8,1.3c-0.3,0.2-0.6,0.4-0.9,0.5
			l-0.1,0.1l0,0c0,0-0.1,0-0.1,0l0,0l-0.1,0l-0.2,0.1c-0.1,0.1-0.3,0.1-0.4,0.2c-1.1,0.5-2.2,1-3.2,1.4c-0.5,0.2-1,0.4-1.5,0.6
			c-0.5,0.2-0.9,0.3-1.4,0.5c-0.9,0.3-1.6,0.5-2.3,0.7c-1.3,0.4-2,0.5-2,0.5s0.5-0.6,1.4-1.5c0.9-0.9,2.3-2.2,3.9-3.7
			c0.8-0.7,1.7-1.5,2.7-2.3c0.1-0.1,0.2-0.2,0.4-0.3L267,294.1L267,294.1L267,294.1C267,294.1,266.9,294.2,267,294.1z"/>
	</g>
</g>
<circle fill="#FFF900" cx="94.9" cy="251.7" r="22.1"/>
<g>
	<path fill="#007D00" d="M94.9,360c38.3,0,69.4-31.1,69.4-69.4C126,290.6,94.9,321.7,94.9,360z M45.5,269.4
		c0,10.6,8.6,19.3,19.3,19.3c4.1,0,7.8-1.2,10.9-3.4l-0.2,1.5c0,10.6,8.6,19.3,19.3,19.3c10.6,0,19.3-8.6,19.3-19.3l-0.1-1.5
		c3.1,2.1,6.9,3.4,10.9,3.4c10.6,0,19.3-8.6,19.3-19.3c0-7.7-4.5-14.3-11-17.4c6.5-3.1,11-9.6,11-17.3c0-10.7-8.6-19.3-19.3-19.3
		c-4.1,0-7.8,1.2-10.9,3.4l0.1-1.5c0-10.6-8.6-19.3-19.3-19.3s-19.3,8.6-19.3,19.3l0.2,1.5c-3.1-2.1-6.9-3.4-11-3.4
		c-10.6,0-19.3,8.6-19.3,19.3c0,7.7,4.5,14.3,11,17.3C50.1,255.1,45.5,261.7,45.5,269.4z M94.9,232.7c10.6,0,19.3,8.6,19.3,19.3
		c0,10.7-8.6,19.3-19.3,19.3s-19.3-8.6-19.3-19.3C75.6,241.4,84.2,232.7,94.9,232.7z M25.5,290.6c0,38.3,31.1,69.4,69.4,69.4
		C94.9,321.7,63.8,290.6,25.5,290.6z"/>
</g>
</svg>
