<?xml version="1.0" encoding="utf-8"?>
<!-- Generator: Adobe Illustrator 18.1.1, SVG Export Plug-In . SVG Version: 6.00 Build 0)  -->
<svg version="1.1" id="Layer_3" xmlns="http://www.w3.org/2000/svg" xmlns:xlink="http://www.w3.org/1999/xlink" x="0px" y="0px"
	 viewBox="0 0 360 360" enable-background="new 0 0 360 360" xml:space="preserve">
<g>
	<g>
		<path fill="#FE230A" d="M119.3,88.2c19.4,4.1,38.4-8.2,42.6-27.5c0.9-4.3,1-8.6,0.4-12.7l19.7-42.4l-27.3,7l-35-7l-5.4,14.1l0,0
			c-11.1,4.2-19.8,13.6-22.5,26C87.6,65,99.9,84,119.3,88.2z"/>
		<circle fill="#FE230A" cx="254.7" cy="99.1" r="33.8"/>
		<path fill="#FE230A" d="M345.6,338.5l-1.3-4.8l-27.9,12.9c2.3,8,10.5,12.7,18.5,10.5C343,354.9,347.8,346.6,345.6,338.5z"/>
		<polygon fill="#FE230A" points="341.8,324.2 311.5,328.4 314.8,340.8 342.8,327.9 		"/>
		<path fill="#FE230A" d="M337.2,307.3l-26.6,11.3c0-0.1,0.1-0.2,0.1-0.2c0.1-0.8,0.1-1.5,0.2-2.3c0.1-1.5,0.4-2.9,0.7-4.3
			l24.1-10.2l-15.6-59.4c-0.5-2-1.5-3.9-2.7-5.4c0.2,0,0.3,0,0.5,0c7.2,0,13.1-5.9,13.1-13.1c0-7.2-5.9-13.1-13.1-13.1
			c-19.8,0-32.5-8.2-39.1-49.9c-0.2-0.9-0.4-1.9-0.7-2.7c-1.6-12.2-12.8-20.3-23.2-22.9c0,0-3.6-1.1-7.3-1c-3.6,0.1-7.7,0.9-7.7,0.9
			l-0.1,0c-11.4,2.8-23.5,12.1-23.5,26l0,67.7l-9.9-70.4c-0.8-5.9-6.2-10-12.1-9.2c-5.9,0.8-10,6.2-9.2,12.1l0.6,4.1
			c-41.2-5.7-42.1-11.7-47.3-48.4c-0.1-0.6-0.3-1.1-0.4-1.6c-1.1-11.1-9.8-20.3-19-24.7c0,0-3.5-1.9-7.4-2.6
			c-3.8-0.7-8.1-0.7-8.1-0.7l-0.1,0c-12.4,0.4-27,7.3-30.1,21.7L13.9,259.8h35.4c-0.9,6.7-1.7,11.7-2.3,13.7
			c-1.6,5-13.6,23.8-25.9,40.1c-6,8-6.2,18.5,1.9,24.6c8.6,5.3,17.3,2,20.9-2.8c6.3-8.4,27-36.8,31.5-51.2
			c1.4-4.5,2.9-13.7,4.2-24.5H105c2.7,7,4.5,12.3,5,14.5c1,5.2-0.5,27.4-3.4,47.6c-1.4,9.9,3.5,21.5,15.5,20.6
			c0.9-0.1-1.9,0.2-1.1,0.2c8.9,0,16.7-6.6,18-15.6c1.5-10.3,6-45.3,3-60c-0.4-1.9-1.1-4.4-2-7.3h14.6c0,0-29.3-62.5-28.6-84.4
			l1-4.8c10,11.7,26.5,18.3,55.9,22.4c0.6,0.1,1.3,0.1,1.9,0.1c1.5,0,3-0.3,4.4-0.8l8.8,63.3c-5.8,9.7-9.2,21.1-9.2,33.2
			c0,35.7,29,64.8,64.8,64.8c23.6,0,44.3-12.7,55.6-31.6l0,0c0.1-0.2,0.2-0.5,0.3-0.7l0.4,1.5l30.3-4.2L337.2,307.3z M270.7,216.5
			c6.8,6,14.4,11.2,22.9,15.4l-22.9-0.1V216.5z M253.6,331.4c-23.5,0-42.7-19.1-42.7-42.7c0-5.3,1-10.5,2.8-15.2
			c0.8,0.1,1.5,0.2,2.3,0.2h77.4c1.8,4.7,2.8,9.7,2.8,15C296.3,312.2,277.2,331.4,253.6,331.4z"/>
	</g>
	<g>
		<g>
			<circle fill="#FF9600" cx="254.7" cy="99.1" r="33.8"/>
			<path fill="#FF9600" d="M345.6,338.5l-1.3-4.8l-27.9,12.9c2.3,8,10.5,12.7,18.5,10.5C343,354.9,347.8,346.6,345.6,338.5z"/>
			<polygon fill="#FF9600" points="341.8,324.2 311.5,328.4 314.8,340.8 342.8,327.9 			"/>
			<path fill="#FF9600" d="M189.2,192.3l8.8,63.3c-5.8,9.7-9.2,21.1-9.2,33.2c0,35.7,29,64.8,64.8,64.8c23.6,0,44.3-12.7,55.6-31.6
				l0,0c0.1-0.2,0.2-0.5,0.3-0.7l0.4,1.5l30.3-4.2l-3-11.1l-26.6,11.3c0-0.1,0.1-0.2,0.1-0.2c0.1-0.8,0.1-1.5,0.2-2.3
				c0.1-1.5,0.4-2.9,0.7-4.3l24.1-10.2l-15.6-59.4c-0.5-2-1.5-3.9-2.7-5.4c0.2,0,0.3,0,0.5,0c7.2,0,13.1-5.9,13.1-13.1
				c0-7.2-5.9-13.1-13.1-13.1c-19.8,0-32.5-8.2-39.1-49.9c-0.2-0.9-0.4-1.9-0.7-2.7c-1.6-12.2-12.8-20.3-23.2-22.9
				c0,0-3.6-1.1-7.3-1c-3.6,0.1-7.7,0.9-7.7,0.9l-0.1,0c-11.4,2.8-23.5,12.1-23.5,26l0,67.7l-9.9-70.4c-0.8-5.9-6.2-10-12.1-9.2
				c-5.9,0.8-10,6.2-9.2,12.1l0.6,4.1 M270.7,216.5c6.8,6,14.4,11.2,22.9,15.4l-22.9-0.1V216.5z M253.6,331.4
				c-23.5,0-42.7-19.1-42.7-42.7c0-5.3,1-10.5,2.8-15.2c0.8,0.1,1.5,0.2,2.3,0.2h77.4c1.8,4.7,2.8,9.7,2.8,15
				C296.3,312.2,277.2,331.4,253.6,331.4z"/>
		</g>
	</g>
</g>
</svg>
