<?xml version="1.0" encoding="utf-8"?>
<!-- Generator: Adobe Illustrator 18.1.1, SVG Export Plug-In . SVG Version: 6.00 Build 0)  -->
<svg version="1.1" id="Layer_3" xmlns="http://www.w3.org/2000/svg" xmlns:xlink="http://www.w3.org/1999/xlink" x="0px" y="0px"
	 viewBox="0 0 360 360" enable-background="new 0 0 360 360" xml:space="preserve">
<polygon fill="#FF9600" points="11,45 8,246.5 14.5,262 28.3,264.5 97.5,268 162.3,264.5 176.5,258 180,248.5 180,45 175.5,34.5 
	162.3,29 137.5,29 139,74 53.5,73.5 53.2,29.4 20.5,29 "/>
<rect x="31.8" y="114.3" fill="#7C81B8" width="27.3" height="28.8"/>
<rect x="31.8" y="162.1" fill="#7C81B8" width="27.3" height="28.8"/>
<rect x="31.8" y="209.1" fill="#7C81B8" width="27.3" height="28.8"/>
<g>
	<g>
		<path fill="#010002" d="M159.3,19.2h-36.7v-6.2c0-7.2-5.9-13.1-13.1-13.1H79.7c-7.2,0-13.1,5.9-13.1,13.1v6.2H29.9
			c-16.7,0-30.2,13.5-30.2,30.2v196.3c0,16.6,13.5,30.2,30.2,30.2h129.4c16.6,0,30.2-13.5,30.2-30.2V49.4
			C189.5,32.7,176,19.2,159.3,19.2z M94.6,5.8c3.6,0,6.5,2.9,6.5,6.5c0,3.6-2.9,6.5-6.5,6.5c-3.6,0-6.5-2.9-6.5-6.5
			C88.1,8.7,91,5.8,94.6,5.8z M59.3,37.7H130v27.6H59.3V37.7z M159.3,258.6H29.9c-7.1,0-12.9-5.8-12.9-12.9V49.4
			c0-7.1,5.8-12.9,12.9-12.9h12.3v30.8c0,8.3,6.7,15,15.1,15h74.6c8.3,0,15-6.7,15-15V36.4h12.3c7.1,0,12.9,5.8,12.9,12.9v196.3h0
			C172.3,252.8,166.5,258.6,159.3,258.6z"/>
		<path fill="#010002" d="M64.9,111.3l-3,3.6c-1-2.6-3.5-4.4-6.5-4.4H35.3c-3.9,0-7,3.1-7,7v22.1c0,3.9,3.1,7,7,7h20.1
			c3.9,0,7-3.1,7-7v-11.8l9.1-10.9c1.5-1.8,1.3-4.5-0.5-6.1C69.1,109.2,66.4,109.5,64.9,111.3z M57.7,139.6L57.7,139.6
			c0,1.3-1.1,2.3-2.3,2.3H35.3c-1.3,0-2.3-1.1-2.3-2.3v-22.1c0-1.3,1-2.3,2.3-2.3h20.1c1.3,0,2.3,1,2.3,2.3v2.4l-5.8,6.9
			c-1.5,1.8-4.2,2-5.9,0.4l-3.6-3.3c-1.7-1.6-4.5-1.5-6.1,0.2c-1.6,1.7-1.5,4.5,0.2,6.1l10.1,9.3c0.8,0.7,1.9,1.2,2.9,1.2
			c0.1,0,0.2,0,0.3,0c1.2-0.1,2.3-0.6,3-1.5l4.9-5.8C57.7,133.3,57.7,139.6,57.7,139.6z"/>
		<path fill="#010002" d="M64.9,158.2l-3.3,4c-1.2-2.2-3.5-3.8-6.2-3.8H35.3c-3.9,0-7,3.1-7,7v22.1c0,3.9,3.1,7,7,7h20.1
			c3.9,0,7-3.1,7-7v-12.8l9.1-10.9c1.5-1.8,1.3-4.5-0.5-6.1C69.1,156.1,66.4,156.4,64.9,158.2z M57.7,187.5L57.7,187.5
			c0,1.3-1.1,2.3-2.3,2.3H35.3c-1.3,0-2.3-1-2.3-2.3v-22.1c0-1.3,1-2.3,2.3-2.3h20.1c1.3,0,2.3,1.1,2.3,2.3v1.4l-5.8,6.9
			c-1.5,1.8-4.2,2-5.9,0.4l-3.6-3.3c-1.7-1.6-4.5-1.5-6.1,0.2c-1.6,1.7-1.5,4.5,0.2,6.1l10.1,9.3c0.8,0.7,1.9,1.2,2.9,1.2
			c0.1,0,0.2,0,0.3,0c1.2-0.1,2.3-0.6,3-1.5l4.9-5.8C57.7,180.2,57.7,187.5,57.7,187.5z"/>
		<path fill="#010002" d="M64.9,205.4l-3.5,4.1c-1.2-2.1-3.4-3.6-6-3.6H35.3c-3.9,0-7,3.1-7,7V235c0,3.8,3.1,7,7,7h20.1
			c3.9,0,7-3.1,7-7v-13.3l9.1-10.9c1.5-1.8,1.3-4.5-0.5-6.1C69.1,203.3,66.4,203.5,64.9,205.4z M57.7,235L57.7,235
			c0,1.3-1.1,2.3-2.3,2.3H35.3c-1.3,0-2.3-1.1-2.3-2.3v-22.1c0-1.3,1-2.3,2.3-2.3h20.1c1.3,0,2.3,1,2.3,2.3v1l-5.8,6.9
			c-1.5,1.8-4.2,2-5.9,0.4l-3.6-3.3c-1.7-1.6-4.5-1.5-6.1,0.2c-1.6,1.7-1.5,4.5,0.2,6.1l10.1,9.4c0.8,0.7,1.9,1.2,2.9,1.2
			c0.1,0,0.2,0,0.3,0c1.2-0.1,2.3-0.6,3-1.5l4.9-5.8C57.7,227.4,57.7,235,57.7,235z"/>
		<path fill="#10167F" d="M158,125.6H88.3c-2.4,0-4.3,1.9-4.3,4.3c0,2.4,1.9,4.3,4.3,4.3H158c2.4,0,4.3-1.9,4.3-4.3
			C162.3,127.5,160.4,125.6,158,125.6z"/>
		<path fill="#10167F" d="M158,167.8H88.3c-2.4,0-4.3,1.9-4.3,4.3c0,2.4,1.9,4.3,4.3,4.3H158c2.4,0,4.3-1.9,4.3-4.3
			C162.3,169.7,160.4,167.8,158,167.8z"/>
		<path fill="#10167F" d="M158,210.1H88.3c-2.4,0-4.3,1.9-4.3,4.3c0,2.4,1.9,4.3,4.3,4.3H158c2.4,0,4.3-1.9,4.3-4.3
			C162.3,212,160.4,210.1,158,210.1z"/>
	</g>
</g>
<g>
	<path fill="#FE230A" d="M175.8,280.1h61.1l9.6-45.2c0.5-2.3,2.5-3.9,4.9-3.9c2.3,0.1,4.3,1.8,4.7,4.1l8,51l5-15.9
		c0.6-1.9,2.2-3.2,4.1-3.4c1.9-0.2,3.8,0.8,4.7,2.5l7,12.4l68.5-0.5c2.7-5.3,4.8-11.2,5.8-17.6c2.8-18-1.9-36-12.4-48.3
		c-9.3-10.9-22.6-16.7-38.4-16.7c-24.5,0-38.4,16.5-43.5,23.9c-5-7.4-19-23.9-43.5-23.9c-15.8,0-29.1,5.8-38.4,16.7
		c-10.5,12.3-15.2,30.4-12.4,48.3C171.6,269.6,173.4,275.1,175.8,280.1z"/>
	<path fill="#FE230A" d="M282.2,291.5c-1.8,0-3.4-0.9-4.3-2.5l-2.9-5.1l-7.9,25c-0.6,2-2.5,3.4-4.6,3.4c-0.1,0-0.2,0-0.4,0
		c-2.3-0.2-4.1-1.9-4.4-4.1l-7.1-45.4l-4.9,23.3c-0.5,2.2-2.5,3.9-4.8,3.9h-59.1c11.6,15.8,29.5,26.4,43.8,34.9
		c7,4.2,13.7,8.1,18.3,11.9c17,13.9,18.6,20.9,18.7,21.2c0.1,1.2,1.2,2.2,2.4,2.2c1.3,0,2.3-0.9,2.4-2.2c0-0.1,1.3-7.1,18.7-21.2
		c4.6-3.8,11.2-7.7,18.3-11.9c14-8.3,31.4-18.6,43-33.8L282.2,291.5z"/>
</g>
</svg>
