<?xml version="1.0" encoding="utf-8"?>
<!-- Generator: Adobe Illustrator 18.1.1, SVG Export Plug-In . SVG Version: 6.00 Build 0)  -->
<svg version="1.1" xmlns="http://www.w3.org/2000/svg" xmlns:xlink="http://www.w3.org/1999/xlink" x="0px" y="0px"
	 viewBox="0 0 360 360" enable-background="new 0 0 360 360" xml:space="preserve">
<g id="Layer_2">
</g>
<g id="Layer_3">
	<g>
		<g>
			<g>
				<path fill="#FFFFFF" d="M202.8,279.3c-1.1,0-2-0.9-2-2v-57.4H158v57.4c0,1.1-0.9,2-2,2h-51.8c-1.1,0-2-0.9-2-2v-76.4H78.9
					c-0.6,0-1.4-0.3-1.8-1.1c-0.3-0.7-0.3-1.6,0.4-2.3L180.8,97.2c0.5-0.5,1-0.5,1.3-0.5c0.6,0,1.1,0.2,1.5,0.6l98.8,100.2
					c0.6,0.6,0.8,1.5,0.5,2.2c-0.3,0.7-1,1.2-1.8,1.2h-27.1v76.4c0,1.1-0.9,2-2,2H202.8z"/>
				<path d="M182.2,103.6l90.4,91.6h-12.9h-11.1v11.1v67.2h-42.2v-48.3v-11.1h-11.1h-31.6h-11.1v11.1v48.3h-44.7v-67.2v-11.1H96.6
					h-8.8L182.2,103.6 M182.1,91c-1.9,0-3.8,0.7-5.2,2.1L73.7,193.4c-2.3,2.1-2.9,5.4-1.8,8.3c1.1,2.9,3.9,4.7,7,4.7h17.7v70.8
					c0,4.2,3.4,7.6,7.6,7.6H156c4.2,0,7.6-3.4,7.6-7.6v-51.8h31.6v51.8c0,4.2,3.4,7.6,7.6,7.6h49.3c4.2,0,7.6-3.4,7.6-7.6v-70.8
					h21.5c3,0,5.8-1.9,7-4.7c1.1-2.8,0.5-6.1-1.6-8.2L187.6,93.3C186.1,91.8,184.1,91,182.1,91L182.1,91z"/>
			</g>
		</g>
	</g>
	<g>
		<path fill="#10167F" d="M358.6,45.8L308.3,1.5c-2.3-2.1-6.1-2.1-8.5,0l-50.3,44.3c-2.3,2.1-1.7,3.7,1.4,3.7h15.5v45.3
			c0,2.5,2,4.5,4.5,4.5h19V69.6c0-2.5,2-4.5,4.5-4.5h19.2c2.5,0,4.5,2,4.5,4.5v29.8h19c2.5,0,4.5-2,4.5-4.5V49.5h15.5
			C360.3,49.5,360.9,47.9,358.6,45.8z"/>
	</g>
	<g>
		<path fill="#10167F" d="M110.5,45.8L60.2,1.5c-2.3-2.1-6.1-2.1-8.5,0L1.4,45.8c-2.3,2.1-1.7,3.7,1.4,3.7h15.5v45.3
			c0,2.5,2,4.5,4.5,4.5h19V69.6c0-2.5,2-4.5,4.5-4.5h19.2c2.5,0,4.5,2,4.5,4.5v29.8h19c2.5,0,4.5-2,4.5-4.5V49.5h15.5
			C112.2,49.5,112.8,47.9,110.5,45.8z"/>
	</g>
	<g>
		<path fill="#10167F" d="M358.6,306.4l-50.3-44.3c-2.3-2.1-6.1-2.1-8.5,0l-50.3,44.3c-2.3,2.1-1.7,3.7,1.4,3.7h15.5v45.3
			c0,2.5,2,4.5,4.5,4.5h19v-29.8c0-2.5,2-4.5,4.5-4.5h19.2c2.5,0,4.5,2,4.5,4.5V360h19c2.5,0,4.5-2,4.5-4.5v-45.3h15.5
			C360.3,310.2,360.9,308.5,358.6,306.4z"/>
	</g>
	<g>
		<path fill="#10167F" d="M110.5,306.4l-50.3-44.3c-2.3-2.1-6.1-2.1-8.5,0L1.4,306.4c-2.3,2.1-1.7,3.7,1.4,3.7h15.5v45.3
			c0,2.5,2,4.5,4.5,4.5h19v-29.8c0-2.5,2-4.5,4.5-4.5h19.2c2.5,0,4.5,2,4.5,4.5V360h19c2.5,0,4.5-2,4.5-4.5v-45.3h15.5
			C112.2,310.2,112.8,308.5,110.5,306.4z"/>
	</g>
	<g opacity="0.35">
		<g>
			<path fill="#FF9600" d="M177.8,324.5c-8.4,0-15.1-2.4-20.5-7.2c-5.2-4.6-7.8-10.5-7.8-17.8c0-7.3,2.5-13.1,7.8-17.8
				c5.5-4.8,12.2-7.2,20.5-7.2c8.4,0,15.1,2.4,20.5,7.2c5.2,4.6,7.8,10.5,7.8,17.8c0,7.3-2.5,13.1-7.8,17.8
				C192.8,322.2,186.1,324.5,177.8,324.5z M157.2,236.5c0.4-14.2,2.3-25.6,5.6-34c3.7-9.4,9.7-17.7,18-24.7c9.5-8,16.9-15.5,22-22.2
				c5.6-7.5,8.5-15.9,8.5-25c0-30.1-19.2-34.6-30.7-34.6c-9.4,0-17.2,3.5-23,10.5c-4.4,5.2-7.2,11.9-8.3,19.8H99.1
				c1.4-19.9,8.3-35.2,21-46.7c14.1-12.7,34.4-19.1,60.4-19.1c26,0,46.2,5.9,60.1,17.6c13.8,11.6,20.5,27.8,20.5,49.6
				c0,9.3-1.8,17.8-5.5,25.3c-3.7,7.7-9.9,15.8-18.4,24L215.9,197c-6.8,6.5-11.5,13.3-14.2,20.3c-2,5.3-3.4,11.8-4,19.2H157.2z"/>
			<path d="M180.6,67c24.4,0,43.2,5.4,55.9,16.1c12.2,10.3,18.2,24.9,18.2,44.6c0,8.4-1.6,15.7-4.8,22.4c-3.4,7-9.1,14.4-17,22.1
				l-21.3,19.8l-0.1,0.1l-0.1,0.1c-7.4,7.1-12.8,14.8-15.8,22.7c-1.7,4.5-3,9.4-3.8,15H164c0.7-10.3,2.3-18.8,4.8-25.2
				c3.3-8.5,8.6-15.7,16.2-22c10.1-8.4,17.6-16,23-23.3c6.5-8.7,9.8-18.4,9.8-28.9c0-25.7-13.9-41.1-37.2-41.1
				c-11.3,0-21,4.4-28,12.8c-4.1,4.9-7,10.8-8.7,17.5h-37.5c2.2-14.8,8.2-26.4,18.1-35.3C137.3,72.9,156.2,67,180.6,67 M177.8,281.1
				c6.7,0,12,1.8,16.2,5.6c3.9,3.4,5.6,7.4,5.6,12.9c0,5.5-1.7,9.5-5.6,12.9c-4.2,3.7-9.5,5.6-16.2,5.6c-6.7,0-12-1.8-16.2-5.6
				c-3.9-3.4-5.6-7.4-5.6-12.9c0-5.5,1.7-9.5,5.6-12.9C165.8,282.9,171.1,281.1,177.8,281.1 M180.6,54c-27.8,0-49.4,6.9-64.8,20.8
				c-15.4,13.8-23.2,33.2-23.5,58h62.9c0.2-9.3,2.7-16.7,7.3-22.2c4.6-5.5,10.6-8.2,18.1-8.2c16.1,0,24.2,9.4,24.2,28.1
				c0,7.7-2.4,14.7-7.2,21.1c-4.8,6.4-11.8,13.4-20.9,21.1c-9.2,7.7-15.8,16.8-19.9,27.3c-4.1,10.5-6.1,24.8-6.1,42.9h53.2
				c0.2-9.4,1.6-17.2,3.9-23.4c2.4-6.1,6.6-12.1,12.7-18l21.4-19.9c9.1-8.8,15.6-17.4,19.7-25.9c4.1-8.4,6.1-17.8,6.1-28.1
				c0-23.6-7.6-41.8-22.8-54.5C229.7,60.4,208.2,54,180.6,54L180.6,54z M177.8,268.1c-9.9,0-18.2,2.9-24.8,8.8
				c-6.6,5.9-10,13.4-10,22.6c0,9.2,3.3,16.7,10,22.6c6.6,5.9,14.9,8.8,24.8,8.8c9.9,0,18.2-2.9,24.9-8.8c6.6-5.9,10-13.4,10-22.6
				c0-9.2-3.3-16.7-10-22.6C196,271,187.7,268.1,177.8,268.1L177.8,268.1z"/>
		</g>
	</g>
</g>
</svg>
