<?xml version="1.0" encoding="utf-8"?>
<!-- Generator: Adobe Illustrator 18.1.1, SVG Export Plug-In . SVG Version: 6.00 Build 0)  -->
<svg version="1.1" id="Layer_3" xmlns="http://www.w3.org/2000/svg" xmlns:xlink="http://www.w3.org/1999/xlink" x="0px" y="0px"
	 viewBox="0 0 360 360" enable-background="new 0 0 360 360" xml:space="preserve">
<polygon fill="#0000FF" points="135,40 127.7,26 131.4,14 325.7,14 329.6,27 325,40 335,76.7 347.7,174 345,234 324.4,317.3 
	329.6,346 134.5,349 127.7,339.1 132.4,324.7 138.7,315 123,294.7 108.8,186 121.7,92.7 "/>
<g>
	<path d="M331.1,318.1c4.9-16.2,22.3-77.7,22.3-138.1S336,58.1,331.1,41.9c2.7-2.3,4.4-5.7,4.4-9.5V19.3c0-6.9-5.7-12.6-12.6-12.6
		H136.6c-6.9,0-12.6,5.7-12.6,12.6v13.1c0,3.8,1.7,7.2,4.4,9.5C123.4,58.1,106,119.7,106,180c0,60.3,17.4,122,22.3,138.1
		c-2.7,2.3-4.4,5.7-4.4,9.5v13.1c0,6.9,5.7,12.6,12.6,12.6h186.3c6.9,0,12.6-5.7,12.6-12.6v-13.1
		C335.5,323.8,333.8,320.4,331.1,318.1z M134.8,19.3c0-1,0.8-1.8,1.8-1.8h186.3c1,0,1.8,0.8,1.8,1.8v13.1c0,1-0.8,1.8-1.8,1.8h-37
		c-0.9-0.2-1.8-0.3-2.7,0c0,0,0,0-0.1,0h-52c-0.4-0.1-0.9-0.2-1.4-0.2s-0.9,0.1-1.4,0.2h-52c0,0,0,0-0.1,0c-0.9-0.2-1.9-0.2-2.7,0
		h-37c-1,0-1.8-0.8-1.8-1.8L134.8,19.3L134.8,19.3z M138.7,45H168c-19.7,81.5-21.2,164.3-4.7,246c0.5,2.6,2.8,4.3,5.3,4.3
		c0.4,0,0.7,0,1.1-0.1c2.9-0.6,4.8-3.4,4.2-6.4c-16.4-81-14.7-163,5.2-243.8h45.2v244.9c0,3,2.4,5.4,5.4,5.4c3,0,5.4-2.4,5.4-5.4
		l0-244.9h45.2c19.9,80.8,21.6,162.8,5.2,243.8c-0.6,2.9,1.3,5.8,4.2,6.4c0.4,0.1,0.7,0.1,1.1,0.1c2.5,0,4.8-1.8,5.3-4.3
		c16.6-81.7,15-164.5-4.7-246h29.3c4.7,15.5,21.9,76.8,21.9,135s-17.2,119.5-21.9,135h-182c-4.7-15.4-21.9-76-21.9-135
		C116.8,121.8,134,60.5,138.7,45z M324.7,340.7c0,1-0.8,1.8-1.8,1.8H136.6c-1,0-1.8-0.8-1.8-1.8v-13.1c0-1,0.8-1.8,1.8-1.8h186.3
		c1,0,1.8,0.8,1.8,1.8V340.7z"/>
</g>
<g>
	<circle fill="#FFBC00" cx="26.5" cy="332.2" r="8.5"/>
	<polygon fill="#FFFFFF" points="6.4,327.7 8.9,326.4 18,329.6 18.2,333.5 20.8,337.9 24.8,340.1 27.5,340.1 30.5,339.2 33.1,337.6 
		34.5,335.2 35,332.7 35.8,329.2 42,328.1 45.7,326.4 45.7,352.4 37.7,356.7 25.3,357.5 18,356.5 9.6,354.2 6.4,352.2 5.9,349.1 	
		"/>
	<g>
		<polygon fill="#FFFFFF" points="5.4,305.2 6.4,301 15.8,296.7 31.4,296.4 42.5,297.7 45.7,300.8 46.3,319 42.1,320.1 30.1,321.2 
			14.6,320.6 7.5,319.3 5.4,318.4 		"/>
		<g>
			<path fill="#FF0000" d="M47.7,348.7l0.5,1.5c0,5.7-11.6,8.8-22.1,8.8c-10.5,0-22.1-3.1-22.1-8.8l0.5-1.7v-43.8l-0.5-1.1
				c0-5.7,11.6-8.8,22.1-8.8c10.5,0,22.1,3.1,22.1,8.8l-0.5,0.9V348.7z M44.8,328c0,0-2,2.2-8.9,3.4c0,0.1,0,0.2,0,0.3
				c0,5.1-4.1,9.2-9.2,9.2c-5.1,0-9.2-4.1-9.2-9.2c0-0.1,0-0.2,0-0.3c-7.3-1.2-10-3.4-10-3.4v17.5v4.6c0,2.5,7.1,5.9,18.6,5.9
				c11.5,0,18.6-3.4,18.6-5.9v-4.6V328L44.8,328z M26.7,339.7c4.4,0,8-3.6,8-8c0-0.1,0-0.2,0-0.3c-0.4-4.1-3.8-7.3-7.9-7.3
				c-4.1,0-7.5,3.2-7.9,7.2l0,0.1c0,0.1,0,0.2,0,0.3C18.7,336.1,22.3,339.7,26.7,339.7z M44.8,303.6c0-2.5-7.1-5.9-18.6-5.9
				c-11.5,0-18.6,3.4-18.6,5.9c0,2.5,7.1,5.9,18.6,5.9C37.7,309.4,44.8,306,44.8,303.6z M38.2,345.3"/>
		</g>
	</g>
</g>
<g>
	<circle fill="#FFBC00" cx="72.2" cy="332.2" r="8.5"/>
	<polygon fill="#FFFFFF" points="52,327.7 54.6,326.4 63.7,329.6 63.8,333.5 66.5,337.9 70.5,340.1 73.1,340.1 76.2,339.2 
		78.7,337.6 80.1,335.2 80.6,332.7 81.5,329.2 87.7,328.1 91.3,326.4 91.3,352.4 83.3,356.7 71,357.5 63.7,356.5 55.3,354.2 
		52,352.2 51.5,349.1 	"/>
	<g>
		<polygon fill="#FFFFFF" points="51,305.2 52.1,301 61.4,296.7 77,296.4 88.1,297.7 91.3,300.8 92,319 87.7,320.1 75.8,321.2 
			60.2,320.6 53.2,319.3 51,318.4 		"/>
		<g>
			<path fill="#FF0000" d="M93.4,348.7l0.5,1.5c0,5.7-11.6,8.8-22.1,8.8c-10.5,0-22.1-3.1-22.1-8.8l0.5-1.7v-43.8l-0.5-1.1
				c0-5.7,11.6-8.8,22.1-8.8c10.5,0,22.1,3.1,22.1,8.8l-0.5,0.9V348.7z M90.4,328c0,0-2,2.2-8.9,3.4c0,0.1,0,0.2,0,0.3
				c0,5.1-4.1,9.2-9.2,9.2c-5.1,0-9.2-4.1-9.2-9.2c0-0.1,0-0.2,0-0.3c-7.3-1.2-10-3.4-10-3.4v17.5v4.6c0,2.5,7.1,5.9,18.6,5.9
				c11.5,0,18.6-3.4,18.6-5.9v-4.6V328L90.4,328z M72.3,339.7c4.4,0,8-3.6,8-8c0-0.1,0-0.2,0-0.3c-0.4-4.1-3.8-7.3-7.9-7.3
				c-4.1,0-7.5,3.2-7.9,7.2l0,0.1c0,0.1,0,0.2,0,0.3C64.4,336.1,67.9,339.7,72.3,339.7z M90.4,303.6c0-2.5-7.1-5.9-18.6-5.9
				c-11.5,0-18.6,3.4-18.6,5.9c0,2.5,7.1,5.9,18.6,5.9C83.3,309.4,90.4,306,90.4,303.6z M83.9,345.3"/>
		</g>
	</g>
</g>
<g>
	<circle fill="#FFBC00" cx="118.3" cy="332.2" r="8.5"/>
	<polygon fill="#FFFFFF" points="98.1,327.7 100.7,326.4 109.8,329.6 109.9,333.5 112.6,337.9 116.6,340.1 119.2,340.1 122.3,339.2 
		124.8,337.6 126.2,335.2 126.8,332.7 127.6,329.2 133.8,328.1 137.5,326.4 137.5,352.4 129.4,356.7 117.1,357.5 109.8,356.5 
		101.4,354.2 98.1,352.2 97.6,349.1 	"/>
	<g>
		<polygon fill="#FFFFFF" points="97.1,305.2 98.2,301 107.5,296.7 123.1,296.4 134.2,297.7 137.5,300.8 138.1,319 133.8,320.1 
			121.9,321.2 106.3,320.6 99.3,319.3 97.1,318.4 		"/>
		<g>
			<path fill="#FF0000" d="M139.5,348.7l0.5,1.5c0,5.7-11.6,8.8-22.1,8.8c-10.5,0-22.1-3.1-22.1-8.8l0.5-1.7v-43.8l-0.5-1.1
				c0-5.7,11.6-8.8,22.1-8.8c10.5,0,22.1,3.1,22.1,8.8l-0.5,0.9V348.7z M136.5,328c0,0-2,2.2-8.9,3.4c0,0.1,0,0.2,0,0.3
				c0,5.1-4.1,9.2-9.2,9.2c-5.1,0-9.2-4.1-9.2-9.2c0-0.1,0-0.2,0-0.3c-7.3-1.2-10-3.4-10-3.4v17.5v4.6c0,2.5,7.1,5.9,18.6,5.9
				c11.5,0,18.6-3.4,18.6-5.9v-4.6V328L136.5,328z M118.4,339.7c4.4,0,8-3.6,8-8c0-0.1,0-0.2,0-0.3c-0.4-4.1-3.8-7.3-7.9-7.3
				c-4.1,0-7.5,3.2-7.9,7.2l0,0.1c0,0.1,0,0.2,0,0.3C110.5,336.1,114.1,339.7,118.4,339.7z M136.5,303.6c0-2.5-7.1-5.9-18.6-5.9
				c-11.5,0-18.6,3.4-18.6,5.9c0,2.5,7.1,5.9,18.6,5.9C129.4,309.4,136.5,306,136.5,303.6z M130,345.3"/>
		</g>
	</g>
</g>
<g>
	<circle fill="#FFBC00" cx="163.9" cy="332.2" r="8.5"/>
	<polygon fill="#FFFFFF" points="143.8,327.7 146.3,326.4 155.4,329.6 155.6,333.5 158.2,337.9 162.2,340.1 164.9,340.1 
		167.9,339.2 170.5,337.6 171.9,335.2 172.4,332.7 173.2,329.2 179.4,328.1 183.1,326.4 183.1,352.4 175,356.7 162.7,357.5 
		155.4,356.5 147,354.2 143.8,352.2 143.3,349.1 	"/>
	<g>
		<polygon fill="#FFFFFF" points="142.8,305.2 143.8,301 153.2,296.7 168.8,296.4 179.9,297.7 183.1,300.8 183.7,319 179.5,320.1 
			167.5,321.2 152,320.6 144.9,319.3 142.8,318.4 		"/>
		<g>
			<path fill="#FF0000" d="M185.1,348.7l0.5,1.5c0,5.7-11.6,8.8-22.1,8.8c-10.5,0-22.1-3.1-22.1-8.8l0.5-1.7v-43.8l-0.5-1.1
				c0-5.7,11.6-8.8,22.1-8.8c10.5,0,22.1,3.1,22.1,8.8l-0.5,0.9V348.7z M182.2,328c0,0-2,2.2-8.9,3.4c0,0.1,0,0.2,0,0.3
				c0,5.1-4.1,9.2-9.2,9.2c-5.1,0-9.2-4.1-9.2-9.2c0-0.1,0-0.2,0-0.3c-7.3-1.2-10-3.4-10-3.4v17.5v4.6c0,2.5,7.1,5.9,18.6,5.9
				c11.5,0,18.6-3.4,18.6-5.9v-4.6V328L182.2,328z M164.1,339.7c4.4,0,8-3.6,8-8c0-0.1,0-0.2,0-0.3c-0.4-4.1-3.8-7.3-7.9-7.3
				c-4.1,0-7.5,3.2-7.9,7.2l0,0.1c0,0.1,0,0.2,0,0.3C156.1,336.1,159.7,339.7,164.1,339.7z M182.2,303.6c0-2.5-7.1-5.9-18.6-5.9
				c-11.5,0-18.6,3.4-18.6,5.9c0,2.5,7.1,5.9,18.6,5.9C175.1,309.4,182.2,306,182.2,303.6z M175.6,345.3"/>
		</g>
	</g>
</g>
<g>
	<circle fill="#FFBC00" cx="48.3" cy="276.8" r="8.5"/>
	<polygon fill="#FFFFFF" points="28.2,272.3 30.7,271 39.9,274.2 40,278.2 42.7,282.5 46.6,284.8 49.3,284.8 52.3,283.9 54.9,282.2 
		56.3,279.8 56.8,277.3 57.6,273.9 63.9,272.8 67.5,271 67.5,297 59.5,301.3 47.2,302.1 39.9,301.1 31.5,298.8 28.2,296.8 
		27.7,293.7 	"/>
	<g>
		<polygon fill="#FFFFFF" points="27.2,249.8 28.2,245.6 37.6,241.3 53.2,241 64.3,242.4 67.5,245.5 68.2,263.6 63.9,264.8 
			52,265.8 36.4,265.2 29.4,264 27.2,263 		"/>
		<g>
			<path fill="#FF0000" d="M69.5,293.3l0.5,1.5c0,5.7-11.6,8.8-22.1,8.8c-10.5,0-22.1-3.1-22.1-8.8l0.5-1.7v-43.8l-0.5-1.1
				c0-5.7,11.6-8.8,22.1-8.8c10.5,0,22.1,3.1,22.1,8.8l-0.5,0.9V293.3z M66.6,272.6c0,0-2,2.2-8.9,3.4c0,0.1,0,0.2,0,0.3
				c0,5.1-4.1,9.2-9.2,9.2c-5.1,0-9.2-4.1-9.2-9.2c0-0.1,0-0.2,0-0.3c-7.3-1.2-10-3.4-10-3.4v17.5v4.6c0,2.5,7.1,5.9,18.6,5.9
				c11.5,0,18.6-3.4,18.6-5.9v-4.6V272.6L66.6,272.6z M48.5,284.3c4.4,0,8-3.6,8-8c0-0.1,0-0.2,0-0.3c-0.4-4.1-3.8-7.3-7.9-7.3
				c-4.1,0-7.5,3.2-7.9,7.2l0,0.1c0,0.1,0,0.2,0,0.3C40.6,280.8,44.1,284.3,48.5,284.3z M66.6,248.2c0-2.5-7.1-5.9-18.6-5.9
				c-11.5,0-18.6,3.4-18.6,5.9s7.1,5.9,18.6,5.9C59.5,254.1,66.6,250.7,66.6,248.2z M60,290"/>
		</g>
	</g>
</g>
<g>
	<circle fill="#FFBC00" cx="94" cy="276.8" r="8.5"/>
	<polygon fill="#FFFFFF" points="73.8,272.3 76.4,271 85.5,274.2 85.7,278.2 88.3,282.5 92.3,284.8 94.9,284.8 98,283.9 
		100.5,282.2 102,279.8 102.5,277.3 103.3,273.9 109.5,272.8 113.2,271 113.2,297 105.1,301.3 92.8,302.1 85.5,301.1 77.1,298.8 
		73.8,296.8 73.3,293.7 	"/>
	<g>
		<polygon fill="#FFFFFF" points="72.9,249.8 73.9,245.6 83.3,241.3 98.8,241 109.9,242.4 113.2,245.5 113.8,263.6 109.5,264.8 
			97.6,265.8 82,265.2 75,264 72.9,263 		"/>
		<g>
			<path fill="#FF0000" d="M115.2,293.3l0.5,1.5c0,5.7-11.6,8.8-22.1,8.8c-10.5,0-22.1-3.1-22.1-8.8l0.5-1.7v-43.8l-0.5-1.1
				c0-5.7,11.6-8.8,22.1-8.8c10.5,0,22.1,3.1,22.1,8.8l-0.5,0.9V293.3z M112.2,272.6c0,0-2,2.2-8.9,3.4c0,0.1,0,0.2,0,0.3
				c0,5.1-4.1,9.2-9.2,9.2c-5.1,0-9.2-4.1-9.2-9.2c0-0.1,0-0.2,0-0.3c-7.3-1.2-10-3.4-10-3.4v17.5v4.6c0,2.5,7.1,5.9,18.6,5.9
				c11.5,0,18.6-3.4,18.6-5.9v-4.6V272.6L112.2,272.6z M94.2,284.3c4.4,0,8-3.6,8-8c0-0.1,0-0.2,0-0.3c-0.4-4.1-3.8-7.3-7.9-7.3
				c-4.1,0-7.5,3.2-7.9,7.2l0,0.1c0,0.1,0,0.2,0,0.3C86.2,280.8,89.8,284.3,94.2,284.3z M112.2,248.2c0-2.5-7.1-5.9-18.6-5.9
				c-11.5,0-18.6,3.4-18.6,5.9s7.1,5.9,18.6,5.9C105.2,254.1,112.2,250.7,112.2,248.2z M105.7,290"/>
		</g>
	</g>
</g>
<g>
	<circle fill="#FFBC00" cx="140.1" cy="276.8" r="8.5"/>
	<polygon fill="#FFFFFF" points="119.9,272.3 122.5,271 131.6,274.2 131.8,278.2 134.4,282.5 138.4,284.8 141,284.8 144.1,283.9 
		146.6,282.2 148.1,279.8 148.6,277.3 149.4,273.9 155.6,272.8 159.3,271 159.3,297 151.2,301.3 138.9,302.1 131.6,301.1 
		123.2,298.8 119.9,296.8 119.4,293.7 	"/>
	<g>
		<polygon fill="#FFFFFF" points="119,249.8 120,245.6 129.4,241.3 144.9,241 156.1,242.4 159.3,245.5 159.9,263.6 155.6,264.8 
			143.7,265.8 128.1,265.2 121.1,264 119,263 		"/>
		<g>
			<path fill="#FF0000" d="M161.3,293.3l0.5,1.5c0,5.7-11.6,8.8-22.1,8.8c-10.5,0-22.1-3.1-22.1-8.8l0.5-1.7v-43.8l-0.5-1.1
				c0-5.7,11.6-8.8,22.1-8.8c10.5,0,22.1,3.1,22.1,8.8l-0.5,0.9V293.3z M158.3,272.6c0,0-2,2.2-8.9,3.4c0,0.1,0,0.2,0,0.3
				c0,5.1-4.1,9.2-9.2,9.2c-5.1,0-9.2-4.1-9.2-9.2c0-0.1,0-0.2,0-0.3c-7.3-1.2-10-3.4-10-3.4v17.5v4.6c0,2.5,7.1,5.9,18.6,5.9
				c11.5,0,18.6-3.4,18.6-5.9v-4.6V272.6L158.3,272.6z M140.3,284.3c4.4,0,8-3.6,8-8c0-0.1,0-0.2,0-0.3c-0.4-4.1-3.8-7.3-7.9-7.3
				c-4.1,0-7.5,3.2-7.9,7.2l0,0.1c0,0.1,0,0.2,0,0.3C132.3,280.8,135.9,284.3,140.3,284.3z M158.3,248.2c0-2.5-7.1-5.9-18.6-5.9
				c-11.5,0-18.6,3.4-18.6,5.9s7.1,5.9,18.6,5.9C151.3,254.1,158.3,250.7,158.3,248.2z M151.8,290"/>
		</g>
	</g>
</g>
<g>
	<circle fill="#FFBC00" cx="71.6" cy="220.7" r="8.5"/>
	<polygon fill="#FFFFFF" points="51.4,216.3 54,215 63.1,218.1 63.2,222.1 65.9,226.5 69.8,228.7 72.5,228.7 75.6,227.8 78.1,226.2 
		79.5,223.7 80,221.3 80.9,217.8 87.1,216.7 90.7,215 90.7,240.9 82.7,245.2 70.4,246 63.1,245 54.7,242.8 51.4,240.7 50.9,237.7 	
		"/>
	<g>
		<polygon fill="#FFFFFF" points="50.4,193.7 51.5,189.6 60.8,185.3 76.4,184.9 87.5,186.3 90.7,189.4 91.4,207.6 87.1,208.7 
			75.2,209.8 59.6,209.2 52.6,207.9 50.4,206.9 		"/>
		<g>
			<path fill="#FF0000" d="M92.7,237.2l0.5,1.5c0,5.7-11.6,8.8-22.1,8.8c-10.5,0-22.1-3.1-22.1-8.8l0.5-1.7v-43.8l-0.5-1.1
				c0-5.7,11.6-8.8,22.1-8.8c10.5,0,22.1,3.1,22.1,8.8l-0.5,0.9V237.2z M89.8,216.6c0,0-2,2.2-8.9,3.4c0,0.1,0,0.2,0,0.3
				c0,5.1-4.1,9.2-9.2,9.2c-5.1,0-9.2-4.1-9.2-9.2c0-0.1,0-0.2,0-0.3c-7.3-1.2-10-3.4-10-3.4v17.5v4.6c0,2.5,7.1,5.9,18.6,5.9
				c11.5,0,18.6-3.4,18.6-5.9v-4.6V216.6L89.8,216.6z M71.7,228.3c4.4,0,8-3.6,8-8c0-0.1,0-0.2,0-0.3c-0.4-4.1-3.8-7.3-7.9-7.3
				c-4.1,0-7.5,3.2-7.9,7.2l0,0.1c0,0.1,0,0.2,0,0.3C63.8,224.7,67.3,228.3,71.7,228.3z M89.8,192.1c0-2.5-7.1-5.9-18.6-5.9
				c-11.5,0-18.6,3.4-18.6,5.9s7.1,5.9,18.6,5.9C82.7,198,89.8,194.6,89.8,192.1z M83.2,233.9"/>
		</g>
	</g>
</g>
<g>
	<circle fill="#FFBC00" cx="117.2" cy="220.7" r="8.5"/>
	<polygon fill="#FFFFFF" points="97.1,216.3 99.6,215 108.7,218.1 108.9,222.1 111.5,226.5 115.5,228.7 118.1,228.7 121.2,227.8 
		123.7,226.2 125.2,223.7 125.7,221.3 126.5,217.8 132.7,216.7 136.4,215 136.4,240.9 128.3,245.2 116,246 108.7,245 100.3,242.8 
		97.1,240.7 96.5,237.7 	"/>
	<g>
		<polygon fill="#FFFFFF" points="96.1,193.7 97.1,189.6 106.5,185.3 122,184.9 133.2,186.3 136.4,189.4 137,207.6 132.7,208.7 
			120.8,209.8 105.2,209.2 98.2,207.9 96.1,206.9 		"/>
		<g>
			<path fill="#FF0000" d="M138.4,237.2l0.5,1.5c0,5.7-11.6,8.8-22.1,8.8c-10.5,0-22.1-3.1-22.1-8.8l0.5-1.7v-43.8l-0.5-1.1
				c0-5.7,11.6-8.8,22.1-8.8c10.5,0,22.1,3.1,22.1,8.8l-0.5,0.9V237.2z M135.4,216.6c0,0-2,2.2-8.9,3.4c0,0.1,0,0.2,0,0.3
				c0,5.1-4.1,9.2-9.2,9.2c-5.1,0-9.2-4.1-9.2-9.2c0-0.1,0-0.2,0-0.3c-7.3-1.2-10-3.4-10-3.4v17.5v4.6c0,2.5,7.1,5.9,18.6,5.9
				c11.5,0,18.6-3.4,18.6-5.9v-4.6V216.6L135.4,216.6z M117.4,228.3c4.4,0,8-3.6,8-8c0-0.1,0-0.2,0-0.3c-0.4-4.1-3.8-7.3-7.9-7.3
				c-4.1,0-7.5,3.2-7.9,7.2l0,0.1c0,0.1,0,0.2,0,0.3C109.4,224.7,113,228.3,117.4,228.3z M135.4,192.1c0-2.5-7.1-5.9-18.6-5.9
				c-11.5,0-18.6,3.4-18.6,5.9s7.1,5.9,18.6,5.9C128.4,198,135.4,194.6,135.4,192.1z M128.9,233.9"/>
		</g>
	</g>
</g>
<g>
	<circle fill="#FFBC00" cx="94.4" cy="165.9" r="8.5"/>
	<polygon fill="#FFFFFF" points="74.2,161.4 76.8,160.1 85.9,163.3 86,167.2 88.7,171.6 92.7,173.9 95.3,173.9 98.4,173 
		100.9,171.3 102.4,168.9 102.9,166.4 103.7,163 109.9,161.8 113.6,160.1 113.6,186.1 105.5,190.4 93.2,191.2 85.9,190.2 
		77.5,187.9 74.2,185.9 73.7,182.8 	"/>
	<g>
		<polygon fill="#FFFFFF" points="73.2,138.9 74.3,134.7 83.6,130.4 99.2,130.1 110.3,131.5 113.6,134.6 114.2,152.7 109.9,153.8 
			98,154.9 82.4,154.3 75.4,153.1 73.2,152.1 		"/>
		<g>
			<path fill="#FF0000" d="M115.6,182.4l0.5,1.5c0,5.7-11.6,8.8-22.1,8.8c-10.5,0-22.1-3.1-22.1-8.8l0.5-1.7v-43.8l-0.5-1.1
				c0-5.7,11.6-8.8,22.1-8.8c10.5,0,22.1,3.1,22.1,8.8l-0.5,0.9V182.4z M112.6,161.7c0,0-2,2.2-8.9,3.4c0,0.1,0,0.2,0,0.3
				c0,5.1-4.1,9.2-9.2,9.2c-5.1,0-9.2-4.1-9.2-9.2c0-0.1,0-0.2,0-0.3c-7.3-1.2-10-3.4-10-3.4v17.5v4.6c0,2.5,7.1,5.9,18.6,5.9
				c11.5,0,18.6-3.4,18.6-5.9v-4.6V161.7L112.6,161.7z M94.6,173.4c4.4,0,8-3.6,8-8c0-0.1,0-0.2,0-0.3c-0.4-4.1-3.8-7.3-7.9-7.3
				c-4.1,0-7.5,3.2-7.9,7.2l0,0.1c0,0.1,0,0.2,0,0.3C86.6,169.9,90.2,173.4,94.6,173.4z M112.6,137.3c0-2.5-7.1-5.9-18.6-5.9
				c-11.5,0-18.6,3.4-18.6,5.9s7.1,5.9,18.6,5.9C105.5,143.2,112.6,139.7,112.6,137.3z M106.1,179.1"/>
		</g>
	</g>
</g>
</svg>
