<?xml version="1.0" encoding="utf-8"?>
<!-- Generator: Adobe Illustrator 18.1.1, SVG Export Plug-In . SVG Version: 6.00 Build 0)  -->
<svg version="1.1" id="Layer_3" xmlns="http://www.w3.org/2000/svg" xmlns:xlink="http://www.w3.org/1999/xlink" x="0px" y="0px"
	 viewBox="0 0 360 360" enable-background="new 0 0 360 360" xml:space="preserve">
<g>
	<path fill="#17C1FF" d="M226.2,131l75.5-46.4c8.2-5.1,10.8-15.9,5.7-24.1c-3.2-5.2-8.8-8.3-15-8.3c-3.2,0-6.4,0.9-9.2,2.6
		l-70.9,43.6c0,0-73.2,0-73.6,0c-2.5,0-5,0.5-7.3,1.6l-97.1,44.7c-8.8,4-12.6,14.5-8.6,23.3c2.9,6.2,9.1,10.2,15.9,10.2
		c2.5,0,5-0.5,7.3-1.6l79.1-36.4l0,197.8c0,11.1,9,20.1,20.1,20.1s20.1-9,20.1-20.1v-104h17.6v104c0,11.1,9,20.1,20.1,20.1
		c11.1,0,20.1-9,20.1-20.1L226.2,131z"/>
	<path fill="#17C1FF" d="M179.5,91.2c23.9,0,43.3-19.4,43.3-43.3S203.4,4.6,179.5,4.6c-23.9,0-43.3,19.4-43.3,43.3
		C136.2,71.7,155.7,91.2,179.5,91.2z"/>
	<path fill="#FFD500" d="M338.3,177.2l-34.9-71c-1.7-3.5-4.5-5.4-7.6-5.4c-3.1,0-5.9,2-7.6,5.4l-34.9,71c-1.6,3.3-1.6,6.7,0.1,9.4
		c0.5,0.8,1.1,1.5,1.9,2.1c8.4,9.3,36.7,9.6,40.5,9.6s32.1-0.3,40.5-9.6c0.7-0.6,1.4-1.3,1.9-2.1
		C339.9,183.9,339.9,180.5,338.3,177.2z M295.9,112.4l28.8,58.6c-11.5-3.3-26.2-3.4-28.8-3.4s-17.3,0.2-28.8,3.4L295.9,112.4z"/>
	<path fill="#FFD500" d="M71.7,187.5c-1.7-3.5-4.5-5.4-7.6-5.4c-3.1,0-5.9,2-7.6,5.4l-34.9,71c-1.6,3.3-1.6,6.7,0.1,9.4
		c0.5,0.8,1.1,1.5,1.9,2.1c8.4,9.3,36.7,9.6,40.5,9.6s32.1-0.3,40.5-9.6c0.7-0.6,1.4-1.3,1.9-2.1c1.7-2.7,1.7-6.1,0.1-9.4
		L71.7,187.5z M64.1,193.7l28.8,58.6c-11.5-3.3-26.2-3.4-28.8-3.4c-2.6,0-17.3,0.2-28.8,3.4L64.1,193.7z"/>
</g>
</svg>
