<?xml version="1.0" encoding="utf-8"?>
<!-- Generator: Adobe Illustrator 18.1.1, SVG Export Plug-In . SVG Version: 6.00 Build 0)  -->
<svg version="1.1" id="Layer_3" xmlns="http://www.w3.org/2000/svg" xmlns:xlink="http://www.w3.org/1999/xlink" x="0px" y="0px"
	 viewBox="0 0 360 360" enable-background="new 0 0 360 360" xml:space="preserve">
<g>
	<rect x="15.5" y="35.7" fill="#FFE98A" width="171.7" height="217.4"/>
	<g>
		<g>
			<path d="M191.1,26.3H159V13.7c0-4.7-3.8-8.5-8.5-8.5s-8.5,3.8-8.5,8.5v12.5h-30.7V13.7c0-4.7-3.8-8.5-8.5-8.5s-8.5,3.8-8.5,8.5
				v12.5H63.6V13.7c0-4.7-3.8-8.5-8.5-8.5s-8.5,3.8-8.5,8.5v12.5H14.3c-4.7,0-8.5,3.8-8.5,8.5v221.4c0,4.7,3.8,8.5,8.5,8.5h176.8
				c4.7,0,8.5-3.8,8.5-8.5V34.8C199.7,30.1,195.9,26.3,191.1,26.3z M182.6,247.7H22.9V43.3h23.7v9.9c0,4.7,3.8,8.5,8.5,8.5
				s8.5-3.8,8.5-8.5v-9.9h30.7v9.9c0,4.7,3.8,8.5,8.5,8.5s8.5-3.8,8.5-8.5v-9.9h30.7v9.9c0,4.7,3.8,8.5,8.5,8.5
				c4.7,0,8.5-3.8,8.5-8.5v-9.9h23.7L182.6,247.7L182.6,247.7z"/>
			<path d="M153.2,100.5H52.3c-4.7,0-8.5,3.8-8.5,8.5s3.8,8.5,8.5,8.5h100.8c4.7,0,8.5-3.8,8.5-8.5S157.9,100.5,153.2,100.5z"/>
			<path d="M153.2,148.2H52.3c-4.7,0-8.5,3.8-8.5,8.5c0,4.7,3.8,8.5,8.5,8.5h100.8c4.7,0,8.5-3.8,8.5-8.5
				C161.7,152,157.9,148.2,153.2,148.2z"/>
			<path d="M153.2,195.9H52.3c-4.7,0-8.5,3.8-8.5,8.5c0,4.7,3.8,8.5,8.5,8.5h100.8c4.7,0,8.5-3.8,8.5-8.5
				C161.7,199.7,157.9,195.9,153.2,195.9z"/>
		</g>
	</g>
</g>
<g>
	<path fill="#FF0000" d="M226,267.3c3.2,4.8,12.8,22.3,12.2,27.8l63.3,63.3l35.5-35.5l-63.3-63.3c-5.6,0.6-19.6-12.5-24.5-15.9
		L226,267.3z"/>
	<polygon fill="#BFBFBF" points="157.1,168.6 159.4,166.3 149.7,154.3 117.9,134.1 112.7,139.2 132.9,171.1 144.9,180.8 
		147.2,178.5 200.9,228.8 210.7,218.8 	"/>
	<path fill="#465B87" d="M268.8,223.7c16.6,4.6,35.2,0.4,48.3-12.6c12.9-13,17.2-31.4,12.7-47.9l-28,28l-27.4-7.3l-7.3-27.4l28-28
		c-16.5-4.5-34.9-0.2-47.9,12.7c-13.6,13.6-17.6,33.2-12,50.3l-0.2,0.2L119.9,306.7c-4.5,4.6-6.8,10.5-6.8,16.5
		c0,6,2.3,11.9,6.8,16.5c9.1,9.1,23.8,9.1,33,0L268.8,223.7z M123.8,325.2c0-4.9,4-8.9,8.9-8.9c4.9,0,8.9,4,8.9,8.9
		c0,4.9-4,8.9-8.9,8.9C127.8,334.2,123.8,330.2,123.8,325.2z"/>
</g>
</svg>
