<?xml version="1.0" encoding="utf-8"?>
<!-- Generator: Adobe Illustrator 18.1.1, SVG Export Plug-In . SVG Version: 6.00 Build 0)  -->
<svg version="1.1" id="Layer_3" xmlns="http://www.w3.org/2000/svg" xmlns:xlink="http://www.w3.org/1999/xlink" x="0px" y="0px"
	 viewBox="0 0 360 360" enable-background="new 0 0 360 360" xml:space="preserve">
<g>
	<g>
		<path fill="#7C81B8" d="M310.6,159.7c-3.7,2.6-7.7,4.8-12,6.6c-3.4,1.5-7,2.6-10.6,3.5l-15,29.6l-15.4-29.5
			c-3.6-0.9-7.2-2-10.7-3.5c-4.2-1.8-8.2-4-12-6.6c-27.5,17.2-47.1,52.7-49.4,94.4c-0.3,4.6,3.4,8.5,7.9,8.5H352
			c4.6,0,8.2-3.9,7.9-8.5C357.6,212.5,338.1,177,310.6,159.7z"/>
		<path fill="#7C81B8" d="M304.3,130.7c-6-6.3-12.5-15-19.5-25.7c-1.9-3-3.7-6-5.5-8.9c-3.1-5.2-10.5-5.2-13.6-0.1
			c-1.8,2.9-3.7,6-5.7,9c-7,10.7-13.5,19.4-19.5,25.6c-3.8,4.1-7.4,7.1-10.8,9.4c-0.5,0.3-1,0.6-1.4,0.9c4.4,5.5,9.9,10.2,16.1,13.7
			c8.3,4.8,18,7.5,28.4,7.5c10.3,0,20-2.7,28.4-7.5c6.1-3.5,11.5-8.1,15.9-13.6C313,138.9,308.7,135.4,304.3,130.7z"/>
		<path fill="#7C81B8" d="M326.8,135.1c0.8,0.2,1.6,0.3,2.4,0.3c0,0,17.6-42.7-8.6-72.4l-0.6,0.9l-0.6,0.9l-2.7,4l-2.7,3.9l-7.9-7.1
			c0,0-3.4-3-9.1-5.9c-5.4-2.8-14-6.2-24-6.2c-7.9,0-15.8,2-23.5,5.9c-5.8,3-9.3,6-9.6,6.2l-7.8,7.1l-2.9-4.2l-2.7-4l-0.4-0.6
			l-0.8-1.1c-26.6,29.7-8.9,72.6-8.9,72.6c0.8,0,1.6-0.1,2.4-0.3c1.4-0.3,2.8-1,4.4-1.8c14.4-8.1,32.7-38,42.6-55.6
			c3.1-5.5,11-5.4,14,0.1c9.6,17.7,27.6,47.8,42.7,55.7C323.8,134.3,325.3,134.8,326.8,135.1z"/>
		<path fill="#7C81B8" d="M229.5,52.4l1.1,1.6l1.5,2.2l1.1,1.6l0.5,0.7c0,0,4.5-4,12.2-7.9c3.5-1.7,7.6-3.4,12.3-4.7
			c4.5-1.2,9.5-2,14.8-2s10.3,0.8,14.8,2c4.7,1.2,8.8,2.9,12.3,4.7c7.7,3.8,12.2,7.9,12.2,7.9l0.3-0.5l1.1-1.6l1.5-2.2l1.1-1.6
			l2.6-3.9l11.3-16.6c2.3-3.3,1.7-7.8-1.2-10.4C320.5,14,301.1,0,273,0c-28.1,0-47.6,14-56.1,21.8c-3,2.7-3.5,7.1-1.2,10.4
			l11.2,16.4L229.5,52.4z M260,22.2c0-1.8,1.4-3.2,3.2-3.2h5.4v-5.4c0-1.8,1.4-3.2,3.2-3.2h1.9c1.8,0,3.2,1.4,3.2,3.2V19h5.4
			c1.8,0,3.2,1.4,3.2,3.2V24c0,1.8-1.4,3.2-3.2,3.2h-5.4v5.5c0,1.8-1.4,3.2-3.2,3.2h-1.9c-1.8,0-3.2-1.4-3.2-3.2v-5.5h-5.4
			c-1.8,0-3.2-1.4-3.2-3.2V22.2z"/>
	</g>
</g>
<g>
	<g>
		<path fill="#10167F" d="M77.4,116.2H54.9c-2.7,0-5.2,0-7.7,0.2c2.5,15.1,13.9,54,62.7,54.5c0.8-0.2,1.6-0.2,2.4,0.1
			c8.1,0,49-3.2,58.9-53.1c-5-1.2-10.6-1.7-17-1.7h-23.6c19.1-9.9,32.1-29.7,32.1-52.5c0-1.9-0.1-3.8-0.3-5.6h-33.2
			c4.9-5.1,8.2-11.6,9.2-18.9h19c-5.8-12.6-15.9-22.8-28.4-28.7C122.9,4,114.2,0,104.6,0c-9.2,0-17.5,3.6-23.7,9.5
			c-13.4,5.8-24.2,16.3-30.3,29.6h20c1,7.3,4.4,13.8,9.2,18.9H45.5c-0.2,1.8-0.3,3.8-0.3,5.6C45.3,86.5,58.3,106.3,77.4,116.2z
			 M104.6,9.6c13.6,0,24.7,11.1,24.7,24.7c0,13.6-11.1,24.7-24.7,24.7c-13.6,0-24.7-11.1-24.7-24.7C79.9,20.7,90.9,9.6,104.6,9.6z"
			/>
		<path fill="#10167F" d="M208.9,170.1c0,0,1.8-35.7-28.2-49.1c-11.6,58.3-62.2,61.8-69,61.9c-0.2,0.5-0.3,1.2-0.3,1.9
			c-0.1,4.1,3.5,9.4,10,14.8c11.6,9.7,13.9,23.7,5.8,35.7c-6.3,9.3-18.1,15.8-32.5,15.8c-7,0-14.5-1.5-22.4-4.9
			c-2.4,2.6-5.9,4.3-9.7,4.3c-7.2,0-13.1-5.9-13.1-13.1c0-7.2,5.9-13.1,13.1-13.1c7.2,0,13,5.8,13.1,12.9
			c19.6,8.7,36.5,3.3,43.6-7.3c5.3-7.9,3.8-16.5-4-23c-9.2-7.7-13.7-15.3-13.4-22.7c0-0.6,0.1-1.2,0.2-1.8
			c-49.7-4.7-61.5-48.4-64.2-64.6C-0.2,127.1,0.1,166.4,0,170.1l0,92.8h209L208.9,170.1z"/>
		<circle fill="#10167F" cx="104.6" cy="34.3" r="11.4"/>
	</g>
</g>
<polygon fill="#FF9600" points="133.7,264.6 139.2,219 152.4,196.2 166.9,170.6 197.3,175.5 212.5,192.7 221.5,207.2 225.6,297.8 
	213.9,319.2 195.2,319.2 199.4,338.6 168.2,343.4 156.5,333 144.1,306.1 "/>
<g>
	<path fill="#FE230A" d="M279.3,237.6c4.2-2.7,5.4-8.3,2.7-12.5l-30.8-47.8c-1.3-2-3.3-3.4-5.7-3.9c-2.3-0.5-4.8-0.1-6.8,1.2
		l-21.5,13.8v-25.5c0-5-4-9-9-9h-56.6c-5,0-9,4-9,9v25.5l-21.5-13.8c-4.2-2.7-9.8-1.5-12.5,2.7l-30.8,47.8c-1.3,2-1.7,4.5-1.2,6.8
		c0.5,2.3,1.9,4.4,3.9,5.7l30.1,19.3l-30.1,19.3c-2,1.3-3.4,3.3-3.9,5.7c-0.5,2.3-0.1,4.8,1.2,6.8l30.8,47.8c1.3,2,3.3,3.4,5.7,3.9
		c2.3,0.5,4.8,0.1,6.8-1.2l21.5-13.8V351c0,5,4,9,9,9h56.6c5,0,9-4,9-9v-25.5l21.5,13.8c2,1.3,4.5,1.7,6.8,1.2
		c2.3-0.5,4.4-1.9,5.7-3.9l30.8-47.9c2.7-4.2,1.5-9.8-2.7-12.5L249.3,257L279.3,237.6z M166.8,319.4c-3.2,0-6.1-1.6-7.9-4.3
		c-0.4-0.5-0.7-1.1-0.9-1.8c-1.8-4.8,0.7-10.2,5.5-12c2.6-0.9,4.9-1.9,7.1-2.8v-35c-12.1-7.1-22.6-14.3-25-24.9
		c-3.7-16.5,1.7-26.1,6.9-31.2c2.8-2.8,6.1-4.8,9.6-6.3c2.7-1.1,5.5-2,8.5-2.6v-7c0-5.2,4.2-9.4,9.3-9.4c5.2,0,9.3,4.2,9.3,9.4v5.9
		c4.9,0.3,9.1,0.9,12,1.4c1.7,0.3,2.9,0.6,3.5,0.7c5,1.2,8.2,6.2,7,11.2c-1,4.2-4.5,7-8.6,7.3c-3.3-0.7-8.4-1.6-13.9-1.9
		c-6.6-0.4-13.7-0.1-18.7,2.2c0,0-3.9,2.1-5.2,3.3c-2.6,2.6-4.3,7.1-1.5,12.9c0.8,1.7,3.1,4.2,6.7,6.8v-19.4l18.7,3.7v63.8
		c7.5-4.6,8-7.2,8.1-7.2c-0.1-0.6-6.9-28.9-6.9-28.9c13.9,8.1,26.7,17,25.6,30.4c-0.7,9.2-7.8,17-22.7,25l-4,1.8l-18.7,8.2v-0.1
		c-0.2,0.1-0.4,0.2-0.6,0.2C169,319.2,167.9,319.4,166.8,319.4z M189.3,322.5c0,5.2-4.1,9.4-9.3,9.4c-5.2,0-9.3-4.2-9.3-9.4v-3.9
		l18.7-3.6L189.3,322.5L189.3,322.5z"/>
</g>
</svg>
