<?xml version="1.0" encoding="utf-8"?>
<!-- Generator: Adobe Illustrator 18.1.1, SVG Export Plug-In . SVG Version: 6.00 Build 0)  -->
<svg version="1.1" id="Layer_3" xmlns="http://www.w3.org/2000/svg" xmlns:xlink="http://www.w3.org/1999/xlink" x="0px" y="0px"
	 viewBox="0 0 360 360" enable-background="new 0 0 360 360" xml:space="preserve">
<path fill="#19A200" d="M154,89.1l-55.3-30V26.1c0-9.7-7.6-17-17.8-17.2l-0.3,0v0c-10.5,0.2-19,7.9-19,17.2v33.6L7.3,89.1
	C5.6,90,4.5,92,4.5,94v9.1c0,2.2,1.7,3.9,3.8,3.9c0.3,0,0.7,0,1-0.1l52.3-12.9v58.7L47.8,164c-1.4,1.1-1.5,2.9-1.5,3.4v8
	c0,1.8,1.3,3.1,2.9,3.1c0.3,0,0.6,0,0.9-0.1l30.5-8.3l30.5,8.3c0.3,0.1,0.6,0.1,0.9,0.1c1.7,0,2.9-1.3,2.9-3.1v-8
	c0-0.5-0.1-2.3-1.5-3.4l-14.7-12.1V93.7l53.3,13.2c0.3,0.1,0.7,0.1,1,0.1c2.1,0,3.8-1.7,3.8-3.9V94C156.9,92,155.7,90,154,89.1z"/>
<g>
	<g>
		<g>
			<path fill="#FFCB2E" d="M298.3,115.8l14.3,13.8c0,0-17.5,25.3-36.2,25.8c0.4,0,0.1-71.3,0-88.6c12.5-4.1,21.5-15.4,21.5-28.9
				c0-17-14.2-30.7-31.6-30.7c-17.5,0-31.6,13.7-31.6,30.7c0,13.3,8.8,24.5,21,28.8l0.1,88.4c-22.6-1.6-35.7-23.3-35.7-23.3
				l15.3-14.8L180,109l8.4,53.7l14.7-14.2c12.7,10.3,27.1,31.6,61.8,31.6c43.5-1.1,53.6-24.5,64.7-33.7l16.1,15.7l8-54.2
				L298.3,115.8z M250,37.5c0-8.7,7.3-15.8,16.3-15.8s16.3,7.1,16.3,15.8c0,8.8-7.3,15.8-16.3,15.8S250,46.3,250,37.5z"/>
		</g>
	</g>
</g>
<g>
	<path fill="#0000FF" d="M142.8,123.8c0.5-2.4,0.5-5,1.2-7.3h99.5c1.6,5.1,2.7,10.4,2.7,16c0,29-23.5,52.5-52.4,52.5
		c-23.3,0-42.9-15.3-49.8-36.3C149.7,141,149,130.7,142.8,123.8z M108.4,355.1h25.5l-0.9-28.3L108.4,355.1z M280.7,239.6
		c3.8,7.7,9.9,67.4,14.5,115.5h-35.9l-7.5-77.1l-2.4,77.1H138.3l-2.4-77.1c0,0-0.5-10.2-2.4-19.4l-90-1.1
		c-5.9-0.1-11.3-3.5-13.7-8.9c-2.7-5.3-1.8-11.7,1.9-16.3l5.4-6.7c0.4-1.1,1.1-2.1,1.8-3l77.4-95.5c5.3-6.7,15.1-7.7,21.6-2.3
		c6.6,5.3,7.7,15,2.3,21.7v0.1l-52.3,65l56.3-7.9c0.1,0,0.3,0.1,0.4,0c11.4-4.2,25.7-6.4,44.1-6.4h5h5.1
		C247.8,197.3,267.8,213.3,280.7,239.6z M249.7,211.8c-5.9-3.2-12.8-5.7-21.1-7.4l-83.9,150H170L249.7,211.8z M234.7,64.2h-81.8
		l-8.9,44.2h99.5L234.7,64.2z M295.5,184.6l-1.7-1.7l25-25.1l1.8,1.7l11.2-11.3l-6-6l-11.3,11.3l0.8,0.8l-25,25l-5.3-5.2l-8.2-8.2
		l-4,4l8.4,8.3l-23.8,23.8l-4-1.5l-2.3,2.2c6.8,3.4,12.8,7.7,18,13L295.5,184.6z"/>
</g>
</svg>
