<?xml version="1.0" encoding="utf-8"?>
<!-- Generator: Adobe Illustrator 18.1.1, SVG Export Plug-In . SVG Version: 6.00 Build 0)  -->
<svg version="1.1" id="Layer_3" xmlns="http://www.w3.org/2000/svg" xmlns:xlink="http://www.w3.org/1999/xlink" x="0px" y="0px"
	 viewBox="0 0 360 360" enable-background="new 0 0 360 360" xml:space="preserve">
<g>
	<path d="M266.9,110.5l-24.8-42.4l25-42.8c1.3-2.3,1.3-5.1,0-7.4s-3.8-3.7-6.4-3.7H134.5c-0.1-4-3.4-7.2-7.4-7.2
		c-4.1,0-7.4,3.3-7.4,7.4v287.1c0,4.1,3.3,7.4,7.4,7.4s7.4-3.3,7.4-7.4V121.9h126.2c0,0,0,0,0,0c4.1,0,7.4-3.3,7.4-7.4
		C268.1,113.1,267.7,111.7,266.9,110.5z M134.5,107.2V29h113.4l-20.7,35.4c-1.3,2.3-1.3,5.1,0,7.4l20.7,35.4L134.5,107.2
		L134.5,107.2z"/>
</g>
<path fill="#00A700" d="M209.9,292c-2-2-5.2-2-7.1,0l-4.7,4.7l-45.8-101.2c-0.6-1.2-1.6-2.2-2.9-2.7c-1.3-0.5-2.7-0.4-3.9,0.2
	l-79.9,40.2c-1.1,0.5-1.9,1.4-2.3,2.5L17.3,336.9l-4.7-4.7c-2-2-5.2-2-7.1,0c-2,2-2,5.2,0,7.1l9.8,9.8c2.4,2.4,6.6,1.8,8.2-1.5
	l5.2-11.5h20.9l17.5-37.8l17.5,37.8h22.2l5.2,11.5c1.4,3,5.5,4.1,8.2,1.5l9.8-9.8c2-2,2-5.2,0-7.1c-2-2-5.2-2-7.1,0l-4.7,4.7
	l-42.3-93.4c-0.9-1.9-0.1-4.1,1.8-5l0,0c1.9-1,4.3-0.2,5.2,1.8l38.7,83l63.8-30.4l6.6,14.6c1.5,3.2,5.6,4,8.2,1.5l9.8-9.8
	C211.9,297.2,211.9,294,209.9,292z"/>
<path fill="#005700" d="M352.1,291.8c-2-2-5.2-2-7.1,0l-4.7,4.7l-45.8-101.2c-0.6-1.2-1.6-2.2-2.9-2.7c-1.3-0.5-2.7-0.4-3.9,0.2
	l-79.9,40.2c-1.1,0.5-1.9,1.4-2.3,2.5l-45.8,101.1l-4.7-4.7c-2-2-5.2-2-7.1,0c-2,2-2,5.2,0,7.1l9.8,9.8c2.4,2.4,6.6,1.8,8.2-1.5
	l5.2-11.5h20.9l17.5-37.8l17.5,37.8H249l5.2,11.5c1.4,3,5.5,4.1,8.2,1.5l9.8-9.8c2-2,2-5.2,0-7.1c-2-2-5.2-2-7.1,0l-4.7,4.7
	L218,243.2c-0.9-1.9-0.1-4.1,1.8-5l0,0c1.9-1,4.3-0.2,5.2,1.8l38.7,83l63.8-30.4l6.6,14.6c1.5,3.2,5.6,4,8.2,1.5l9.8-9.8
	C354,296.9,354,293.7,352.1,291.8z"/>
</svg>
