<?xml version="1.0" encoding="utf-8"?>
<!-- Generator: Adobe Illustrator 18.1.1, SVG Export Plug-In . SVG Version: 6.00 Build 0)  -->
<svg version="1.1" id="Layer_3" xmlns="http://www.w3.org/2000/svg" xmlns:xlink="http://www.w3.org/1999/xlink" x="0px" y="0px"
	 viewBox="0 0 360 360" enable-background="new 0 0 360 360" xml:space="preserve">
<path stroke="#FFFFFF" stroke-width="0.8936" stroke-miterlimit="10" d="M90.6,52.4"/>
<path fill="#2EC1FF" d="M58.6,105.4h95.6V9.8h47.8v95.6h95.6v47.8h-95.6v191.3h-47.8V153.2H58.6V105.4z"/>
<g>
	<path id="t" fill="none" stroke="#0000FF" stroke-width="13.678" d="M27.5,224.4l61.6,107.1l61.6-107.1H27.5z"/>
	<g transform="matrix(1,0,0,-1,0,300)">
		<path id="t_1_" fill="none" stroke="#0000FF" stroke-width="13.678" d="M27.5,296.2l61.6-107.1l61.6,107.1H27.5z"/>
	</g>
</g>
<g>
	<path id="path1315" fill="#B55CFF" d="M239.8,177.1c-45.4,0.9-81.9,38-81.9,83.5c0,46.1,37.4,83.6,83.6,83.6
		c21.6,0,41.2-8.2,56.1-21.6c-10.5,6-22.6,9.4-35.5,9.4c-39.4,0-71.3-32-71.3-71.3s32-71.3,71.3-71.3c13,0,25.2,3.5,35.7,9.6
		c-14.9-13.6-34.6-21.8-56.3-21.8C240.9,177.1,240.3,177.1,239.8,177.1z"/>
	<path id="path3098" fill="#B55CFF" d="M351,260.7l-71.9,23.4l44.4-61.2v75.6l-44.4-61.2L351,260.7z"/>
</g>
</svg>
