<?xml version="1.0" encoding="utf-8"?>
<!-- Generator: Adobe Illustrator 18.1.1, SVG Export Plug-In . SVG Version: 6.00 Build 0)  -->
<svg version="1.1" id="Layer_3" xmlns="http://www.w3.org/2000/svg" xmlns:xlink="http://www.w3.org/1999/xlink" x="0px" y="0px"
	 viewBox="0 0 360 360" enable-background="new 0 0 360 360" xml:space="preserve">
<path stroke="#FFFFFF" stroke-width="0.8936" stroke-miterlimit="10" d="M90.6,52.4"/>
<g>
	<path fill="#F69A7A" stroke="#FFFFFF" stroke-width="1.7872" stroke-miterlimit="10" d="M86.3,237.3l0,101.3
		c0,18.2-27.3,18.2-27.3,0l0-101.3H22.8L61.6,103h-6.1l-22.8,76.7c-5.4,16.7-28.4,9.9-23.2-8.1l25.3-83.4
		c2.7-9.5,14.7-26.4,35.6-26.4h19.2l0,0h20.7c20.6,0,32.7,17,35.8,26.4l25.3,83.3c5.1,17.9-17.7,25.3-23.2,7.9L125.4,103h-6.6
		L158,237.3h-36.4v101.5c0,18.1-27.2,18-27.2,0V237.3H86.3z"/>
</g>
<g>
	<path fill="#10167F" d="M253.2,61.8c-20.4,0-36.8,16.9-36.8,37.9v89.6c0,17.4,25.1,17.4,25.1,0v-82h6v227.1
		c0,23.3,33.5,22.6,33.5,0V201.5h5.8v132.9c0,22.6,33.7,23.3,33.7,0V107.4h5.8v82c0,17.6,25,17.6,25,0v-89.1
		c0-19.4-14.8-38.4-37.2-38.4L253.2,61.8z"/>
</g>
<g>
	<circle fill="#10167F" stroke="#FFFFFF" stroke-width="1.7872" stroke-miterlimit="10" cx="283.8" cy="52.4" r="29"/>
	<path fill="#5D5D5D" stroke="#FFFFFF" stroke-width="1.7872" stroke-miterlimit="10" d="M283.8,52.4"/>
</g>
<g>
	<circle fill="#F69A7A" stroke="#FFFFFF" stroke-width="1.7872" stroke-miterlimit="10" cx="90.4" cy="52.4" r="29"/>
	<path stroke="#FFFFFF" stroke-width="1.7872" stroke-miterlimit="10" d="M90.4,52.4"/>
</g>
<circle fill="#F69A7A" cx="90.4" cy="25" r="13.7"/>
<path fill="#10167F" d="M321,35.7h-74.3c-1.6,0-3,1.3-3,3v0c0,1.6,1.3,3,3,3H321c1.6,0,3-1.3,3-3v0C324,37,322.6,35.7,321,35.7z"/>
<path fill="#10167F" d="M300.8,46.4h-33.9c-6.6,0-12-5.4-12-12V19.7c0-6.6,5.4-12,12-12h33.9c6.6,0,12,5.4,12,12v14.7
	C312.8,41,307.4,46.4,300.8,46.4z"/>
<g>
	<path fill="#F69A7A" d="M181.9,172.2h1c1.8,0,3.3,1.5,3.3,3.3v172.9c0,1.8-1.5,3.3-3.3,3.3h-1c-1.8,0-3.3-1.5-3.3-3.3V175.5
		C178.6,173.7,180.1,172.2,181.9,172.2z"/>
	<path fill="#F69A7A" d="M186.2,175.5v1c0,1.8-1.5,3.3-3.3,3.3h-30c-1.8,0-3.3-1.5-3.3-3.3v-1c0-1.8,1.5-3.3,3.3-3.3h30
		C184.7,172.2,186.2,173.7,186.2,175.5z"/>
</g>
<g>
	<path fill="#10167F" d="M208.6,190.4h-1c-1.8,0-3.3,1.5-3.3,3.3v154.6c0,1.8,1.5,3.3,3.3,3.3h1c1.8,0,3.3-1.5,3.3-3.3V193.7
		C211.9,191.9,210.4,190.4,208.6,190.4z"/>
	<path fill="#10167F" d="M204.3,193.7v1c0,1.8,1.5,3.3,3.3,3.3h30c1.8,0,3.3-1.5,3.3-3.3v-1c0-1.8-1.5-3.3-3.3-3.3h-30
		C205.8,190.4,204.3,191.9,204.3,193.7z"/>
</g>
</svg>
