<?xml version="1.0" encoding="utf-8"?>
<!-- Generator: Adobe Illustrator 18.1.1, SVG Export Plug-In . SVG Version: 6.00 Build 0)  -->
<svg version="1.1" id="Layer_3" xmlns="http://www.w3.org/2000/svg" xmlns:xlink="http://www.w3.org/1999/xlink" x="0px" y="0px"
	 viewBox="0 0 360 360" enable-background="new 0 0 360 360" xml:space="preserve">
<path fill="#10167F" d="M11.5,242.7c-1.4-9.1-1.9-17.8-1.9-25.5c0-4.1,0.1-8.2,0.4-12.1c0.7-9.2,8.1-16.6,17.2-17.2
	c9.8-0.7,23-0.8,37.6,1.4L11.5,242.7z M115.2,346.5c14.6,2.2,27.8,2.1,37.6,1.4c9.2-0.7,16.6-8.1,17.2-17.2c0.3-4,0.4-8,0.4-12.1
	c0,0,0,0,0,0c0-7.7-0.5-16.3-1.9-25.5L115.2,346.5z M75.6,191.3c19.9,4.4,41.3,13.4,60,30.9c0.1,0.1,0.1,0.1,0.2,0.2
	c17.3,18.5,26.4,40,30.8,60l-62.1,62.1c-19.9-4.4-41.3-13.4-60-30.9c-0.1-0.1-0.1-0.1-0.2-0.2c-17.3-18.5-26.4-40-30.8-60
	L75.6,191.3z M75.9,234.6l-6.4,6.4l-5-5c-1.8-1.8-4.6-1.8-6.3,0c-1.8,1.8-1.8,4.6,0,6.3l5,5l-6.4,6.4c-1.8,1.8-1.8,4.6,0,6.3
	c1.8,1.8,4.6,1.8,6.3,0l6.4-6.4l7.3,7.3l-6.4,6.4c-1.8,1.8-1.8,4.6,0,6.3c1.8,1.8,4.6,1.8,6.3,0l6.4-6.4l7.3,7.3l-6.4,6.4
	c-1.8,1.8-1.8,4.6,0,6.3c1.8,1.8,4.6,1.8,6.3,0l6.4-6.4l7.3,7.3l-6.4,6.4c-1.8,1.8-1.8,4.6,0,6.3c1.8,1.8,4.6,1.8,6.3,0l6.4-6.4l5,5
	c1.8,1.8,4.6,1.8,6.3,0c0.9-0.9,1.3-2,1.3-3.2c0-1.1-0.4-2.3-1.3-3.2l-5-5l6.4-6.4c0.9-0.9,1.3-2,1.3-3.2c0-1.1-0.4-2.3-1.3-3.2
	c-1.8-1.8-4.6-1.8-6.3,0l-6.4,6.4l-7.3-7.3l6.4-6.4c0.9-0.9,1.3-2,1.3-3.2s-0.4-2.3-1.3-3.2c-1.8-1.8-4.6-1.8-6.3,0l-6.4,6.4
	l-7.3-7.3l6.4-6.4c0.9-0.9,1.3-2,1.3-3.2c0-1.1-0.4-2.3-1.3-3.2c-1.8-1.8-4.6-1.8-6.3,0l-6.4,6.4l-7.3-7.3l6.4-6.4
	c0.9-0.9,1.3-2,1.3-3.2c0-1.1-0.4-2.3-1.3-3.2C80.5,232.9,77.7,232.9,75.9,234.6z"/>
<g>
	<g>
		<path fill="#FF9600" d="M250,57.7c-2.3-0.3-4.7-0.6-6.9-0.8c-5.1,10.7-8.5,22.2-10,34.5c15.6-0.1,41.7,6.4,50,47.6
			c4.1,20.4,13.8,30.8,30.2,31.9c13.5-7.7,24.7-18.9,32.4-32.4C332.3,96.9,296.2,64.3,250,57.7z"/>
		<path fill="#FF9600" d="M225.1,99.3c-11.9,1.8-20.2,6.5-24.7,14c-6.3,10.6-3.8,24.4-1.9,31.2c12.1,17.6,30.5,30.6,52,35.5
			c-16.1-20.2-25.5-46.1-25.5-75.2C225,103,225,101.2,225.1,99.3z"/>
		<path fill="#FF9600" d="M238.8,49.4c3.3-6.2,7.1-12,11.4-17.5c-10.2-3.6-13.4-11.1-13.7-16.6c-21,8.9-37.8,25.7-46.5,46.8
			c13.3-8.3,28.6-12.7,45.4-12.7C236.5,49.4,237.6,49.4,238.8,49.4z"/>
		<path fill="#FF9600" d="M225.7,91.9c1.4-12.4,4.7-24.3,9.6-35.3c-19.5,0-35.8,6.1-49.1,16.7c-1.9,7-2.8,14.4-2.8,22
			c0,11.1,2.1,21.7,5.8,31.4c0.3-5.7,1.7-11.7,5-17.2C200,99.8,210.6,93.9,225.7,91.9z"/>
		<path fill="#FF9600" d="M255.3,25.8c5.7-6.4,12.2-12.2,19.2-17.2c-1.4-0.1-2.9-0.1-4.3-0.1c-16.7,0-26.4,4.5-26.4,4.5
			C243.7,14.1,242.6,22.9,255.3,25.8z"/>
		<path fill="#FF9600" d="M340.7,44.6l-0.2,0.1c-16.3-20.3-42.6-9.8-42.8-9.7c-7.1,3-20.2,2.5-39.8-1.3c-4.2,5-8,10.4-11.2,16.2
			c1.4,0.1,2.9,0.3,4.3,0.5c33.1,4.8,62.4,22.2,82.5,48.9c7,9.3,12.6,19.4,16.6,30c4.5-10.4,6.9-22,6.9-34
			C357.1,76.4,351,58.9,340.7,44.6z"/>
		<path fill="#FF9600" d="M295,28.3c6.1-2.5,16.4-4.7,27.2-2.6c-10.6-7.9-23-13.4-36.5-15.9c-8.1,4.9-15.5,10.9-22,17.6
			C282.8,30.8,291.2,29.9,295,28.3z"/>
		<path fill="#FF9600" d="M275.9,140.4c-7.2-35.9-28.6-42.1-43.5-41.8c-0.1,2-0.2,4.1-0.2,6.2c0,29.9,10.7,57,29.4,77
			c2.8,0.3,5.7,0.4,8.6,0.4c11.3,0,22.1-2.2,32.1-6.1C288.6,171.6,279.7,159.7,275.9,140.4z"/>
	</g>
</g>
<g>
	<circle fill="#FFFFFF" cx="91" cy="89" r="79.6"/>
	<path fill="#FE230A" d="M159.7,41.8c-12.6-18.2-31.5-30.4-53.3-34.4c-5-0.9-10-1.4-15-1.4C51.5,6,17.2,34.6,10,74
		c-8.2,44.9,21.6,88.2,66.6,96.4c5,0.9,10,1.4,15,1.4c0,0,0,0,0,0c40,0,74.2-28.6,81.4-67.9C177,82,172.3,60,159.7,41.8z M18.3,75.5
		c2.6-14.4,9.3-27.2,18.7-37.3c1.9,2.1,3.7,4.2,5.4,6.5L39,48c-1.7,1.6-1.7,4.3-0.1,6c0.8,0.9,1.9,1.3,3,1.3c1.1,0,2.1-0.4,2.9-1.2
		l2.3-2.2c1.5,2.6,2.8,5.3,4,8l-4.8,2.1c-2.1,0.9-3.1,3.4-2.2,5.5c0.7,1.6,2.2,2.6,3.9,2.6c0.6,0,1.1-0.1,1.7-0.3l4.3-1.9
		c0.8,2.9,1.5,5.8,2,8.7l-4,0.4c-2.3,0.2-4,2.3-3.8,4.6c0.2,2.2,2,3.8,4.2,3.8c0.1,0,0.3,0,0.4,0l4.1-0.4c0.1,2.8,0.1,5.6,0,8.5
		L52.8,93c-2.3-0.2-4.4,1.5-4.6,3.8c-0.2,2.3,1.5,4.4,3.8,4.6l3.9,0.4c0,0.2-0.1,0.3-0.1,0.5c-0.5,2.8-1.2,5.5-2,8.1l-4.2-1.8
		c-2.1-0.9-4.6,0.1-5.5,2.2c-0.9,2.1,0.1,4.6,2.2,5.5l4.6,2c-1.2,2.7-2.5,5.4-4,7.9l-2.1-2c-1.7-1.6-4.3-1.6-6,0.1
		c-1.6,1.7-1.6,4.3,0.1,6l3.2,3.1c-1.6,2.1-3.3,4.2-5.1,6.1C21.6,122.9,13.9,99.5,18.3,75.5z M91.6,163.3c-4.5,0-9-0.4-13.5-1.2
		c-13.4-2.5-25.3-8.4-35-16.7c1.8-1.9,3.6-4,5.2-6.1l3,2.9c0.8,0.8,1.9,1.2,2.9,1.2c1.1,0,2.2-0.4,3-1.3c1.6-1.7,1.6-4.3-0.1-6
		l-4-3.9c2.1-3.4,3.9-6.9,5.5-10.6l3.3,1.4c0.5,0.2,1.1,0.3,1.7,0.3c1.6,0,3.2-1,3.9-2.6c0.9-2.1-0.1-4.6-2.2-5.5l-3.7-1.6
		c1-3.3,1.9-6.6,2.5-10c0.1-0.4,0.1-0.8,0.2-1.2L69,103c0.1,0,0.3,0,0.4,0c2.1,0,4-1.6,4.2-3.8c0.2-2.3-1.5-4.4-3.8-4.6l-4.6-0.4
		c0.2-3.4,0.2-6.8,0-10.1l4.5-0.4c2.3-0.2,4-2.3,3.8-4.6c-0.2-2.3-2.3-4-4.6-3.8l-4.6,0.5c-0.6-3.8-1.5-7.6-2.6-11.3l3.6-1.5
		c2.1-0.9,3.1-3.4,2.2-5.5c-0.9-2.1-3.4-3.1-5.5-2.2l-3.2,1.4c-1.6-3.7-3.4-7.3-5.5-10.7l3.8-3.7c1.7-1.6,1.7-4.3,0.1-6
		s-4.3-1.7-6-0.1l-2.8,2.7c-1.7-2.2-3.5-4.3-5.4-6.4c13.1-11.2,30-17.9,48.3-17.9c4.5,0,9,0.4,13.5,1.2c13,2.4,24.9,8,34.7,16.4
		c-2,2.1-3.9,4.4-5.7,6.7l-2.8-2.7c-1.7-1.6-4.3-1.6-6,0.1c-1.6,1.7-1.6,4.3,0.1,6l3.8,3.7c-2.1,3.4-3.9,7-5.5,10.7l-3.2-1.4
		c-2.1-0.9-4.6,0.1-5.5,2.2c-0.9,2.1,0.1,4.6,2.2,5.5l3.6,1.5c-1.1,3.7-2,7.4-2.6,11.3l-4.6-0.5c-2.3-0.2-4.4,1.5-4.6,3.8
		c-0.2,2.3,1.5,4.4,3.8,4.6l4.5,0.4c-0.2,3.4-0.2,6.7,0,10.1l-4.6,0.4c-2.3,0.2-4,2.3-3.8,4.6c0.2,2.2,2,3.8,4.2,3.8
		c0.1,0,0.3,0,0.4,0l4.7-0.5c0.1,0.4,0.1,0.8,0.2,1.2c0.6,3.4,1.5,6.7,2.5,10l-3.7,1.6c-2.1,0.9-3.1,3.4-2.2,5.5
		c0.7,1.6,2.2,2.6,3.9,2.6c0.6,0,1.1-0.1,1.7-0.3l3.3-1.4c1.6,3.7,3.4,7.2,5.5,10.6l-4,3.9c-1.7,1.6-1.7,4.3-0.1,6
		c0.8,0.9,1.9,1.3,3,1.3c1.1,0,2.1-0.4,2.9-1.2l3-2.9c1.7,2.2,3.5,4.3,5.4,6.4C126.6,156.8,109.7,163.3,91.6,163.3z M164.7,102.3
		c-2.7,14.6-9.4,27.5-19,37.6c-2-2.1-3.8-4.2-5.5-6.5l3.2-3.1c1.7-1.6,1.7-4.3,0.1-6c-1.6-1.7-4.3-1.7-6-0.1l-2.1,2
		c-1.5-2.5-2.8-5.2-4-7.9l4.6-2c2.1-0.9,3.1-3.4,2.2-5.5c-0.9-2.1-3.4-3.1-5.5-2.2l-4.2,1.8c-0.8-2.7-1.5-5.4-2-8.1
		c0-0.2-0.1-0.3-0.1-0.5l3.9-0.4c2.3-0.2,4-2.3,3.8-4.6c-0.2-2.3-2.3-4-4.6-3.8l-4.1,0.4c-0.2-2.8-0.2-5.7,0-8.5l4.1,0.4
		c0.1,0,0.3,0,0.4,0c2.1,0,4-1.6,4.2-3.8c0.2-2.3-1.5-4.4-3.8-4.6l-4-0.4c0.5-2.9,1.2-5.9,2-8.7l4.3,1.9c0.5,0.2,1.1,0.3,1.7,0.3
		c1.6,0,3.2-1,3.9-2.6c0.9-2.1-0.1-4.6-2.2-5.5l-4.8-2.1c1.2-2.7,2.5-5.4,4-8l2.3,2.2c0.8,0.8,1.9,1.2,2.9,1.2c1.1,0,2.2-0.4,3-1.3
		c1.6-1.7,1.6-4.3-0.1-6l-3.4-3.3c1.7-2.4,3.6-4.6,5.7-6.8c2.5,2.7,4.9,5.6,7,8.7C164,63,168.3,82.7,164.7,102.3z"/>
</g>
<g>
	<path d="M247.7,206c-9.6,3.9-18.2,9.6-25.6,17c-7.4,7.4-13.1,16-17,25.6c-3.8,9.3-5.7,19.1-5.7,29.2c0,10.1,1.9,19.9,5.7,29.2
		c3.9,9.6,9.6,18.2,17,25.6c7.4,7.4,16,13.1,25.6,17c9.3,3.8,19.1,5.7,29.2,5.7s19.9-1.9,29.2-5.7c9.6-3.9,18.2-9.6,25.6-17
		c7.4-7.4,13.1-16,17-25.6c3.8-9.3,5.7-19.1,5.7-29.2c0-10.1-1.9-19.9-5.7-29.2c-3.9-9.6-9.6-18.2-17-25.6c-7.4-7.4-16-13.1-25.6-17
		c-9.3-3.8-19.1-5.7-29.2-5.7S257,202.3,247.7,206z M218.7,310.5c-3.7-2.3-7.2-5-10.2-8.2c-4.7-13.1-5.4-27.3-2.4-40.7
		c1.5-2.9,3.1-5.6,5-8.2c0.6-0.8,1.1-1.7,1.7-2.4l17.5,10.4c0,0.1,0,0.3,0,0.4c0,9.4,0.9,18.7,2.8,28c0,0,0,0.1,0,0.1L219.6,311
		C219.3,310.8,219,310.7,218.7,310.5z M270.8,346.5c3,1.5,6.1,2.8,9.3,3.9c-13.5,0.6-27.2-2.6-39.3-9.5l29.3,5.2
		C270.3,346.2,270.5,346.3,270.8,346.5z M270.7,341.2L236,335c-4-4.9-7.7-10.1-10.8-15.7c-0.8-1.4-1.7-2.8-2.4-4.3l13.6-21.3
		c0.3,0.1,0.6,0.2,1,0.3c8.5,2.3,17.1,3.9,25.8,5.1c0.5,0.1,0.9,0.1,1.3,0.2l16.2,28.1c-2.8,4-5.7,7.9-8.6,11.8
		C271.7,339.9,271.2,340.6,270.7,341.2z M328.2,329.2c-2.8,2.8-5.7,5.2-8.7,7.5c-0.5-4.1-1.4-8-2.6-11.9l17.3-32.3
		c4.8-2.2,9.4-4.6,13.7-7.7c0.6-0.4,1-0.8,1.4-1.3C348,300.1,341,316.5,328.2,329.2z M327.5,287.3c0.6,1.2,1.3,2.5,1.9,3.7
		l-16.7,31.2c-0.1,0-0.2,0-0.3,0.1c-9.1,1.7-18.2,2.6-27.4,2.6L268.3,296c2.6-4.8,5.2-9.7,7.7-14.5c1.7-3.3,3.4-6.6,5.1-9.9
		l34.6-3.6C320,274.2,324,280.6,327.5,287.3z M320.4,250.2c-1.6,4.3-3.4,8.6-5.1,12.9l-33.7,3.5c-0.4-0.5-0.8-1.1-1.3-1.6
		c-4-4.5-8-9-12-13.5c0,0,0.1-0.1,0.1-0.1c-1.6-1.6-3.2-3.2-4.8-4.8l9.4-28.2c0.6-0.2,1.3-0.3,2-0.4c5.1-0.5,10.2-1.1,15.3-1.4
		c3.1-0.2,6.3-0.3,9.5-0.1l23.2,26.2C322.2,245.2,321.4,247.7,320.4,250.2z M328.2,226.5c6.4,6.4,11.4,13.7,14.9,21.5
		c-4.3-3-9-5.4-13.8-7.4c-0.8-0.3-1.5-0.6-2.3-0.9L304.1,214c0.2-1.1,0.2-2.2,0.3-3.3C313,214.2,321.2,219.5,328.2,226.5z
		 M253.6,209.3c0.1,0.1,0.1,0.1,0.2,0.1c5.2,1.8,10,4.5,14.4,7.6l-8.8,26.4c0,0-0.1,0-0.1,0c-1.8,0.7-3.6,1.4-5.4,2.2
		c-7.3,3.3-14.4,7-21,11.4l-17.3-10.2c0-0.5,0.1-1.1,0.3-1.6c1.2-3.1,2.3-6.2,3.6-9.2c1-2.3,2.2-4.6,3.4-6.8
		c0.8-0.9,1.7-1.8,2.6-2.7c8.2-8.2,17.9-14,28.2-17.5C253.8,209.1,253.7,209.2,253.6,209.3z"/>
</g>
<g>
	<g>
		<path fill="#7C81B8" stroke="#000000" stroke-width="6" stroke-miterlimit="10" d="M260.7,93.1l-121.8,61.2
			c-29.7,14.9-44.3,48.1-37.1,79.2c-5.8-2-12.4-1.8-18.4,1.2c-11.7,5.9-16.5,20.2-10.6,32c5.9,11.7,20.2,16.5,32,10.6
			c5.9-3,10.1-8.1,12-14c20.6,24.3,55.9,32.5,85.7,17.5c31.3-15.7,45.8-51.6,35.9-84l59.4-29.9c6.5-3.3,9.1-11.2,5.9-17.7L278.4,99
			C275.2,92.5,267.2,89.8,260.7,93.1z M98.3,264.3c-4.6,2.3-10.2,0.4-12.5-4.1c-2.3-4.6-0.4-10.2,4.1-12.5
			c4.6-2.3,10.2-0.5,12.5,4.1C104.7,256.4,102.9,262,98.3,264.3z"/>
		<path stroke="#000000" stroke-width="6" stroke-miterlimit="10" d="M90.2,171.4c3.3,2.3,7.8,1.5,10.1-1.8
			c2.3-3.3,1.5-7.8-1.8-10.1l-32.5-22.9c-3.3-2.3-7.8-1.5-10.1,1.8c-2.3,3.3-1.5,7.8,1.8,10.1L90.2,171.4z"/>
		<path stroke="#000000" stroke-width="6" stroke-miterlimit="10" d="M52.2,199.7l39.2-6.8c2-0.3,3.6-1.4,4.7-3
			c1.1-1.5,1.6-3.4,1.2-5.4c-0.7-4-4.4-6.6-8.4-5.9l-39.2,6.8c-4,0.7-6.6,4.4-5.9,8.4C44.5,197.8,48.3,200.4,52.2,199.7z"/>
		<path stroke="#000000" stroke-width="6" stroke-miterlimit="10" d="M113.4,161.7c2-0.3,3.6-1.5,4.7-3c1.1-1.5,1.6-3.4,1.2-5.4
			l-6.8-39.2c-0.7-4-4.4-6.6-8.4-5.9c-3.9,0.7-6.6,4.5-5.9,8.4l6.8,39.2C105.7,159.8,109.4,162.4,113.4,161.7z"/>
	</g>
</g>
</svg>
