<?xml version="1.0" encoding="utf-8"?>
<!-- Generator: Adobe Illustrator 18.1.1, SVG Export Plug-In . SVG Version: 6.00 Build 0)  -->
<svg version="1.1" id="Layer_3" xmlns="http://www.w3.org/2000/svg" xmlns:xlink="http://www.w3.org/1999/xlink" x="0px" y="0px"
	 viewBox="0 0 360 360" enable-background="new 0 0 360 360" xml:space="preserve">
<g>
	<path d="M232.8,304.9C232.8,304.9,232.8,304.9,232.8,304.9c-11.4-17.8-12.8-54.3-13-56.7V248h-77.6c0,0-1,38.3-12.9,56.9
		c-4.4,0-7.9,3.5-7.9,7.9c0,4.4,3.5,7.9,7.9,7.9H232c4.4,0,7.9-3.5,7.9-7.9C239.9,308.7,236.8,305.3,232.8,304.9z"/>
	<path d="M344.2,5.3h-327c-6.9,0-12.5,5.6-12.5,12.5v217.7c0,6.9,5.6,12.5,12.5,12.5h327c6.9,0,12.5-5.6,12.5-12.5V17.8
		C356.7,10.9,351.1,5.3,344.2,5.3z M339,203H22.4V22.9H339L339,203L339,203z"/>
</g>
<g>
	<path fill="#FFFFFF" stroke="#000000" stroke-width="2" stroke-miterlimit="10" d="M142.5,181.2H38.1c-3.6,0-6.5,2.9-6.5,6.5v145.5
		c0,3.6,2.9,6.5,6.5,6.5h104.4c3.6,0,6.5-2.9,6.5-6.5V187.7C149,184.1,146.1,181.2,142.5,181.2z M91.8,336.7c-3.3,0-6-2.7-6-6
		c0-3.3,2.7-6,6-6s6,2.7,6,6C97.8,334,95.1,336.7,91.8,336.7z M137,319.7H43.6V193.3H137V319.7z"/>
	<rect x="43.6" y="193.3" fill="#0000FF" width="93.3" height="126.5"/>
</g>
<g>
	
		<rect x="211.4" y="265.4" fill="#FFFFFF" stroke="#000000" stroke-width="1.3794" stroke-miterlimit="10" width="91.4" height="81.4"/>
	
		<rect x="213.8" y="180.6" fill="#FFFFFF" stroke="#000000" stroke-width="1.9648" stroke-miterlimit="10" width="86.2" height="49"/>
	<circle cx="281.1" cy="327.5" r="9.1"/>
	<line fill="none" stroke="#000000" stroke-width="1.2078" stroke-miterlimit="10" x1="266.9" y1="336.6" x2="219.8" y2="336.6"/>
	<line fill="none" stroke="#000000" stroke-width="1.2078" stroke-miterlimit="10" x1="266.9" y1="330.6" x2="219.8" y2="330.6"/>
	<line fill="none" stroke="#000000" stroke-width="1.2078" stroke-miterlimit="10" x1="266.9" y1="330.6" x2="219.8" y2="330.6"/>
	<line fill="none" stroke="#000000" stroke-width="1.2078" stroke-miterlimit="10" x1="266.9" y1="324.5" x2="219.8" y2="324.5"/>
	<line fill="none" stroke="#000000" stroke-width="1.2078" stroke-miterlimit="10" x1="266.9" y1="324.5" x2="219.8" y2="324.5"/>
	<line fill="none" stroke="#000000" stroke-width="1.2078" stroke-miterlimit="10" x1="266.9" y1="318.5" x2="219.8" y2="318.5"/>
	<line fill="none" stroke="#000000" stroke-width="1.2078" stroke-miterlimit="10" x1="266.9" y1="318.4" x2="219.8" y2="318.4"/>
	<line fill="none" stroke="#000000" stroke-width="1.2078" stroke-miterlimit="10" x1="290.2" y1="312.4" x2="219.8" y2="312.4"/>
	<line fill="none" stroke="#000000" stroke-width="1.2078" stroke-miterlimit="10" x1="290.2" y1="306.4" x2="219.8" y2="306.4"/>
	<line fill="none" stroke="#000000" stroke-width="1.4761" stroke-miterlimit="10" x1="290.2" y1="300.3" x2="219.8" y2="300.3"/>
	<line fill="none" stroke="#000000" stroke-width="1.2078" stroke-miterlimit="10" x1="290.2" y1="294.3" x2="219.8" y2="294.3"/>
	<line fill="none" stroke="#000000" stroke-width="1.2078" stroke-miterlimit="10" x1="290.2" y1="288.3" x2="219.8" y2="288.3"/>
	<path fill="#FF0000" stroke="#FFFFFF" stroke-width="2" stroke-miterlimit="10" d="M332.2,225.7H181.5c-5.9,0-10.8,4.8-10.8,10.8
		v53.8c0,6,4.8,10.8,10.8,10.8H203v43.1c0,6,4.8,10.8,10.8,10.8h86.2c6,0,10.8-4.8,10.8-10.8v-43.1h21.5c6,0,10.8-4.8,10.8-10.8
		v-53.8C343,230.5,338.2,225.7,332.2,225.7z M299.9,344.2h-86.2v-75.4h86.2V344.2z M321.5,258c-6,0-10.8-4.8-10.8-10.8
		c0-5.9,4.8-10.8,10.8-10.8s10.8,4.8,10.8,10.8C332.2,253.2,327.4,258,321.5,258z"/>
</g>
<path fill="#00FF00" stroke="#000000" stroke-width="2" stroke-miterlimit="10" d="M216.2,118c0,13.4-10.9,24.3-24.3,24.3
	c-13.4,0-24.3-10.9-24.3-24.3c0-13.4,10.9-24.3,24.3-24.3C205.3,93.7,216.2,104.6,216.2,118z M256.7,85.6v64.7
	c0,8.9-7.2,16.2-16.2,16.2h-121c-8.9,0-16.2-7.2-16.2-16.2V85.6c0-8.9,7.2-16.2,16.2-16.2h48.2V43.6c0-4.5,3.6-8.1,8.1-8.1h32.4
	c4.5,0,8.1,3.6,8.1,8.1v25.8h24.3C249.4,69.4,256.7,76.7,256.7,85.6z M224.3,118c0-17.8-14.5-32.4-32.4-32.4
	c-17.8,0-32.4,14.5-32.4,32.4s14.5,32.4,32.4,32.4C209.8,150.3,224.3,135.8,224.3,118z"/>
<circle fill="#FFFFFF" cx="321.5" cy="247.2" r="10.8"/>
<path fill="#FFFFFF" d="M147.2,95.6h-1.7c-1.7,0-3.1-1.4-3.1-3.1v-1.7c0-1.7,1.4-3.1,3.1-3.1h1.7c1.7,0,3.1,1.4,3.1,3.1v1.7
	C150.3,94.3,148.9,95.6,147.2,95.6z"/>
<path fill="#FFFFFF" d="M123.7,85.8h-9.4c-2.5,0-4.6-2.1-4.6-4.6v-2.6c0-2.5,2.1-4.6,4.6-4.6h9.4c2.5,0,4.6,2.1,4.6,4.6v2.6
	C128.3,83.8,126.2,85.8,123.7,85.8z"/>
<circle fill="#FFFFFF" stroke="#000000" stroke-width="2" stroke-miterlimit="10" cx="191.7" cy="117.7" r="25.2"/>
<path fill="#FFFFFF" d="M204.4,39.4h-24.9c-4.1,0-7.5,3.4-7.5,7.5v0c0,4.1,3.4,7.5,7.5,7.5h24.9c4.1,0,7.5-3.4,7.5-7.5v0
	C211.8,42.8,208.5,39.4,204.4,39.4z"/>
</svg>
