<?xml version="1.0" encoding="utf-8"?>
<!-- Generator: Adobe Illustrator 18.1.1, SVG Export Plug-In . SVG Version: 6.00 Build 0)  -->
<svg version="1.1" id="Layer_3" xmlns="http://www.w3.org/2000/svg" xmlns:xlink="http://www.w3.org/1999/xlink" x="0px" y="0px"
	 viewBox="0 0 360 360" enable-background="new 0 0 360 360" xml:space="preserve">
<g>
	<g>
		<path fill="#0F00D0" d="M149.3,295.9c-2.2-3.1-3.9-4.2-3-16.6c4.3,7.1,13.3,19.4,39.3,15.8c0,0-23.7-53.7-10.9-69
			c12.5-15,23.6-141.1-63.5-120.6c-68.4-27-85.3,55.1-66.2,103.4c19.4,48.9-40.4,68.6-40.4,68.6c59.2,24.6,58.7-21.8,62.5-9.6
			c3.9,12.2-0.6,21.2-0.6,21.2c10.1-1.8,12.3-5.6,14.9-10.2c0.3,7.8-0.6,12-2,14.9C0,293.8,0,360,0,360h110.8h132.8
			C228.5,322.5,244.4,300.6,149.3,295.9z M79.7,255.8c-0.7-0.7-1.5-1.5-2.2-2.2c-3.7-3.8-2.7-10.9-5.8-14.3
			c5.1,4.3,23.7-4.6,23.7-4.6c-13.8-6.6-27.1-35.1-27.1-35.1c13.8,17.5,23.2,4.9,23.2,4.9c-10.1-18,0.3-50.3,10.1-72.9
			c19.5,1.4,79.6,12.7,49.4,98.7l8.3-1.7l-1.8,9c-3.5,3.9-1.9,11.7-6.2,16.1c-0.7,0.7-1.5,1.5-2.2,2.2c-0.7,0.7-1.5,1.5-2.2,2.2
			c-11.1,10.9-28.3,17.3-33,17.3c-4.7,0-20.8-6.3-31.9-17.3C81.1,257.3,80.4,256.6,79.7,255.8z M113.4,332.9
			c-22.1,0-39.6-4.9-39.6-17.4c0-4.1,2-8.1,5.8-11.6l0.5-0.5c0.9-0.8,2-1.6,3.1-2.4l0.7-0.7c1.6-2-0.2-4,0.9-7.6
			c1.6-5.3,0.8-10.6-1.7-27.5c9.8,9.3,25,14.4,30.8,14.4c5.7,0,22.1-5.2,31.9-14.4c-2.8,18.8-4.2,24.1-2.2,29.2
			c1.1,2.6-1,4.4,0.4,6.1l0.5,0.5c1.2,0.8,2.2,1.6,3.1,2.4l0.4,0.4c3.8,3.6,5.8,7.6,5.8,11.6C153.8,328.1,135.4,332.9,113.4,332.9z"
			/>
	</g>
</g>
<g>
	<g>
		<path fill="#FF00B1" d="M306.2,296.1c-3-4.3-5.2-11.4-0.6-38.9c7.5-7.5,13.8-14.3,15.7-16.5c-0.2,3.9-0.9,8-2.1,12.2
			c0,0,83.2-137.1-39.4-144.3c0,0-35.6-23.1-69.7,13.2c0,0-43,40.8-0.6,99.2c42.4,58.4,1.7,49,1.7,49s25.4,11.4,33.5-0.3
			c1.7,14.3,0.6,20.5-1.2,24.3c-36,7.3-80.3,25.1-89.6,65.9h117.4H360C360,359.9,360,296.1,306.2,296.1z M245.4,253.5l-0.1-0.7
			l-0.2-2.2l-7-90.8c0,0,71.2,21.6,81.9,66.5l-2.1,11.4c-3.5,3.9-7.7,8.4-12.1,12.9c-0.7,0.7-1.5,1.5-2.2,2.2
			c-0.7,0.7-1.5,1.5-2.2,2.2c-11.1,10.9-22.5,20.6-27.2,20.6c-4.7,0-16.1-9.7-27.2-20.6C246.5,254.5,245.9,254,245.4,253.5z
			 M275,355.3c-22,0-33.9-26.4-40.7-39.6c-1.8-3.6,2-8,5.8-11.6l0.5-0.5c0.9-0.8,2-1.6,3.1-2.4l0.7-0.7c1.6-2,3.2-4,4.3-7.6
			c1.6-5.3,2-13.9-0.5-30.7c9.8,9.2,20.4,17.8,26.1,17.8c5.7,0,16.3-8.6,26.1-17.8c-2.8,18.7-2,27.3,0.1,32.5
			c1.1,2.6,2.4,4.4,3.8,6.1l0.5,0.5c1.1,0.8,2.2,1.6,3.1,2.4l0.5,0.4c3.8,3.5,5.8,7.5,5.8,11.6C306.8,330.6,297,355.3,275,355.3z"/>
	</g>
</g>
</svg>
