<?xml version="1.0" encoding="utf-8"?>
<!-- Generator: Adobe Illustrator 18.1.1, SVG Export Plug-In . SVG Version: 6.00 Build 0)  -->
<svg version="1.1" id="Layer_3" xmlns="http://www.w3.org/2000/svg" xmlns:xlink="http://www.w3.org/1999/xlink" x="0px" y="0px"
	 viewBox="0 0 360 360" enable-background="new 0 0 360 360" xml:space="preserve">
<path stroke="#FFFFFF" stroke-width="0.8381" stroke-miterlimit="10" d="M266.1,69.9"/>
<g>
	<path fill="#991F7C" stroke="#FFFFFF" stroke-width="1.6762" stroke-miterlimit="10" d="M262.1,259.7l0,78.6
		c0,17.1-25.6,17.1-25.6,0l0-78.6h-33.9l36.3-142.4h-5.7l-21.4,72c-5.1,15.7-26.6,9.2-21.7-7.6l23.8-78.2
		c2.5-8.9,13.8-24.7,33.3-24.7h18l0,0h19.4c19.3,0,30.7,15.9,33.6,24.7l23.8,78.1c4.8,16.8-16.6,23.8-21.7,7.4l-21.4-71.7h-6.2
		l36.7,142.4h-34.1v78.8c0,17-25.5,16.9-25.5,0v-78.8H262.1z"/>
</g>
<g>
	<circle fill="#991F7C" stroke="#FFFFFF" stroke-width="1.6762" stroke-miterlimit="10" cx="265.9" cy="69.9" r="27.2"/>
	<path stroke="#FFFFFF" stroke-width="1.6762" stroke-miterlimit="10" d="M265.9,69.9"/>
</g>
<circle fill="#991F7C" cx="265.9" cy="44.1" r="12.9"/>
<g>
	<path fill="#991F7C" d="M349.6,182.2h5.1c0.6,0,1,0.5,1,1v166.3c0,0.6-0.5,1-1,1h-5.1c-0.6,0-1-0.5-1-1V183.2
		C348.6,182.6,349.1,182.2,349.6,182.2z"/>
	<path fill="#991F7C" d="M355.8,183.2v5.1c0,0.6-0.5,1-1,1h-32.3c-0.6,0-1-0.5-1-1v-5.1c0-0.6,0.5-1,1-1h32.3
		C355.3,182.2,355.8,182.6,355.8,183.2z"/>
</g>
<path stroke="#FFFFFF" stroke-width="0.8381" stroke-miterlimit="10" d="M158.6,69.9"/>
<g>
	<path fill="#E21769" stroke="#FFFFFF" stroke-width="1.726" stroke-miterlimit="10" d="M154.5,236.8l0,100.8
		c0,18.1-25.6,18.1-25.6,0l0-100.8H95l36.3-133.6h-5.7l-21.4,76.3c-5.1,16.6-26.6,9.8-21.7-8l23.8-82.9c2.5-9.5,13.8-26.2,33.3-26.2
		h18l0,0h19.4c19.3,0,30.7,16.9,33.6,26.2l23.8,82.8c4.8,17.8-16.6,25.2-21.7,7.8l-21.4-76H185l36.7,133.6h-34.1v100.9
		c0,18-25.5,17.9-25.5,0V236.8H154.5z"/>
</g>
<g>
	<circle fill="#E21769" cx="158.4" cy="38.7" r="27.2"/>
	<path d="M158.4,38.7"/>
</g>
<g>
	<path fill="#E06CA1" stroke="#FFFFFF" stroke-width="1.726" stroke-miterlimit="10" d="M70,292.3L69.1,338c0,18.1-25.6,18.1-25.6,0
		l0.9-45.8H17.7l28.2-103.6h-5.7l-15.8,58.5c-5.1,16.6-26.6,9.8-21.7-8l18.1-65.1c2.5-9.5,13.8-26.2,33.3-26.2h18l0,0h19.4
		c19.3,0,30.7,16.9,33.6,26.2l19.7,64.9c4.8,17.8-16.6,25.2-21.7,7.8l-17.3-58.1h-6.2l28.5,103.6h-24.9l-0.9,45.9
		c0,18-25.5,17.9-25.5,0l0.9-45.9H70z"/>
</g>
<g>
	<circle fill="#991F7C" stroke="#FFFFFF" stroke-width="2" stroke-miterlimit="10" cx="112.4" cy="237.2" r="22.5"/>
	<path stroke="#FFFFFF" stroke-width="2" stroke-miterlimit="10" d="M112.4,237.2"/>
</g>
<g>
	<circle fill="#E06CA1" stroke="#FFFFFF" stroke-width="1.7539" stroke-miterlimit="10" cx="73.8" cy="127.7" r="27.2"/>
	<path stroke="#FFFFFF" stroke-width="1.7539" stroke-miterlimit="10" d="M73.8,127.7"/>
</g>
</svg>
