<?xml version="1.0" encoding="utf-8"?>
<!-- Generator: Adobe Illustrator 18.1.1, SVG Export Plug-In . SVG Version: 6.00 Build 0)  -->
<svg version="1.1" id="Layer_1" xmlns="http://www.w3.org/2000/svg" xmlns:xlink="http://www.w3.org/1999/xlink" x="0px" y="0px"
	 width="163.4px" height="59.3px" viewBox="0 0 163.4 59.3" style="enable-background:new 0 0 163.4 59.3;" xml:space="preserve">
<style type="text/css">
	.st0{fill:#FFFFFF;}
	.st1{fill:#428840;}
</style>
<g>
	<path d="M19.3,24.7l0.9,2.3c0,0.1,0.1,0.1,0.1,0.3c0.9,2.3,1.5,4.1,1.8,5.4c-1.7,0.1-2.9,0.3-3.6,0.4c-0.6,0.2-1,0.4-1,0.6
		c0,0.1,0,0.2,0.1,0.3c0.1,0.1,0.3,0.1,0.5,0.1c0.1,0,0.4,0,0.9-0.1c1.6-0.2,3.1-0.3,4.5-0.3c1.5,0,3.1,0.1,4.7,0.3
		c0.4,0,0.7,0.1,0.8,0.1c0.2,0,0.4,0,0.5-0.1c0.1-0.1,0.1-0.1,0.1-0.3c0-0.2-0.3-0.4-0.8-0.6c-0.5-0.1-1.5-0.3-3-0.5
		c-0.5-0.9-1-1.9-1.5-2.9c-0.5-1.1-1.1-2.4-1.7-3.8L18.3,15c-1-2.4-1.8-4.5-2.5-6.2c-0.6-1.7-1.1-3.2-1.4-4.3l-3.3,1.4
		c0.3,0.6,0.7,1.2,1,1.9c0.3,0.7,0.7,1.5,1.1,2.5L7.2,25.1c-0.7,1.6-1.3,3-1.8,4.2c-0.6,1.2-1.1,2.3-1.6,3.3c-1.5,0.2-2.5,0.3-3,0.5
		C0.3,33.2,0,33.4,0,33.6c0,0.1,0.1,0.2,0.1,0.3c0.1,0,0.2,0.1,0.5,0.1c0.1,0,0.7-0.1,1.8-0.2c1.1-0.1,2.1-0.2,3.1-0.2
		c0.9,0,1.8,0.1,2.8,0.2c1,0.1,1.6,0.2,1.8,0.2c0.2,0,0.4,0,0.5-0.1c0.1-0.1,0.1-0.1,0.1-0.3c0-0.3-0.4-0.5-1.1-0.6
		c-0.7-0.2-1.9-0.3-3.5-0.4c0.3-1.3,0.6-2.4,0.9-3.4c0.3-1,0.5-1.8,0.8-2.4l0.8-2.1H19.3L19.3,24.7z M13.9,11.5L19,23.8H9L13.9,11.5
		L13.9,11.5z M34.9,1.4c0-0.5-0.1-0.8-0.2-1.1C34.7,0.1,34.5,0,34.3,0c-0.4,0-0.9,0.1-1.5,0.4c-0.6,0.3-1.4,0.6-2.2,1.1
		c-0.5,0.3-0.9,0.6-1.1,0.8c-0.2,0.2-0.3,0.5-0.3,0.7c0,0.1,0,0.1,0.1,0.1c0.1,0,0.1,0.1,0.2,0.1c0.2,0,0.5-0.1,0.9-0.4
		c0.4-0.2,0.8-0.4,1-0.4c0.3,0,0.5,0.1,0.6,0.4c0.1,0.2,0.2,0.7,0.2,1.5l0.1,20.7c0,1.5,0,2.8,0,4c0,1.2-0.1,2.3-0.1,3.4
		c-1.2,0.2-2.1,0.4-2.5,0.5c-0.4,0.1-0.6,0.3-0.6,0.5c0,0.1,0,0.2,0.1,0.3c0.1,0.1,0.3,0.1,0.5,0.1c0.1,0,0.5,0,1.4-0.1
		c0.9-0.1,1.7-0.1,2.5-0.1s1.7,0,2.5,0.1c0.9,0.1,1.4,0.1,1.4,0.1c0.2,0,0.4,0,0.5-0.1c0.1,0,0.1-0.1,0.1-0.3c0-0.2-0.2-0.4-0.6-0.5
		c-0.4-0.1-1.2-0.3-2.4-0.5c-0.1-2-0.1-3.6-0.2-4.8c0-1.2-0.1-2.1-0.1-2.6L34.9,1.4L34.9,1.4z M51,30.4c-0.6,0.8-1.3,1.5-2,1.9
		c-0.7,0.4-1.4,0.6-2.1,0.6c-1.3,0-2.3-0.5-3-1.6c-0.7-1.1-1.1-2.6-1.1-4.7c0-2,0.4-3.5,1.1-4.7c0.7-1.1,1.7-1.7,2.9-1.7
		c0.7,0,1.4,0.2,2.1,0.5c0.7,0.4,1.4,1,2.2,1.8V30.4L51,30.4z M51,21c-0.8-0.6-1.6-1-2.3-1.2c-0.7-0.3-1.5-0.4-2.2-0.4
		c-2,0-3.6,0.7-4.8,2.2c-1.2,1.5-1.8,3.5-1.8,6c0,2,0.5,3.6,1.5,4.8c1,1.2,2.3,1.8,3.9,1.8c1,0,2-0.2,2.9-0.6c0.9-0.4,1.8-1.1,2.8-2
		l0,1.3c0,0.5,0.1,0.8,0.3,1c0.2,0.2,0.5,0.3,0.9,0.3c0.9,0,1.9-0.4,3-1.3c1.1-0.8,1.7-1.5,1.7-2.1c0-0.1,0-0.2-0.1-0.2
		c-0.1-0.1-0.1-0.1-0.2-0.1c-0.1,0-0.4,0.2-0.9,0.7s-1,0.7-1.4,0.7c-0.3,0-0.5-0.1-0.6-0.3c-0.1-0.2-0.2-0.7-0.2-1.6l0.3-28.7
		c0-0.5-0.1-0.8-0.2-1C53.5,0.1,53.4,0,53.1,0c-0.4,0-0.9,0.1-1.6,0.4c-0.6,0.3-1.4,0.6-2.2,1.1c-0.5,0.3-0.9,0.6-1.1,0.8
		C48,2.6,47.9,2.8,47.9,3c0,0.1,0,0.1,0.1,0.1c0.1,0,0.1,0,0.2,0c0.2,0,0.5-0.1,0.9-0.4c0.4-0.2,0.8-0.4,1-0.4
		c0.3,0,0.5,0.1,0.6,0.4c0.1,0.2,0.2,0.7,0.2,1.5L51,21L51,21z M62.6,21.4c0.8-0.9,1.7-1.3,3-1.3c1.1,0,2.1,0.4,2.7,1.3
		c0.7,0.9,1,2,1,3.5c-0.8,0.1-1.6,0.2-2.5,0.3c-0.9,0.1-2,0.1-3.1,0.1h-2.3C61.5,23.6,61.9,22.3,62.6,21.4L62.6,21.4z M72.2,26v-0.5
		c0-1.9-0.5-3.5-1.6-4.5s-2.5-1.6-4.4-1.6c-2.2,0-4,0.7-5.4,2.1c-1.4,1.4-2.1,3.3-2.1,5.6c0,2.1,0.6,3.9,1.9,5.2
		c1.2,1.3,2.9,2,4.9,2c1.1,0,2.1-0.2,3-0.7c0.9-0.5,1.8-1.1,2.5-2c0.3-0.4,0.6-0.7,0.7-1.1c0.2-0.4,0.3-0.6,0.3-0.8
		c0-0.1,0-0.2-0.1-0.2c-0.1-0.1-0.1-0.1-0.2-0.1c-0.1,0-0.4,0.2-0.7,0.6c-0.3,0.3-0.5,0.6-0.7,0.8c-0.5,0.5-1,0.9-1.6,1.2
		c-0.6,0.3-1.2,0.4-1.9,0.4c-1.6,0-3-0.6-4-1.8c-1-1.2-1.5-2.7-1.5-4.6H72.2L72.2,26z M75,33.1c-0.4,0.1-0.6,0.3-0.6,0.5
		c0,0.1,0,0.2,0.1,0.3c0.1,0.1,0.3,0.1,0.5,0.1c0.1,0,0.2,0,0.5,0c1.4-0.1,2.8-0.2,4.2-0.2c1.3,0,2.6,0.1,4,0.2c0.3,0,0.5,0,0.6,0
		c0.2,0,0.4,0,0.5-0.1c0.1-0.1,0.1-0.1,0.1-0.3c0-0.3-0.4-0.5-1.2-0.6c-0.8-0.2-1.9-0.3-3.5-0.4v-3c0-2.2,0.3-4,0.9-5.5
		c0.6-1.4,1.3-2.2,2.2-2.2c0.2,0,0.5,0.2,0.9,0.5c0.4,0.3,0.8,0.5,1.2,0.5c0.5,0,0.9-0.2,1.2-0.5c0.3-0.3,0.5-0.7,0.5-1.3
		c0-0.5-0.2-1-0.5-1.3c-0.4-0.3-0.8-0.5-1.4-0.5c-0.9,0-1.7,0.4-2.6,1.3c-0.8,0.9-1.6,2.2-2.3,3.9l-0.1-3.9c0-0.4,0-0.8-0.1-1
		c-0.1-0.3-0.2-0.4-0.4-0.4c-0.1,0-0.5,0.1-1.2,0.4c-0.7,0.3-1.4,0.5-2,0.6c-0.2,0.1-0.6,0.1-0.9,0.2c-0.7,0.1-1,0.3-1,0.6
		c0,0.1,0,0.2,0.1,0.3c0.1,0.1,0.2,0.1,0.4,0.1h0.2l2.3-0.1c0.1,0.5,0.1,0.9,0.2,1.4c0,0.5,0.1,1,0.1,1.6v4.6c0,0.7,0,1.4,0,2
		c0,0.6-0.1,1.2-0.1,1.8C76.2,32.8,75.4,32.9,75,33.1L75,33.1z M91.9,34.1c0.6,0.1,1.1,0.1,1.5,0.1c1.8,0,3.2-0.5,4.4-1.5
		c1.1-1,1.7-2.2,1.7-3.7c0-1.2-0.4-2-1.1-2.7c-0.7-0.6-1.9-1.1-3.7-1.4c-0.5-0.1-1.1-0.2-1.8-0.3C91,24.5,90,23.9,90,22.9
		c0-0.7,0.3-1.3,0.9-1.7c0.6-0.5,1.3-0.7,2.2-0.7c0.8,0,1.6,0.2,2.5,0.5c0.8,0.3,1.6,0.8,2.3,1.4c0,0.2,0.1,0.5,0.1,0.8
		c0.1,1.1,0.3,1.6,0.6,1.6c0.1,0,0.2,0,0.2-0.1c0.1-0.1,0.1-0.2,0.1-0.4c0,0,0-0.1,0-0.2c-0.1-0.7-0.1-1.3-0.1-1.9
		c0-0.7,0.1-1.3,0.2-2c0.1-0.7,0.2-1,0.2-1.1c0-0.1,0-0.2-0.1-0.3c-0.1-0.1-0.1-0.1-0.2-0.1c-0.1,0-0.2,0.1-0.3,0.2
		c-0.1,0.1-0.2,0.4-0.3,0.7L98,20.1c-0.7-0.2-1.4-0.4-2.1-0.5c-0.7-0.1-1.3-0.2-1.9-0.2c-1.6,0-2.8,0.4-3.8,1.2
		c-1,0.8-1.4,1.9-1.4,3.3c0,1.2,0.4,2.2,1.1,2.8c0.7,0.6,2,1.1,3.9,1.4c0.3,0.1,0.8,0.1,1.4,0.2c2,0.3,3,1,3,2
		c0,0.7-0.3,1.2-0.9,1.6c-0.6,0.4-1.5,0.6-2.6,0.6c-0.9,0-1.7-0.1-2.5-0.4c-0.8-0.3-1.5-0.7-2.3-1.2c0-0.2-0.1-0.5-0.1-0.8
		c-0.1-1.4-0.3-2-0.6-2c-0.1,0-0.2,0-0.2,0.1c-0.1,0.1-0.1,0.2-0.1,0.4c0,0.1,0,0.5,0.1,1.1c0.1,0.6,0.1,1.1,0.1,1.6
		c0,0.7-0.1,1.4-0.2,2.2c-0.1,0.8-0.2,1.2-0.2,1.2c0,0.1,0,0.2,0.1,0.3c0.1,0.1,0.1,0.1,0.2,0.1c0.1,0,0.3-0.1,0.3-0.2
		c0.1-0.1,0.2-0.4,0.3-0.7l0.2-0.7C90.6,33.9,91.3,34,91.9,34.1L91.9,34.1z M114.1,28.1c-0.7,0.6-1.6,0.9-2.7,0.9
		c-1.6,0-3.1-0.5-4.5-1.6c-1.4-1-2.1-2.1-2.1-3.3c0-0.9,0.3-1.6,1-2.2c0.7-0.6,1.6-0.9,2.6-0.9c1.6,0,3.1,0.5,4.6,1.6
		c1.4,1,2.1,2.1,2.1,3.3C115.2,26.8,114.8,27.5,114.1,28.1L114.1,28.1z M107.9,35.8c4.8,0.1,7.2,0.7,7.2,1.9c0,1.1-0.6,2-1.8,2.8
		c-1.2,0.8-2.7,1.1-4.6,1.1c-1.3,0-2.3-0.2-3.1-0.7c-0.7-0.5-1.1-1.2-1.1-2.1c0-0.4,0.1-0.9,0.4-1.3c0.2-0.5,0.7-1,1.3-1.7
		C106.6,35.8,107.2,35.8,107.9,35.8L107.9,35.8L107.9,35.8z M103.8,32c-0.4,0.7-0.6,1.2-0.6,1.7c0,0.5,0.2,0.9,0.6,1.2
		s1,0.5,1.7,0.6c-0.7,0.8-1.2,1.5-1.6,2.2c-0.4,0.7-0.5,1.2-0.5,1.7c0,1.1,0.4,1.9,1.3,2.5c0.9,0.6,2.1,0.9,3.7,0.9
		c2.2,0,4.1-0.7,5.7-2c1.6-1.3,2.4-2.9,2.4-4.7c0-1.7-2.1-2.6-6.4-2.8c-0.1,0-0.1,0-0.1,0c-0.2,0-0.5,0-1-0.1
		c-2.5-0.1-3.7-0.5-3.7-1.3c0-0.3,0.1-0.6,0.3-0.8c0.2-0.3,0.4-0.6,0.8-0.9c0.4,0.2,0.8,0.4,1.3,0.5c0.4,0.1,0.9,0.2,1.4,0.2
		c2.1,0,4-0.6,5.5-1.9c1.5-1.3,2.3-2.7,2.3-4.4c0-0.7-0.1-1.3-0.4-1.9c-0.3-0.6-0.7-1.2-1.3-1.8c0.7-0.6,1.2-1.2,1.4-1.7
		c0.3-0.5,0.4-1,0.4-1.4c0-0.7-0.2-1.3-0.5-1.8c-0.4-0.5-0.8-0.7-1.3-0.7c-0.4,0-0.7,0.1-0.9,0.4c-0.3,0.2-0.4,0.5-0.4,0.9
		c0,0.3,0.2,0.8,0.7,1.3c0.5,0.6,0.7,1,0.7,1.3c0,0.2-0.1,0.4-0.2,0.6c-0.1,0.2-0.3,0.4-0.6,0.7c-0.6-0.3-1.2-0.6-1.8-0.7
		c-0.6-0.2-1.2-0.2-1.7-0.2c-2,0-3.8,0.7-5.3,2c-1.5,1.3-2.3,2.8-2.3,4.6c0,0.8,0.2,1.6,0.5,2.2c0.4,0.6,0.9,1.2,1.7,1.8
		C104.7,30.6,104.2,31.3,103.8,32L103.8,32z M127.3,31.9c-0.7,0.3-1.4,0.5-2.1,0.5c-0.8,0-1.5-0.3-1.9-0.8c-0.4-0.5-0.6-1.2-0.6-2.2
		c0-1.1,0.3-1.9,0.8-2.4c0.6-0.5,1.4-0.8,2.5-0.8c0.4,0,0.9,0.1,1.5,0.2c0.5,0.1,1.1,0.3,1.8,0.5v3.5C128.7,31,128,31.6,127.3,31.9
		L127.3,31.9z M129.3,32.9c0,0.5,0.1,0.8,0.3,1c0.2,0.2,0.5,0.3,0.9,0.3c0.9,0,1.9-0.4,3-1.3c1.1-0.8,1.7-1.5,1.7-2.1
		c0-0.1,0-0.2-0.1-0.2c-0.1-0.1-0.1-0.1-0.2-0.1c-0.1,0-0.4,0.2-0.9,0.7c-0.5,0.5-1,0.7-1.4,0.7c-0.3,0-0.5-0.1-0.6-0.3
		c-0.1-0.2-0.2-0.7-0.2-1.6v-5c0-1.6,0-2.6-0.1-3.1c-0.1-0.5-0.2-0.9-0.4-1.2c-0.3-0.5-0.8-0.8-1.4-1.1c-0.6-0.3-1.3-0.4-2.2-0.4
		c-1.5,0-3,0.4-4.4,1.1c-1.5,0.7-2.2,1.4-2.2,2c0,0.1,0,0.1,0.1,0.2c0.1,0,0.2,0.1,0.3,0.1c0,0,0.6-0.2,1.7-0.7
		c1.1-0.5,2.2-0.7,3.4-0.7c1.1,0,1.8,0.2,2.2,0.6c0.4,0.4,0.6,1.3,0.6,2.8V26c-0.8-0.3-1.5-0.5-2.1-0.6c-0.7-0.1-1.3-0.2-1.8-0.2
		c-1.6,0-2.9,0.5-3.9,1.4c-1,0.9-1.5,2.1-1.5,3.5c0,1.2,0.4,2.2,1.1,3c0.7,0.8,1.7,1.1,2.8,1.1c0.7,0,1.6-0.2,2.5-0.7
		c0.9-0.5,1.9-1.1,2.9-2V32.9L129.3,32.9z M139.4,28.6v0.8c0,1.8,0.3,3.1,0.8,3.8c0.5,0.8,1.4,1.1,2.6,1.1c1.1,0,2.3-0.4,3.5-1.3
		c1.2-0.8,1.7-1.5,1.7-1.9c0-0.1,0-0.2-0.1-0.3c-0.1-0.1-0.2-0.1-0.3-0.1c0,0-0.4,0.3-1.1,0.8c-0.7,0.5-1.5,0.8-2.2,0.8
		c-0.9,0-1.5-0.3-1.8-0.8c-0.4-0.6-0.5-1.6-0.5-3.1v-0.7l0.2-6.4h1.9c1.1,0,1.9,0,2.3,0.1c0.5,0,0.9,0.1,1.2,0.2v-1.5
		c-0.4,0.1-0.9,0.2-1.5,0.2c-0.5,0-1.2,0.1-2.1,0.1l-1.9,0c0-1.2,0.1-2.4,0.1-3.8c0.1-1.4,0.2-3,0.3-4.9h-2.8c0,0.1,0,0.1,0,0.2
		c0.1,3.8,0.1,6.6,0.1,8.4h-0.9c-0.6,0-1.1,0-1.5-0.1c-0.4,0-0.7-0.1-1-0.2v1.5c0.2-0.1,0.5-0.1,0.9-0.2c0.3,0,0.9-0.1,1.7-0.1h0.8
		L139.4,28.6L139.4,28.6z M154.1,21.4c0.8-0.9,1.7-1.3,3-1.3c1.1,0,2.1,0.4,2.7,1.3c0.7,0.9,1,2,1,3.5c-0.8,0.1-1.6,0.2-2.5,0.3
		c-0.9,0.1-2,0.1-3.1,0.1h-2.3C152.9,23.6,153.3,22.3,154.1,21.4L154.1,21.4z M163.6,26v-0.5c0-1.9-0.5-3.5-1.6-4.5
		c-1.1-1.1-2.5-1.6-4.4-1.6c-2.2,0-4,0.7-5.4,2.1c-1.4,1.4-2.1,3.3-2.1,5.6c0,2.1,0.6,3.9,1.9,5.2c1.2,1.3,2.9,2,4.9,2
		c1.1,0,2.1-0.2,3-0.7c0.9-0.5,1.8-1.1,2.5-2c0.3-0.4,0.6-0.7,0.7-1.1c0.2-0.4,0.3-0.6,0.3-0.8c0-0.1,0-0.2-0.1-0.2
		c-0.1-0.1-0.1-0.1-0.2-0.1c-0.1,0-0.4,0.2-0.7,0.6c-0.3,0.3-0.5,0.6-0.7,0.8c-0.5,0.5-1,0.9-1.6,1.2c-0.6,0.3-1.2,0.4-1.9,0.4
		c-1.6,0-3-0.6-4-1.8c-1-1.2-1.5-2.7-1.5-4.6H163.6L163.6,26z"/>
	<path class="st0" d="M103.1,38.7h1.6v2.2h-1.6V38.7L103.1,38.7z M103.1,38.7"/>
	<path class="st0" d="M104,39.2h1.1v1.6H104V39.2L104,39.2z M104,39.2"/>
	<path class="st1" d="M71.9,59.1c-0.2-0.1-0.5-0.4-0.7-0.6c-0.3-0.4-0.3-0.6-0.3-2.1c0-1,0-1.8-0.1-1.9c-0.5-0.9-2-1-3.4-0.3
		c-0.7,0.4-1.3,0.8-2.6,2.2c-1.4,1.5-1.8,1.8-2.6,2.2c-1.7,0.8-3.5,0.5-4.3-0.8c-0.3-0.5-0.4-0.8-0.4-2.3c-0.1-1.7-0.1-1.7-0.4-1.8
		c-0.3-0.1-1.1-0.1-2.6,0c-1.2,0.1-3,0.1-3.8,0.1c-1.5,0-1.6,0-2.5-0.4c-0.7-0.4-1-0.6-1.4-1.2c-0.6-1-0.7-1.8-0.4-2.6
		c0.4-0.9,0.8-1,3.6-0.9c1.4,0,2.9,0.1,3.5,0.1l1,0l0.1-1c0.1-1.2,0.4-1.7,1.3-2.1c0.6-0.3,0.8-0.3,1.8-0.1c3.5,0.5,8.1,0.6,11,0.1
		c0.9-0.1,2.5-0.6,4.8-1.5c6-2.2,13.6-4.5,16.5-5.1c3.3-0.6,8.6-0.9,12.6-0.5c2,0.2,3.6,0.4,3.7,0.6c0,0.1-1.9,0.1-4.2,0.1
		c-5.5,0-9.4,0.5-14.4,1.7c-4.9,1.2-8.8,2.8-15.5,6c-3.4,1.6-5.1,2.2-9,3.3c-1,0.3-1.7,0.5-1.6,0.6c0.5,0.1,3.9-0.6,5.8-1.1
		c2.2-0.6,4.2-1.4,8-3.3c8-3.9,12.7-5.4,19.4-6.3c2.1-0.3,10-0.5,11.3-0.3c0.7,0.1,0.8,0.2,0.8,0.4c0,0.3-0.8,0.8-4.1,2.6
		c-1.2,0.6-2.4,1.4-2.8,1.7c-0.9,0.7-1.7,2.1-2.3,3.6c-0.7,2-1.1,2.7-1.6,3.3c-1.2,1.3-2.5,1.4-3.7,0c-1.4-1.5-2.8-1-4.3,1.7
		c-1.1,2-2.4,3-3.5,2.8c-0.6-0.1-1.1-0.6-2.4-2c-0.6-0.7-1.6-0.9-2.5-0.5c-0.8,0.3-2,1.5-2.8,2.8c-1.6,2.3-2.6,3.2-4,3.2
		C72.6,59.3,72.1,59.2,71.9,59.1L71.9,59.1z M124.4,43.3c-4.3-1.7-10.6-3-15-3c-1.8,0-2.3-0.2-2-0.7c0.1-0.2,0.4-0.3,1.9-0.2
		c5.1,0.1,11.4,1,15,2.2c1.9,0.6,2.2,0.9,2.2,1.6C126.6,44.1,126.4,44.1,124.4,43.3L124.4,43.3z M124.4,43.3"/>
</g>
<g>
</g>
<g>
</g>
<g>
</g>
<g>
</g>
<g>
</g>
<g>
</g>
<g>
</g>
<g>
</g>
<g>
</g>
<g>
</g>
<g>
</g>
<g>
</g>
<g>
</g>
<g>
</g>
<g>
</g>
</svg>
