<?xml version="1.0" encoding="utf-8"?>
<!-- Generator: Adobe Illustrator 18.1.1, SVG Export Plug-In . SVG Version: 6.00 Build 0)  -->
<svg version="1.1" id="Layer_3" xmlns="http://www.w3.org/2000/svg" xmlns:xlink="http://www.w3.org/1999/xlink" x="0px" y="0px"
	 viewBox="0 0 360 360" enable-background="new 0 0 360 360" xml:space="preserve">
<g>
	<path fill="#17C1FF" d="M179.5,4.6"/>
</g>
<g>
	<path fill="#008DD0" stroke="#FFFFFF" stroke-width="3.4155" stroke-miterlimit="10" d="M263.4,35.9c-8.2,0-14.7,6.8-14.7,15.2V87
		c0,7,10.1,7,10.1,0V54.1h2.4v91c0,9.3,13.4,9.1,13.4,0V91.9h2.3v53.3c0,9.1,13.5,9.3,13.5,0v-91h2.3V87c0,7,10,7,10,0V51.3
		c0-7.8-6-15.4-14.9-15.4L263.4,35.9z"/>
</g>
<g>
	<circle fill="#008DD0" stroke="#FFFFFF" stroke-width="3.4155" stroke-miterlimit="10" cx="275.7" cy="25.5" r="11.6"/>
	<path fill="#5D5D5D" stroke="#FFFFFF" stroke-width="3.4155" stroke-miterlimit="10" d="M275.7,25.5"/>
</g>
<g>
	<path fill="#008DD0" stroke="#FFFFFF" stroke-width="3.4155" stroke-miterlimit="10" d="M57.3,35.9c-8.2,0-14.7,6.8-14.7,15.2V87
		c0,7,10.1,7,10.1,0V54.1h2.4v91c0,9.3,13.4,9.1,13.4,0V91.9h2.3v53.3c0,9.1,13.5,9.3,13.5,0v-91h2.3V87c0,7,10,7,10,0V51.3
		c0-7.8-6-15.4-14.9-15.4L57.3,35.9z"/>
</g>
<g>
	<circle fill="#008DD0" stroke="#FFFFFF" stroke-width="3.4155" stroke-miterlimit="10" cx="69.6" cy="25.5" r="11.6"/>
	<path fill="#5D5D5D" stroke="#FFFFFF" stroke-width="3.4155" stroke-miterlimit="10" d="M69.6,25.5"/>
</g>
<g>
	<path stroke="#FFFFFF" stroke-width="3.4155" stroke-miterlimit="10" d="M221.7,32.1"/>
	<g>
		<path fill="#E21769" stroke="#FFFFFF" stroke-width="3.4155" stroke-miterlimit="10" d="M220,106.2l0,40.6c0,7.3-10.9,7.3-10.9,0
			l0-40.6h-14.5l15.5-53.8h-2.4l-9.1,30.8c-2.2,6.7-11.4,4-9.3-3.2l10.1-33.4c1.1-3.8,5.9-10.6,14.2-10.6h7.7l0,0h8.3
			c8.3,0,13.1,6.8,14.4,10.6l10.2,33.4c2,7.2-7.1,10.2-9.3,3.2l-9.1-30.7H233l15.7,53.8h-14.6v40.7c0,7.3-10.9,7.2-10.9,0v-40.7H220
			z"/>
	</g>
	<g>
		<circle fill="#E21769" stroke="#FFFFFF" stroke-width="3.4155" stroke-miterlimit="10" cx="221.7" cy="25.5" r="11.6"/>
		<path stroke="#FFFFFF" stroke-width="3.4155" stroke-miterlimit="10" d="M221.7,25.5"/>
	</g>
</g>
<g>
	<path stroke="#FFFFFF" stroke-width="3.4155" stroke-miterlimit="10" d="M172,32.1"/>
	<g>
		<path fill="#E21769" stroke="#FFFFFF" stroke-width="3.4155" stroke-miterlimit="10" d="M170.3,106.2l0,40.6
			c0,7.3-10.9,7.3-10.9,0l0-40.6h-14.5l15.5-53.8h-2.4l-9.1,30.8c-2.2,6.7-11.4,4-9.3-3.2l10.1-33.4c1.1-3.8,5.9-10.6,14.2-10.6h7.7
			l0,0h8.3c8.3,0,13.1,6.8,14.4,10.6l10.2,33.4c2,7.2-7.1,10.2-9.3,3.2L186,52.4h-2.6l15.7,53.8h-14.6v40.7c0,7.3-10.9,7.2-10.9,0
			v-40.7H170.3z"/>
	</g>
	<g>
		<circle fill="#E21769" stroke="#FFFFFF" stroke-width="3.4155" stroke-miterlimit="10" cx="171.9" cy="25.5" r="11.6"/>
		<path stroke="#FFFFFF" stroke-width="3.4155" stroke-miterlimit="10" d="M171.9,25.5"/>
	</g>
</g>
<g>
	<path stroke="#FFFFFF" stroke-width="3.4155" stroke-miterlimit="10" d="M117,32.1"/>
	<g>
		<path fill="#E21769" stroke="#FFFFFF" stroke-width="3.4155" stroke-miterlimit="10" d="M115.2,106.2l0,40.6
			c0,7.3-10.9,7.3-10.9,0l0-40.6H89.8l15.5-53.8h-2.4l-9.1,30.8c-2.2,6.7-11.4,4-9.3-3.2l10.1-33.4c1.1-3.8,5.9-10.6,14.2-10.6h7.7
			l0,0h8.3c8.3,0,13.1,6.8,14.4,10.6l10.2,33.4c2,7.2-7.1,10.2-9.3,3.2l-9.1-30.7h-2.6l15.7,53.8h-14.6v40.7c0,7.3-10.9,7.2-10.9,0
			v-40.7H115.2z"/>
	</g>
	<g>
		<circle fill="#E21769" stroke="#FFFFFF" stroke-width="3.4155" stroke-miterlimit="10" cx="116.9" cy="25.5" r="11.6"/>
		<path stroke="#FFFFFF" stroke-width="3.4155" stroke-miterlimit="10" d="M116.9,25.5"/>
	</g>
</g>
<g>
	<path fill="#008DD0" stroke="#FFFFFF" stroke-width="3.4155" stroke-miterlimit="10" d="M313.8,35.9c-8.2,0-14.7,6.8-14.7,15.2V87
		c0,7,10.1,7,10.1,0V54.1h2.4v91c0,9.3,13.4,9.1,13.4,0V91.9h2.3v53.3c0,9.1,13.5,9.3,13.5,0v-91h2.3V87c0,7,10,7,10,0V51.3
		c0-7.8-6-15.4-14.9-15.4L313.8,35.9z"/>
</g>
<g>
	<circle fill="#008DD0" stroke="#FFFFFF" stroke-width="3.4155" stroke-miterlimit="10" cx="326" cy="25.5" r="11.6"/>
	<path fill="#5D5D5D" stroke="#FFFFFF" stroke-width="3.4155" stroke-miterlimit="10" d="M326,25.5"/>
</g>
<g>
	<path fill="#008DD0" stroke="#FFFFFF" stroke-width="3.4155" stroke-miterlimit="10" d="M237.7,67.2c-9.3,0-16.7,7.7-16.7,17.2
		v40.8c0,7.9,11.4,7.9,11.4,0V87.9h2.7v103.3c0,10.6,15.2,10.3,15.2,0v-60.4h2.6v60.4c0,10.3,15.3,10.6,15.3,0V87.9h2.6v37.3
		c0,8,11.4,8,11.4,0V84.6c0-8.8-6.8-17.5-16.9-17.5L237.7,67.2z"/>
</g>
<g>
	<circle fill="#008DD0" stroke="#FFFFFF" stroke-width="3.4155" stroke-miterlimit="10" cx="251.6" cy="55.4" r="13.2"/>
	<path fill="#5D5D5D" stroke="#FFFFFF" stroke-width="3.4155" stroke-miterlimit="10" d="M251.6,55.4"/>
</g>
<g>
	<path fill="#008DD0" stroke="#FFFFFF" stroke-width="3.4155" stroke-miterlimit="10" d="M176,67.2c-9.3,0-16.7,7.7-16.7,17.2v40.8
		c0,7.9,11.4,7.9,11.4,0V87.9h2.7v103.3c0,10.6,15.2,10.3,15.2,0v-60.4h2.6v60.4c0,10.3,15.3,10.6,15.3,0V87.9h2.6v37.3
		c0,8,11.4,8,11.4,0V84.6c0-8.8-6.8-17.5-16.9-17.5L176,67.2z"/>
</g>
<g>
	<circle fill="#008DD0" stroke="#FFFFFF" stroke-width="3.4155" stroke-miterlimit="10" cx="189.9" cy="55.4" r="13.2"/>
	<path fill="#5D5D5D" stroke="#FFFFFF" stroke-width="3.4155" stroke-miterlimit="10" d="M189.9,55.4"/>
</g>
<g>
	<path fill="#008DD0" stroke="#FFFFFF" stroke-width="3.4155" stroke-miterlimit="10" d="M36.8,67.2c-9.3,0-16.7,7.7-16.7,17.2v40.8
		c0,7.9,11.4,7.9,11.4,0V87.9h2.7v103.3c0,10.6,15.2,10.3,15.2,0v-60.4h2.6v60.4c0,10.3,15.3,10.6,15.3,0V87.9H70v37.3
		c0,8,11.4,8,11.4,0V84.6c0-8.8-6.8-17.5-16.9-17.5L36.8,67.2z"/>
</g>
<g>
	<circle fill="#008DD0" stroke="#FFFFFF" stroke-width="3.4155" stroke-miterlimit="10" cx="50.7" cy="55.4" r="13.2"/>
	<path fill="#5D5D5D" stroke="#FFFFFF" stroke-width="3.4155" stroke-miterlimit="10" d="M50.7,55.4"/>
</g>
<g>
	<path stroke="#FFFFFF" stroke-width="3.4155" stroke-miterlimit="10" d="M128.7,62.9"/>
	<g>
		<path fill="#E21769" stroke="#FFFFFF" stroke-width="3.4155" stroke-miterlimit="10" d="M126.8,147l0,46.1c0,8.3-12.4,8.3-12.4,0
			l0-46.1H97.9l17.6-61.1h-2.8l-10.4,34.9c-2.5,7.6-12.9,4.5-10.5-3.7l11.5-37.9c1.2-4.3,6.7-12,16.2-12h8.7l0,0h9.4
			c9.4,0,14.9,7.7,16.3,12l11.5,37.9c2.3,8.1-8.1,11.5-10.5,3.6l-10.4-34.8h-3l17.8,61.1h-16.5v46.1c0,8.2-12.4,8.2-12.4,0V147
			H126.8z"/>
	</g>
	<g>
		<circle fill="#E21769" stroke="#FFFFFF" stroke-width="3.4155" stroke-miterlimit="10" cx="128.6" cy="55.4" r="13.2"/>
		<path stroke="#FFFFFF" stroke-width="3.4155" stroke-miterlimit="10" d="M128.6,55.4"/>
	</g>
</g>
<g>
	<path stroke="#FFFFFF" stroke-width="3.4155" stroke-miterlimit="10" d="M307.4,62.9"/>
	<g>
		<path fill="#E21769" stroke="#FFFFFF" stroke-width="3.4155" stroke-miterlimit="10" d="M305.5,147l0,46.1c0,8.3-12.4,8.3-12.4,0
			l0-46.1h-16.5l17.6-61.1h-2.8l-10.4,34.9c-2.5,7.6-12.9,4.5-10.5-3.7l11.5-37.9c1.2-4.3,6.7-12,16.2-12h8.7l0,0h9.4
			c9.4,0,14.9,7.7,16.3,12l11.5,37.9c2.3,8.1-8.1,11.5-10.5,3.6l-10.4-34.8h-3l17.8,61.1h-16.5v46.1c0,8.2-12.4,8.2-12.4,0V147
			H305.5z"/>
	</g>
	<g>
		<circle fill="#E21769" stroke="#FFFFFF" stroke-width="3.4155" stroke-miterlimit="10" cx="307.3" cy="55.4" r="13.2"/>
		<path stroke="#FFFFFF" stroke-width="3.4155" stroke-miterlimit="10" d="M307.3,55.4"/>
	</g>
</g>
<g>
	<circle fill="#008DD0" stroke="#FFFFFF" stroke-width="3.4155" stroke-miterlimit="10" cx="341.1" cy="83.9" r="15.2"/>
	<path fill="#5D5D5D" stroke="#FFFFFF" stroke-width="3.4155" stroke-miterlimit="10" d="M341.1,83.9"/>
</g>
<g>
	<circle fill="#008DD0" stroke="#FFFFFF" stroke-width="3.4155" stroke-miterlimit="10" cx="223.6" cy="83.9" r="15.2"/>
	<path fill="#5D5D5D" stroke="#FFFFFF" stroke-width="3.4155" stroke-miterlimit="10" d="M223.6,83.9"/>
</g>
<g>
	<circle fill="#008DD0" stroke="#FFFFFF" stroke-width="3.4155" stroke-miterlimit="10" cx="152.3" cy="83.9" r="15.2"/>
	<path fill="#5D5D5D" stroke="#FFFFFF" stroke-width="3.4155" stroke-miterlimit="10" d="M152.3,83.9"/>
</g>
<g>
	<path fill="#008DD0" stroke="#FFFFFF" stroke-width="3.7548" stroke-miterlimit="10" d="M254.5,84.3c-9,0-16.2,7.4-16.2,16.7v39.5
		c0,7.7,11.1,7.7,11.1,0v-36.1h2.6v100.1c0,10.3,14.8,10,14.8,0v-58.6h2.5v58.6c0,10,14.8,10.3,14.8,0V104.3h2.6v36.1
		c0,7.7,11,7.7,11,0v-39.3c0-8.5-6.5-16.9-16.4-16.9L254.5,84.3z"/>
</g>
<g>
	<circle fill="#008DD0" stroke="#FFFFFF" stroke-width="3.7548" stroke-miterlimit="10" cx="267.9" cy="72.8" r="12.8"/>
	<path fill="#5D5D5D" stroke="#FFFFFF" stroke-width="3.7548" stroke-miterlimit="10" d="M267.9,72.8"/>
</g>
<g>
	<path fill="#008DD0" stroke="#FFFFFF" stroke-width="3.7548" stroke-miterlimit="10" d="M27.9,84.3c-9,0-16.2,7.4-16.2,16.7v39.5
		c0,7.7,11.1,7.7,11.1,0v-36.1h2.6v100.1c0,10.3,14.8,10,14.8,0v-58.6h2.5v58.6c0,10,14.8,10.3,14.8,0V104.3h2.6v36.1
		c0,7.7,11,7.7,11,0v-39.3c0-8.5-6.5-16.9-16.4-16.9L27.9,84.3z"/>
</g>
<g>
	<circle fill="#008DD0" stroke="#FFFFFF" stroke-width="3.7548" stroke-miterlimit="10" cx="41.3" cy="72.8" r="12.8"/>
	<path fill="#5D5D5D" stroke="#FFFFFF" stroke-width="3.7548" stroke-miterlimit="10" d="M41.3,72.8"/>
</g>
<g>
	<path stroke="#FFFFFF" stroke-width="3.7548" stroke-miterlimit="10" d="M208.6,80.1"/>
	<g>
		<path fill="#E21769" stroke="#FFFFFF" stroke-width="3.7548" stroke-miterlimit="10" d="M206.7,161.6l0,44.6c0,8-12,8-12,0l0-44.6
			h-15.9l17.1-59.2h-2.7l-10,33.8c-2.4,7.4-12.5,4.3-10.2-3.6L184,95.9c1.2-4.2,6.5-11.6,15.7-11.6h8.5l0,0h9.1
			c9.1,0,14.4,7.5,15.8,11.6l11.2,36.7c2.2,7.9-7.8,11.2-10.2,3.5l-10-33.7H221l17.2,59.2h-16v44.7c0,8-12,7.9-12,0v-44.7H206.7z"/>
	</g>
	<g>
		<circle fill="#E21769" stroke="#FFFFFF" stroke-width="3.7548" stroke-miterlimit="10" cx="208.5" cy="72.8" r="12.8"/>
		<path stroke="#FFFFFF" stroke-width="3.7548" stroke-miterlimit="10" d="M208.5,72.8"/>
	</g>
</g>
<g>
	<path stroke="#FFFFFF" stroke-width="3.7548" stroke-miterlimit="10" d="M153.9,80.1"/>
	<g>
		<path fill="#E21769" stroke="#FFFFFF" stroke-width="3.7548" stroke-miterlimit="10" d="M152.1,161.6l0,44.6c0,8-12,8-12,0l0-44.6
			h-15.9l17.1-59.2h-2.7l-10,33.8c-2.4,7.4-12.5,4.3-10.2-3.6l11.2-36.7c1.2-4.2,6.5-11.6,15.7-11.6h8.5l0,0h9.1
			c9.1,0,14.4,7.5,15.8,11.6l11.2,36.7c2.2,7.9-7.8,11.2-10.2,3.5l-10-33.7h-2.9l17.2,59.2h-16v44.7c0,8-12,7.9-12,0v-44.7H152.1z"
			/>
	</g>
	<g>
		<circle fill="#E21769" stroke="#FFFFFF" stroke-width="3.7548" stroke-miterlimit="10" cx="153.9" cy="72.8" r="12.8"/>
		<path stroke="#FFFFFF" stroke-width="3.7548" stroke-miterlimit="10" d="M153.9,72.8"/>
	</g>
</g>
<g>
	<path stroke="#FFFFFF" stroke-width="3.7548" stroke-miterlimit="10" d="M93.4,80.1"/>
	<g>
		<path fill="#E21769" stroke="#FFFFFF" stroke-width="3.7548" stroke-miterlimit="10" d="M91.5,161.6l0,44.6c0,8-12,8-12,0l0-44.6
			H63.6l17.1-59.2h-2.7l-10,33.8c-2.4,7.4-12.5,4.3-10.2-3.6l11.2-36.7c1.2-4.2,6.5-11.6,15.7-11.6H93l0,0h9.1
			c9.1,0,14.4,7.5,15.8,11.6l11.2,36.7c2.2,7.9-7.8,11.2-10.2,3.5l-10-33.7h-2.9l17.2,59.2h-16v44.7c0,8-12,7.9-12,0v-44.7H91.5z"/>
	</g>
	<g>
		<circle fill="#E21769" stroke="#FFFFFF" stroke-width="3.7548" stroke-miterlimit="10" cx="93.3" cy="72.8" r="12.8"/>
		<path stroke="#FFFFFF" stroke-width="3.7548" stroke-miterlimit="10" d="M93.3,72.8"/>
	</g>
</g>
<g>
	<path fill="#008DD0" stroke="#FFFFFF" stroke-width="3.7548" stroke-miterlimit="10" d="M309.8,84.3c-9,0-16.2,7.4-16.2,16.7v39.5
		c0,7.7,11.1,7.7,11.1,0v-36.1h2.6v100.1c0,10.3,14.8,10,14.8,0v-58.6h2.5v58.6c0,10,14.8,10.3,14.8,0V104.3h2.6v36.1
		c0,7.7,11,7.7,11,0v-39.3c0-8.5-6.5-16.9-16.4-16.9L309.8,84.3z"/>
</g>
<g>
	<circle fill="#008DD0" stroke="#FFFFFF" stroke-width="3.7548" stroke-miterlimit="10" cx="323.3" cy="72.8" r="12.8"/>
	<path fill="#5D5D5D" stroke="#FFFFFF" stroke-width="3.7548" stroke-miterlimit="10" d="M323.3,72.8"/>
</g>
<g>
	<g>
		<path fill="#968066" stroke="#000000" stroke-width="5" stroke-miterlimit="10" d="M334.6,234.4l-142.9-35.7l11.8-47.4l8.6,2.1
			c7.2,1.8,14.5-2.6,16.3-9.8c1.8-7.2-2.6-14.6-9.8-16.3l-120.1-30c-7.2-1.8-14.5,2.6-16.3,9.8c-1.8,7.2,2.6,14.5,9.8,16.3l8.6,2.1
			L68,256.3l-8.6-2.1c-7.2-1.8-14.6,2.6-16.3,9.8c-1.8,7.2,2.6,14.5,9.8,16.3l120.1,30c7.2,1.8,14.5-2.6,16.3-9.8
			c1.8-7.2-2.6-14.5-9.8-16.3l-8.6-2.1l11-44.1l142.9,35.7c10.8,2.7,21.8-3.9,24.5-14.7C352,248.1,345.4,237.2,334.6,234.4z"/>
	</g>
	<g>
		<g>
			<path fill="#491A00" d="M21.3,352.3c-8.7,0-15.8-7.1-15.8-15.8s7.1-15.8,15.8-15.8h314.1c8.7,0,15.8,7.1,15.8,15.8
				s-7.1,15.8-15.8,15.8H21.3z"/>
			<path d="M335.4,323.2c7.3,0,13.3,6,13.3,13.3s-6,13.3-13.3,13.3H21.3c-7.3,0-13.3-6-13.3-13.3s6-13.3,13.3-13.3H335.4
				 M335.4,318.2H21.3c-10.1,0-18.3,8.2-18.3,18.3c0,10.1,8.2,18.3,18.3,18.3h314.1c10.1,0,18.3-8.2,18.3-18.3
				S345.4,318.2,335.4,318.2L335.4,318.2z"/>
		</g>
	</g>
</g>
</svg>
