<?xml version="1.0" encoding="utf-8"?>
<!-- Generator: Adobe Illustrator 18.1.1, SVG Export Plug-In . SVG Version: 6.00 Build 0)  -->
<svg version="1.1" id="Layer_3" xmlns="http://www.w3.org/2000/svg" xmlns:xlink="http://www.w3.org/1999/xlink" x="0px" y="0px"
	 viewBox="0 0 360 360" enable-background="new 0 0 360 360" xml:space="preserve">
<g>
	<circle fill="#FFFFFF" cx="246.8" cy="115.1" r="92.4"/>
	<g>
		<g>
			<g>
				<path fill="#0000C0" stroke="#000000" stroke-width="4" stroke-miterlimit="10" d="M246.8,5.2c-60.6,0-109.9,49.3-109.9,109.9
					S186.2,225,246.8,225c60.6,0,109.9-49.3,109.9-109.9C356.7,54.5,307.4,5.2,246.8,5.2z M293,188.5l-4.7-8.1
					c-0.5-0.9-1.6-1.5-2.7-1.5c-0.5,0-1.1,0.1-1.5,0.4c-0.7,0.4-1.2,1.1-1.4,1.9c-0.2,0.8-0.1,1.6,0.3,2.3l4.7,8.2
					c-10.6,5.7-22.5,9.2-35.1,10.1v-11.5c0-3.2-2.6-5.8-5.8-5.8c-3.2,0-5.8,2.6-5.8,5.8v11.5c-12.5-0.8-24.2-4.3-34.7-9.8l4.7-8.2
					c0.4-0.7,0.5-1.5,0.3-2.3c-0.2-0.8-0.7-1.4-1.4-1.9c-0.5-0.3-1-0.4-1.5-0.4c-1.1,0-2.1,0.6-2.7,1.5l-4.7,8.2
					c-10.5-6.5-19.4-15.2-26.3-25.4l9.9-5.7c2.8-1.6,3.7-5.1,2.1-7.9c-1.6-2.8-5.1-3.7-7.9-2.1l-10,5.7c-5.2-10.6-8.4-22.4-8.8-34.9
					l9.4,0c0.8,0,1.6-0.3,2.2-0.9c0.6-0.6,0.9-1.4,0.9-2.2c0-1.7-1.4-3.1-3.1-3.1l-9.5,0c0.4-12.7,3.5-24.7,8.9-35.5l10,5.7
					c0.9,0.5,1.9,0.8,2.9,0.8c2,0,3.9-1,5-2.9c1.6-2.8,0.6-6.3-2.1-7.9l-9.9-5.7c6.8-10.1,15.6-18.6,25.8-25.1l4.7,8.1
					c0.3,0.5,0.7,0.8,1.1,1.1c0.9,0.5,2.1,0.5,3.1,0c0.7-0.4,1.2-1.1,1.4-1.9c0.2-0.8,0.1-1.6-0.3-2.3l-4.7-8.2
					c10.6-5.7,22.5-9.2,35.1-10.1V40c0,3.2,2.6,5.8,5.8,5.8c3.2,0,5.8-2.6,5.8-5.8V28.5c12.5,0.8,24.2,4.3,34.7,9.8l-4.7,8.2
					c-0.8,1.5-0.3,3.3,1.1,4.2c0.5,0.3,1,0.4,1.5,0.4c1.1,0,2.1-0.6,2.7-1.5l4.7-8.2c10.5,6.5,19.4,15.2,26.3,25.4l-9.9,5.7
					c-2.8,1.6-3.7,5.1-2.1,7.9c1.1,1.9,3,2.9,5,2.9c1,0,2-0.2,2.9-0.8l10-5.7c5.2,10.6,8.4,22.4,8.8,34.9l-9.4,0
					c-0.8,0-1.6,0.3-2.2,0.9c-0.6,0.6-0.9,1.3-0.9,2.2c0,1.1,0.6,2.1,1.5,2.7c0.5,0.3,1,0.4,1.5,0.4h0l9.4,0
					c-0.4,12.7-3.5,24.7-8.9,35.5l-10-5.7c-2.8-1.6-6.3-0.6-7.9,2.1c-1.6,2.8-0.7,6.3,2.1,7.9l9.9,5.7
					C312.1,173.4,303.2,182,293,188.5z"/>
				<path fill="#0000C0" stroke="#000000" stroke-width="4" stroke-miterlimit="10" d="M289.5,83.7l-37.1,20.6
					c-1.7-0.9-3.6-1.4-5.6-1.4c-2,0-4,0.5-5.6,1.4L204,83.7c-3.5-1.9-7.9-0.7-9.9,2.8c-1.9,3.5-0.7,7.9,2.8,9.9l37.9,21
					c1.1,5.6,6,9.8,11.9,9.8c5.9,0,10.9-4.2,11.9-9.8l37.9-21c3.5-1.9,4.8-6.4,2.8-9.9C297.5,83,293,81.8,289.5,83.7z"/>
			</g>
		</g>
	</g>
</g>
<rect x="14.3" y="141.5" fill="#FFFFFF" width="178.3" height="203.7"/>
<circle cx="104.7" cy="260.8" r="36.6"/>
<path fill="#000002" d="M185.7,350.6H23.8c-6.9,0-12.5-5.6-12.5-12.5V149.7c0-6.9,5.6-12.5,12.5-12.5h161.9
	c6.9,0,12.5,5.6,12.5,12.5v188.4C198.2,345,192.6,350.6,185.7,350.6z M17.8,181.3v156.7c0,3.3,2.7,5.9,5.9,5.9h161.9
	c3.3,0,5.9-2.7,5.9-5.9V181.3H17.8z M17.8,174.7h173.8v-25c0-3.3-2.7-5.9-5.9-5.9H23.8c-3.3,0-5.9,2.7-5.9,5.9L17.8,174.7
	L17.8,174.7z M104.7,317c-31.5,0-57.1-25.6-57.1-57.1s25.6-57.1,57.1-57.1s57.1,25.6,57.1,57.1S136.2,317,104.7,317z M104.7,209.3
	c-27.9,0-50.5,22.7-50.5,50.5s22.7,50.5,50.5,50.5c25.5,0,46.6-19,50-43.6h-9c-3.3,20-20.5,34.6-41,34.6
	c-22.9,0-41.6-18.7-41.6-41.6c0-22.9,18.7-41.6,41.6-41.6c19.7,0,36.3,13.4,40.6,32.3h9.1C150,227.1,129.4,209.3,104.7,209.3z
	 M104.7,224.8c-19.3,0-35,15.7-35,35c0,19.3,15.7,35,35,35c16.9,0,31.1-11.8,34.3-28h-16c0,0-0.1,0-0.1,0h-0.2
	c-1.8,0-3.3-1.5-3.3-3.3v-9.7c0-1.8,1.5-3.3,3.3-3.3h15.8C134.4,235.4,120.8,224.8,104.7,224.8z M143,260.2h11.6v-3.1h-28.2v3.1
	L143,260.2C142.9,260.2,142.9,260.2,143,260.2z M34.3,169.4c-5.4,0-9.8-4.4-9.8-9.8s4.4-9.8,9.8-9.8s9.8,4.4,9.8,9.8
	S39.7,169.4,34.3,169.4z M34.3,156.5c-1.7,0-3.2,1.4-3.2,3.2c0,1.7,1.4,3.2,3.2,3.2c1.7,0,3.2-1.4,3.2-3.2
	C37.4,157.9,36,156.5,34.3,156.5z M94.4,167.6H82.5c-1.8,0-3.3-1.5-3.3-3.3c0-1.8,1.5-3.3,3.3-3.3h11.9c1.8,0,3.3,1.5,3.3,3.3
	C97.7,166.2,96.3,167.6,94.4,167.6z M68.2,167.6H56.3c-1.8,0-3.3-1.5-3.3-3.3c0-1.8,1.5-3.3,3.3-3.3h11.9c1.8,0,3.3,1.5,3.3,3.3
	C71.5,166.2,70.1,167.6,68.2,167.6z M94.4,157.6H82.5c-1.8,0-3.3-1.5-3.3-3.3s1.5-3.3,3.3-3.3h11.9c1.8,0,3.3,1.5,3.3,3.3
	S96.3,157.6,94.4,157.6z M68.2,157.6H56.3c-1.8,0-3.3-1.5-3.3-3.3s1.5-3.3,3.3-3.3h11.9c1.8,0,3.3,1.5,3.3,3.3
	S70.1,157.6,68.2,157.6z"/>
<rect x="190" y="231.1" fill="#FFFFFF" width="161.5" height="89.7"/>
<g>
	<g>
		<rect x="201.8" y="250.3" width="65.9" height="10.6"/>
		<path fill="#039704" d="M311.5,316.4c1.2-1.7,3.1-3.5,5-5.1h-123V240H342v38.6l9.5-5v-53.1H184v100.4h124.5L311.5,316.4z"/>
		<rect x="201.8" y="268.8" width="119.9" height="10.6"/>
		<path fill="#FFBF04" d="M356.3,279.1l-25.7,13.6l-6.1,19.2l5.7,3.8l13.4-20.2c-0.8-1.1-0.8-2.7,0-3.9c1.1-1.6,3.2-2,4.8-1
			c1.6,1.1,2,3.2,1,4.8c-0.8,1.2-2.1,1.7-3.4,1.5l-13.5,20.2l5.9,3.9l15.4-12.7L356.3,279.1L356.3,279.1z"/>
		<path d="M314.1,322.2c-2.1,3.2-15,22.6-15,22.6l9.2,6.1l2.7,1.8l3.7,2.5l2.7,1.8c0,0,13-19.5,15-22.6c2-3,3.6-11.3,3.6-11.3
			l-12.7-8.5C323.3,314.6,316.2,319,314.1,322.2z"/>
	</g>
</g>
</svg>
