<?xml version="1.0" encoding="utf-8"?>
<!-- Generator: Adobe Illustrator 18.1.1, SVG Export Plug-In . SVG Version: 6.00 Build 0)  -->
<svg version="1.1" id="Layer_3" xmlns="http://www.w3.org/2000/svg" xmlns:xlink="http://www.w3.org/1999/xlink" x="0px" y="0px"
	 viewBox="0 0 360 360" enable-background="new 0 0 360 360" xml:space="preserve">
<g>
	<g>
		<g>
			<ellipse fill="#0000FF" cx="311.3" cy="25.1" rx="21.1" ry="21.5"/>
		</g>
		<g>
			<path fill="#0000FF" d="M268,139v-5.3c0-4.3,2.1-8.5,5.4-11.1v-18.2H254c-7.5,0-13.6-6.1-13.6-13.8c0-1.3,0.6-2.3,0.6-3.5v-4.9
				h2.3c2.5-3.7,6.4-5.5,10.7-5.5h17.8c0.2-0.9,0.7-1.2,0.7-2V25.4c0-4.1-3.7-7.7-7.7-7.7h-60.1c-4,0-7,3.6-7,7.7v49.4
				c0,4.1,3,7.5,7,7.5h24.5v6.5H221c-3.6,0-6.6,2.8-6.6,7.4h-28.1c-1.9,0-3.1,1.1-3.1,3v7.8c0,1.9,1.3,3,3.1,3h9.5V180h79.4v-31.6
				C275.3,148.4,268,146.9,268,139z M215.3,71.2c-4,0-7.7-2.9-7.7-7V36c0-4.1,3.7-7.3,7.7-7.3h39.1c4,0,7.3,3.1,7.3,7.3v28.1
				c0,4.1-3.3,7-7.3,7H215.3z"/>
		</g>
		<g>
			<path fill="#0000FF" d="M325.4,50.2h-27.9c-17.1,0-18.2,17.5-18.2,17.5s-2.3,11.8-4.2,13.1c-0.6,0.4-1.3,0.7-2.1,0.7H254
				c-4.5,0-8.2,3.7-8.2,8.3c0,4.6,3.7,8.3,8.2,8.3h19.1c3,0,5.6,0,5.9-0.1l-0.2,20.4h10.8V73.4c0-9.1,5.7-19.5,14.7-19.5h33.2
				C334.3,51.2,330,50.2,325.4,50.2z"/>
		</g>
		<g>
			<path fill="#0000FF" d="M346.4,142.2c6,0,10.9-5,10.9-11.2V73.8c0-6.9-5.7-12.8-12.4-12.8h-37.8c-6.7,0-12,5.9-12,12.8v50.9
				h-12.2c-4.7,0-8.6,3.7-8.6,8.5v3.1c0,3.3,2.6,5.9,5.8,5.9h25.8v7.4h-4.1c0,0-10.3,0.2-10.3,10v14.1c0,3.2,2.3,5.7,5.4,5.7
				c3.1,0,5.5-2.6,5.5-5.8l-0.1-13h18.9v13c0,3.2,2.7,5.7,5.9,5.7c3.1,0,5.9-2.6,5.9-5.7v-14.1c0-10.6-11.1-10-11.1-10h-4.3v-7.4
				L346.4,142.2L346.4,142.2z"/>
		</g>
	</g>
</g>
<g>
	<g>
		<g>
			<ellipse fill="#FF0000" cx="224.3" cy="131.7" rx="21.1" ry="21.5"/>
		</g>
		<g>
			<path fill="#FF0000" d="M181,245.6v-5.3c0-4.3,2.1-8.5,5.4-11.1V211H167c-7.5,0-13.6-6.1-13.6-13.8c0-1.3,0.6-2.3,0.6-3.5v-4.9
				h2.3c2.5-3.7,6.4-5.5,10.7-5.5h17.8c0.2-0.9,0.7-1.2,0.7-2V132c0-4.1-3.7-7.7-7.7-7.7h-60.1c-4,0-7,3.6-7,7.7v49.4
				c0,4.1,3,7.5,7,7.5h24.5v6.5H134c-3.6,0-6.6,2.8-6.6,7.4H99.4c-1.9,0-3.1,1.1-3.1,3v7.8c0,1.9,1.3,3,3.1,3h9.5v70.1h79.4V255
				C188.2,255,181,253.5,181,245.6z M128.3,177.7c-4,0-7.7-2.9-7.7-7v-28.1c0-4.1,3.7-7.3,7.7-7.3h39.1c4,0,7.3,3.1,7.3,7.3v28.1
				c0,4.1-3.3,7-7.3,7H128.3z"/>
		</g>
		<g>
			<path fill="#FF0000" d="M238.3,156.8h-27.9c-17.1,0-18.2,17.5-18.2,17.5s-2.3,11.8-4.2,13.1c-0.6,0.4-1.3,0.7-2.1,0.7H167
				c-4.5,0-8.2,3.7-8.2,8.3c0,4.6,3.7,8.3,8.2,8.3H186c3,0,5.6,0,5.9-0.1l-0.2,20.4h10.8V180c0-9.1,5.7-19.5,14.7-19.5h33.2
				C247.3,157.7,243,156.8,238.3,156.8z"/>
		</g>
		<g>
			<path fill="#FF0000" d="M259.4,248.8c6,0,10.9-5,10.9-11.2v-57.2c0-6.9-5.7-12.8-12.4-12.8h-37.8c-6.7,0-12,5.9-12,12.8v50.9
				h-12.2c-4.7,0-8.6,3.7-8.6,8.5v3.1c0,3.3,2.6,5.9,5.8,5.9h25.8v7.4h-4.1c0,0-10.3,0.2-10.3,10v14.1c0,3.2,2.3,5.7,5.4,5.7
				c3.1,0,5.5-2.6,5.5-5.8l-0.1-13h18.9v13c0,3.2,2.7,5.7,5.9,5.7c3.1,0,5.9-2.6,5.9-5.7v-14.1c0-10.6-11.1-10-11.1-10h-4.3v-7.4
				L259.4,248.8L259.4,248.8z"/>
		</g>
	</g>
</g>
<g>
	<g>
		<g>
			<path fill="#007A00" d="M132,220.9c-12.2,0-22.1-10.1-22.1-22.5s9.9-22.5,22.1-22.5s22.1,10.1,22.1,22.5S144.2,220.9,132,220.9z"
				/>
			<path fill="#FFFFFF" d="M132,176.8c11.6,0,21.1,9.6,21.1,21.5s-9.4,21.5-21.1,21.5c-11.6,0-21.1-9.6-21.1-21.5
				S120.4,176.8,132,176.8 M132,174.8c-12.7,0-23.1,10.6-23.1,23.5s10.3,23.5,23.1,23.5s23.1-10.6,23.1-23.5S144.7,174.8,132,174.8
				L132,174.8z"/>
		</g>
		<g>
			<path fill="#007A00" d="M15.6,354.3v-70.1H7.1c-2.5,0-4.1-1.6-4.1-4v-7.8c0-2.4,1.7-4,4.1-4h27.1c0.4-4.4,3.4-7.4,7.5-7.4h7.3
				v-4.5H25.4c-4.5,0-8-3.7-8-8.5v-49.4c0-4.8,3.6-8.7,8-8.7h60.1c4.7,0,8.7,4.1,8.7,8.7V248c0,0.6-0.2,1.1-0.4,1.4
				c-0.1,0.2-0.2,0.4-0.3,0.7l-0.2,0.8H74.7c-4.2,0-7.7,1.8-9.9,5.1l-0.3,0.4h-1.8v3.9c0,0.7-0.2,1.3-0.3,1.9
				c-0.1,0.5-0.3,1-0.3,1.6c0,7.2,5.5,12.8,12.6,12.8h20.5v19.7l-0.4,0.3c-3.2,2.5-5,6.4-5,10.3v5.3c0,6.6,5.5,8.2,6.3,8.4h0.9v33.6
				H15.6z M36,203c-3.6,0-6.7,2.9-6.7,6.3v28.1c0,3.7,3.5,6,6.7,6h39.1c3.6,0,6.3-2.6,6.3-6v-28.1c0-3.5-2.8-6.3-6.3-6.3H36z"/>
			<path fill="#FFFFFF" d="M85.5,190.9c4,0,7.7,3.6,7.7,7.7V248c0,0.7-0.5,1-0.7,2H74.7c-4.4,0-8.2,1.8-10.7,5.5h-2.3v4.9
				c0,1.2-0.6,2.2-0.6,3.5c0,7.7,6,13.8,13.6,13.8h19.5v18.2c-3.4,2.7-5.4,6.8-5.4,11.1v5.3c0,7.9,7.2,9.4,7.2,9.4h0v31.6H16.6
				v-70.1H7.1c-1.9,0-3.1-1.1-3.1-3v-7.8c0-1.9,1.3-3,3.1-3h28.1c0-4.6,2.9-7.4,6.6-7.4h8.3v-6.5H25.4c-4,0-7-3.4-7-7.5v-49.4
				c0-4.1,3-7.7,7-7.7H85.5 M36,244.4h39.1c4,0,7.3-2.9,7.3-7v-28.1c0-4.1-3.3-7.3-7.3-7.3H36c-4,0-7.7,3.1-7.7,7.3v28.1
				C28.3,241.5,32,244.4,36,244.4 M95.9,321.7L95.9,321.7 M85.5,188.9H25.4c-5,0-9,4.4-9,9.7V248c0,5.3,4,9.5,9,9.5h22.5v2.5h-6.3
				c-4.3,0-7.6,3-8.4,7.4H7.1c-3,0-5.1,2.1-5.1,5v7.8c0,3,2.1,5,5.1,5h7.5v68.1v2h2h79.4h2v-2v-31.6v-2l-1.8,0
				c-1-0.3-5.5-1.8-5.5-7.4v-5.3c0-3.7,1.7-7.2,4.7-9.5l0.8-0.6v-1v-18.2v-2h-2H74.7c-6.5,0-11.6-5.2-11.6-11.8
				c0-0.4,0.1-0.8,0.2-1.3c0.2-0.6,0.3-1.3,0.3-2.1v-2.9h0.3H65l0.6-0.9c2-3,5.3-4.7,9.1-4.7h17.8h1.6l0.3-1.6
				c0-0.1,0.1-0.2,0.2-0.4c0.2-0.4,0.6-1,0.6-1.9v-49.4C95.2,193.5,90.7,188.9,85.5,188.9L85.5,188.9z M36,242.4
				c-2.7,0-5.7-1.9-5.7-5v-28.1c0-2.9,2.6-5.3,5.7-5.3h39.1c3,0,5.3,2.3,5.3,5.3v28.1c0,2.9-2.3,5-5.3,5H36L36,242.4z"/>
		</g>
		<g>
			<path fill="#007A00" d="M98.5,292.7l0.2-20.3c-0.7,0-1.7,0-3.2,0H74.7c-5.1,0-9.2-4.2-9.2-9.3c0-5.1,4.1-9.3,9.2-9.3h19.1
				c0.5,0,1-0.2,1.5-0.5c0.9-0.7,2.7-7,3.8-12.5c0.1-1.3,1.9-18.4,19.2-18.4H146c5.5,0,9.7,1.3,12.9,3.9l2.1,1.8h-36
				c-8.2,0-13.7,9.6-13.7,18.5v46.1H98.5z"/>
			<path fill="#FFFFFF" d="M146,223.5c4.6,0,8.9,0.9,12.2,3.7H125c-9,0-14.7,10.4-14.7,19.5v45.1H99.5l0.2-20.4
				c-0.3,0.1-2,0.1-4.2,0.1c-0.5,0-1.1,0-1.7,0H74.7c-4.5,0-8.2-3.7-8.2-8.3c0-4.6,3.7-8.3,8.2-8.3h19.1c0.8,0,1.5-0.3,2.1-0.7
				c1.9-1.4,4.2-13.1,4.2-13.1s1.1-17.5,18.2-17.5H146 M146,221.5h-27.9c-17.8,0-20,17.4-20.1,19.2c-1,4.9-2.5,10.8-3.4,11.8
				c-0.4,0.3-0.7,0.3-0.8,0.3H74.7c-5.6,0-10.2,4.6-10.2,10.3c0,5.7,4.6,10.3,10.2,10.3h19.1l0.9,0l0.8,0c0.9,0,1.6,0,2.2,0
				l-0.2,18.3l0,2h2h10.8h2v-2v-45.1c0-8.3,5.2-17.5,12.7-17.5h33.2h5.5l-4.2-3.5C156.2,222.8,151.8,221.5,146,221.5L146,221.5z"/>
		</g>
		<g>
			<path fill="#007A00" d="M147.8,353.6c-3.7,0-6.9-3.1-6.9-6.7v-12h-16.9l0.1,12c0,3.7-2.9,6.8-6.5,6.8c-3.6,0-6.4-3-6.4-6.7v-14.1
				c0-10.6,11.2-11,11.3-11h3.2v-5.4h-24.8c-3.7,0-6.8-3.1-6.8-6.9v-3.1c0-5.2,4.3-9.5,9.6-9.5h11.2V247c0-7.6,5.8-13.8,13-13.8
				h37.8c7.3,0,13.4,6.3,13.4,13.8v57.2c0,6.7-5.3,12.2-11.9,12.2h-1v0h-26.8v5.4h3.3c0,0,0.1,0,0.3,0c5.4,0,11.7,2.9,11.7,11v14.1
				C154.7,350.5,151.5,353.6,147.8,353.6z"/>
			<path fill="#FFFFFF" d="M165.6,234.3c6.7,0,12.4,5.9,12.4,12.8v57.2c0,6.2-4.9,11.2-10.9,11.2l0,0h-28.8v7.4h4.3c0,0,0.1,0,0.3,0
				c1.8,0,10.7,0.5,10.7,10.1v14.1c0,3.2-2.7,5.7-5.9,5.7s-5.9-2.6-5.9-5.7v-13h-18.9l0.1,13c0,3.2-2.4,5.8-5.5,5.8
				c-3.1,0-5.4-2.6-5.4-5.7v-14.1c0-9.8,10.3-10,10.3-10h4.1v-7.4h-25.8c-3.2,0-5.8-2.6-5.8-5.9v-3.1c0-4.8,3.9-8.5,8.6-8.5h12.2
				V247c0-6.9,5.3-12.8,12-12.8H165.6 M165.6,232.3h-37.8c-7.7,0-14,6.6-14,14.8v48.9h-10.2c-5.8,0-10.6,4.7-10.6,10.5v3.1
				c0,4.4,3.5,7.9,7.8,7.9h23.8v3.4h-2.1c-4.3,0.1-12.3,2.8-12.3,12v14.1c0,4.3,3.3,7.7,7.4,7.7c4.2,0,7.5-3.5,7.5-7.8l-0.1-11h14.9
				v11c0,4.2,3.6,7.7,7.9,7.7c4.3,0,7.9-3.5,7.9-7.7v-14.1c0-8.9-6.9-12.1-12.7-12.1c-0.2,0-0.3,0-0.4,0h-2.2v-3.4h24.8l2,0
				c7.1,0,12.9-5.9,12.9-13.2V247C180,239,173.4,232.3,165.6,232.3L165.6,232.3z"/>
		</g>
	</g>
</g>
</svg>
